<?xml version="1.0" standalone="no"?>
<!DOCTYPE svg PUBLIC "-//W3C//DTD SVG 20010904//EN"
 "http://www.w3.org/TR/2001/REC-SVG-20010904/DTD/svg10.dtd">
<svg version="1.0" xmlns="http://www.w3.org/2000/svg"
 width="822.000000pt" height="854.000000pt" viewBox="0 0 822.000000 854.000000"
 preserveAspectRatio="xMidYMid meet">

<g transform="translate(0.000000,854.000000) scale(0.100000,-0.100000)"
fill="#000000" stroke="none">
<path d="M0 4270 l0 -4270 603 0 603 0 12 168 c47 660 223 1456 457 2068 54
141 226 508 257 547 13 17 16 17 63 -3 28 -12 127 -50 220 -85 353 -131 630
-200 925 -230 85 -9 159 -17 164 -18 5 -2 -53 -31 -130 -64 -155 -68 -723
-315 -854 -372 l-85 -37 -3 -58 c-2 -45 0 -57 10 -53 7 2 67 28 133 57 66 29
188 81 270 117 83 36 170 74 195 86 48 21 299 130 470 204 661 285 922 401
958 426 55 40 99 107 108 165 4 25 1 82 -6 126 -16 102 -4 150 48 206 21 21
68 53 105 71 37 17 74 41 82 52 12 18 15 66 15 264 0 223 10 343 29 343 4 0
15 -24 24 -53 14 -44 17 -97 17 -300 0 -261 4 -286 47 -306 53 -24 121 -75
138 -104 15 -24 17 -43 11 -104 -3 -41 -10 -83 -16 -93 -22 -42 -189 -156
-445 -305 -49 -29 -196 -114 -325 -190 -129 -76 -260 -153 -290 -170 -58 -34
-67 -39 -490 -287 -146 -85 -447 -262 -670 -393 -223 -130 -408 -240 -412
-243 -4 -4 -4 -32 -1 -63 l5 -56 307 180 c168 98 347 203 396 232 50 28 158
91 240 140 83 48 281 165 440 258 765 448 721 424 854 468 154 51 338 131 474
206 183 101 196 108 199 103 2 -3 0 -131 -4 -285 -18 -667 33 -1695 120 -2395
l27 -215 1463 -3 1462 -2 0 4270 0 4270 -4110 0 -4110 0 0 -4270z m3245 4050
c228 -21 466 -76 725 -165 397 -138 923 -421 1210 -652 136 -109 474 -454 459
-467 -2 -2 -155 -8 -339 -15 -1151 -38 -1058 -30 -1085 -94 -27 -65 6 -125 78
-143 21 -5 27 -11 22 -23 -42 -109 -50 -150 -50 -261 0 -108 2 -119 31 -180
77 -158 290 -336 491 -409 232 -85 459 -48 689 111 272 187 362 465 237 732
-30 63 -35 80 -23 84 7 3 25 16 38 29 14 14 28 21 31 16 26 -29 89 -124 149
-223 179 -296 334 -666 406 -970 15 -63 42 -169 58 -235 88 -344 113 -512 105
-700 -6 -142 -18 -183 -94 -308 -304 -505 -572 -829 -868 -1053 -164 -124
-489 -334 -518 -334 -6 0 -7 25 -3 71 7 64 5 76 -19 126 -22 44 -41 64 -101
106 l-74 51 0 231 c0 229 0 233 -29 319 -16 47 -41 102 -55 121 -51 66 -113
56 -154 -26 -41 -82 -52 -167 -52 -405 l0 -221 -42 -19 c-62 -28 -135 -89
-168 -140 -36 -58 -55 -153 -41 -214 26 -113 6 -187 -60 -227 -78 -47 -371
-165 -431 -174 -86 -12 -420 -11 -554 1 -190 18 -371 51 -539 97 -341 93 -866
312 -1195 498 -327 186 -607 423 -744 629 -209 317 -321 608 -368 956 -18 136
-15 492 6 675 56 486 215 1148 373 1550 164 415 312 602 561 705 119 50 361
160 647 295 277 131 380 169 558 209 231 52 493 68 732 46z m2306 -1512 c129
-136 145 -363 38 -530 -96 -149 -335 -289 -523 -304 -190 -17 -411 86 -586
272 -102 108 -130 192 -110 320 12 73 65 213 84 220 6 2 238 12 516 23 278 10
517 19 532 20 16 0 36 -8 49 -21z m2233 -2466 c13 -47 16 -107 16 -303 0 -278
-2 -269 83 -317 29 -16 68 -47 86 -68 l34 -38 -7 -79 c-4 -44 -11 -87 -15 -96
-19 -34 -175 -145 -356 -252 -104 -62 -347 -205 -540 -317 -192 -113 -465
-273 -605 -355 -140 -83 -280 -164 -310 -182 -30 -17 -161 -94 -290 -170 -129
-76 -293 -172 -365 -213 -71 -41 -134 -78 -139 -83 -6 -5 -16 -9 -23 -9 -10 0
-13 44 -13 208 l0 208 48 22 c61 27 358 156 442 192 36 16 106 46 155 68 50
21 185 80 300 130 116 50 338 146 495 214 157 69 347 151 423 184 161 69 216
106 254 171 30 51 31 68 22 263 -3 62 0 81 17 110 25 43 102 103 156 121 77
25 78 30 78 305 0 226 10 344 30 344 4 0 15 -26 24 -58z"/>
<path d="M2940 6885 c-118 -7 -359 -21 -535 -30 -1034 -55 -961 -46 -985 -120
-10 -30 -9 -41 7 -73 14 -29 28 -40 64 -52 l47 -16 -30 -39 c-112 -149 -146
-335 -89 -486 70 -185 285 -372 558 -485 243 -101 487 -107 751 -19 187 63
331 151 444 274 105 113 161 229 199 413 27 132 23 302 -8 390 l-21 56 35 7
c80 15 112 109 56 167 -27 28 -27 28 -152 27 -69 -1 -223 -7 -341 -14z m303
-232 c35 -83 39 -115 34 -242 -5 -142 -29 -250 -77 -346 -166 -336 -677 -536
-1075 -420 -250 73 -504 255 -585 418 -28 57 -34 83 -38 150 -6 130 43 240
157 351 l50 49 518 29 c285 15 583 32 663 37 80 4 188 9 241 10 l96 1 16 -37z"/>
<path d="M2550 6398 c-115 -59 -112 -217 5 -269 35 -16 52 -18 85 -10 75 17
111 55 125 131 8 45 -28 118 -70 142 -53 29 -95 31 -145 6z"/>
<path d="M5405 5390 c-154 -16 -417 -41 -585 -55 -1047 -89 -1834 -185 -2530
-310 -141 -26 -368 -57 -535 -75 -337 -35 -342 -36 -355 -60 -12 -23 2 -65 25
-73 18 -7 556 46 680 67 44 8 199 34 345 60 609 105 1441 206 2280 276 459 38
985 90 1008 100 23 10 30 51 14 77 -14 23 -64 22 -347 -7z"/>
<path d="M5176 5157 c-33 -24 -23 -64 29 -115 93 -91 136 -222 136 -417 0
-294 -117 -649 -352 -1066 -27 -48 -49 -96 -49 -108 0 -11 11 -28 25 -37 23
-15 27 -15 49 -1 56 37 262 457 344 702 118 350 122 686 10 885 -69 123 -149
188 -192 157z"/>
<path d="M5185 6595 c-137 -49 -129 -246 11 -284 80 -21 162 26 183 105 32
117 -80 220 -194 179z"/>
</g>
</svg>
