<?xml version="1.0" standalone="no"?>
<!DOCTYPE svg PUBLIC "-//W3C//DTD SVG 20010904//EN"
 "http://www.w3.org/TR/2001/REC-SVG-20010904/DTD/svg10.dtd">
<svg version="1.0" xmlns="http://www.w3.org/2000/svg"
 width="2560.000000pt" height="1047.000000pt" viewBox="0 0 2560.000000 1047.000000"
 preserveAspectRatio="xMidYMid meet">

<g transform="translate(0.000000,1047.000000) scale(0.100000,-0.100000)"
fill="#000000" stroke="none">
<path d="M745 9226 c-60 -28 -97 -66 -124 -126 l-21 -45 0 -4250 c0 -2821 3
-4262 10 -4286 14 -50 80 -122 138 -151 l47 -23 4426 0 4425 0 60 30 c70 36
117 98 133 178 8 37 10 1278 9 4277 -3 4044 -4 4227 -21 4265 -25 55 -73 103
-132 131 -48 23 -59 24 -271 24 l-221 0 5 -137 c3 -100 0 -160 -11 -218 -68
-358 -350 -645 -710 -721 -115 -24 -292 -20 -409 10 -316 80 -561 317 -653
631 -30 103 -43 282 -27 378 l9 57 -3306 0 -3306 0 -50 -24z m2505 -1213 c-52
-59 -122 -202 -151 -307 -53 -197 -52 -172 -56 -1205 l-4 -964 643 814 c354
448 673 853 710 901 143 188 258 383 304 513 21 61 30 207 16 258 l-10 37
1131 0 1131 0 -45 -28 c-200 -128 -415 -351 -830 -862 -138 -169 -1786 -2222
-1820 -2266 -6 -7 381 -548 1022 -1430 567 -780 1054 -1448 1082 -1484 187
-240 422 -499 542 -598 l50 -41 -1156 -1 -1155 0 13 78 c18 95 10 181 -23 282
-30 88 -108 240 -189 365 -46 72 -1374 1894 -1407 1930 -5 6 -7 -420 -5 -1025
3 -937 5 -1044 20 -1125 38 -192 101 -350 183 -457 l36 -48 -1057 0 -1058 0
40 42 c83 91 146 205 177 323 35 133 37 302 33 3095 -3 2460 -5 2753 -19 2820
-30 144 -86 258 -179 370 l-50 60 1061 0 1062 0 -42 -47z m5840 -3910 c0
-1359 4 -2220 10 -2290 15 -172 68 -309 166 -430 l27 -33 -988 0 -987 0 16 22
c94 129 145 233 167 344 9 44 13 542 16 1984 4 1961 1 2166 -33 2280 -21 71
-73 174 -116 231 -19 24 -37 50 -42 57 -6 9 173 12 878 12 l886 0 0 -2177z"/>
<path d="M23273 8428 c53 -65 114 -186 139 -274 22 -79 22 -79 26 -1128 l3
-1048 -53 45 c-214 181 -488 292 -833 338 -149 20 -450 15 -585 -9 -559 -101
-997 -438 -1269 -980 -201 -401 -302 -860 -332 -1511 -27 -587 49 -1057 240
-1488 246 -557 702 -951 1245 -1077 324 -75 726 -56 1046 50 202 67 419 192
563 324 l67 62 0 -191 0 -191 839 0 839 0 -44 66 c-73 112 -120 270 -144 479
-6 58 -10 1228 -10 3333 l0 3242 -886 0 -885 0 34 -42z m-258 -3222 c137 -37
296 -119 408 -209 16 -13 17 -77 15 -1143 l-3 -1128 -50 -38 c-294 -225 -680
-301 -947 -186 -210 90 -355 333 -417 698 -59 349 -43 922 36 1279 92 417 274
660 553 736 73 20 319 14 405 -9z"/>
<path d="M13065 8149 c-674 -64 -1284 -358 -1790 -864 -586 -586 -895 -1325
-955 -2285 -60 -979 163 -1866 641 -2542 494 -698 1128 -1084 1964 -1195 163
-21 625 -24 790 -5 484 57 825 168 1278 415 246 134 270 146 344 172 l62 22
-366 599 c-200 329 -369 603 -373 608 -5 5 -21 -5 -37 -24 -55 -65 -230 -213
-338 -285 -181 -121 -347 -192 -559 -237 -82 -17 -135 -21 -281 -21 -162 0
-190 2 -276 25 -447 120 -780 429 -972 903 -147 361 -218 839 -203 1375 26
968 330 1677 836 1949 262 140 601 183 926 115 266 -54 510 -197 688 -399 l63
-73 400 582 c319 462 397 582 384 587 -9 4 -48 16 -87 28 -39 12 -194 83 -345
159 -151 76 -337 162 -414 191 -275 104 -580 177 -840 201 -128 12 -410 11
-540 -1z"/>
<path d="M17625 6373 c-269 -11 -413 -36 -887 -154 -389 -97 -636 -151 -750
-164 -32 -3 -58 -9 -58 -13 0 -7 418 -1018 432 -1044 8 -16 14 -15 76 16 253
127 554 228 817 272 146 25 447 25 535 1 278 -78 429 -293 447 -636 l6 -114
-139 8 c-195 10 -608 8 -766 -5 -474 -37 -816 -123 -1107 -276 -233 -123 -443
-295 -577 -474 -68 -90 -158 -261 -194 -370 -85 -256 -100 -583 -40 -894 136
-700 692 -1182 1462 -1265 515 -57 1025 94 1351 400 l77 71 0 -191 0 -191 835
0 c459 0 835 2 835 5 0 3 -18 29 -41 57 -69 88 -117 197 -140 320 -9 46 -14
464 -19 1528 -6 1290 -9 1479 -23 1580 -43 291 -114 545 -202 722 -198 394
-567 649 -1090 752 -173 34 -258 44 -460 56 -162 9 -220 10 -380 3z m475
-2843 c47 -6 93 -13 103 -16 16 -5 17 -33 17 -399 l0 -393 -45 -62 c-118 -159
-262 -253 -456 -296 -110 -25 -321 -23 -421 4 -193 52 -343 180 -400 340 -26
71 -35 225 -19 303 21 100 75 196 152 271 119 115 332 206 564 242 109 17 388
20 505 6z"/>
</g>
</svg>
