%TF.GenerationSoftware,KiCad,Pcbnew,9.0.1*%
%TF.CreationDate,2025-05-04T07:23:12+02:00*%
%TF.ProjectId,clock-module,636c6f63-6b2d-46d6-9f64-756c652e6b69,rev?*%
%TF.SameCoordinates,Original*%
%TF.FileFunction,Legend,Top*%
%TF.FilePolarity,Positive*%
%FSLAX46Y46*%
G04 Gerber Fmt 4.6, Leading zero omitted, Abs format (unit mm)*
G04 Created by KiCad (PCBNEW 9.0.1) date 2025-05-04 07:23:12*
%MOMM*%
%LPD*%
G01*
G04 APERTURE LIST*
%ADD10C,0.000000*%
%ADD11C,0.300000*%
%ADD12C,0.400000*%
%ADD13C,0.200000*%
%ADD14C,0.150000*%
%ADD15C,0.100000*%
%ADD16C,0.120000*%
G04 APERTURE END LIST*
D10*
G36*
X109798555Y-105285822D02*
G01*
X109797615Y-105292502D01*
X109796910Y-105299785D01*
X109796431Y-105307591D01*
X109796174Y-105315836D01*
X109796131Y-105324439D01*
X109796298Y-105333317D01*
X109797232Y-105351571D01*
X109798927Y-105369941D01*
X109800044Y-105378964D01*
X109801333Y-105387770D01*
X109802787Y-105396275D01*
X109804401Y-105404399D01*
X109806167Y-105412059D01*
X109808080Y-105419172D01*
X109814791Y-105439617D01*
X109822724Y-105459383D01*
X109831838Y-105478431D01*
X109842090Y-105496717D01*
X109853437Y-105514202D01*
X109865838Y-105530843D01*
X109879249Y-105546599D01*
X109893629Y-105561430D01*
X109908934Y-105575293D01*
X109925124Y-105588147D01*
X109942154Y-105599951D01*
X109959984Y-105610664D01*
X109978570Y-105620244D01*
X109997870Y-105628650D01*
X110017842Y-105635841D01*
X110038444Y-105641775D01*
X110046420Y-105643652D01*
X110054830Y-105645312D01*
X110063610Y-105646756D01*
X110072696Y-105647982D01*
X110082027Y-105648988D01*
X110091538Y-105649774D01*
X110101167Y-105650340D01*
X110110851Y-105650683D01*
X110120527Y-105650802D01*
X110130132Y-105650698D01*
X110139602Y-105650368D01*
X110148874Y-105649812D01*
X110157887Y-105649028D01*
X110166575Y-105648016D01*
X110174877Y-105646775D01*
X110182730Y-105645303D01*
X110194554Y-105642573D01*
X110206208Y-105639415D01*
X110228971Y-105631856D01*
X110250949Y-105622696D01*
X110272071Y-105612009D01*
X110292267Y-105599867D01*
X110311466Y-105586342D01*
X110329599Y-105571506D01*
X110346595Y-105555433D01*
X110362384Y-105538193D01*
X110376896Y-105519860D01*
X110390059Y-105500506D01*
X110401805Y-105480203D01*
X110412063Y-105459023D01*
X110420761Y-105437040D01*
X110427831Y-105414325D01*
X110430734Y-105402715D01*
X110433202Y-105390950D01*
X110434527Y-105383218D01*
X110435595Y-105375262D01*
X110436414Y-105366927D01*
X110436995Y-105358054D01*
X110437343Y-105348486D01*
X110437469Y-105338066D01*
X110437379Y-105326638D01*
X110437083Y-105314044D01*
X110435319Y-105265714D01*
X110513283Y-105265714D01*
X110538169Y-105265745D01*
X110548427Y-105265800D01*
X110557391Y-105265896D01*
X110565186Y-105266043D01*
X110571934Y-105266253D01*
X110577757Y-105266537D01*
X110582780Y-105266904D01*
X110587125Y-105267367D01*
X110589081Y-105267638D01*
X110590915Y-105267936D01*
X110592640Y-105268263D01*
X110594272Y-105268621D01*
X110595828Y-105269011D01*
X110597321Y-105269435D01*
X110598768Y-105269892D01*
X110600184Y-105270386D01*
X110602984Y-105271487D01*
X110605843Y-105272748D01*
X110608886Y-105274180D01*
X110612742Y-105276114D01*
X110616501Y-105278206D01*
X110620156Y-105280451D01*
X110623702Y-105282840D01*
X110627133Y-105285368D01*
X110630441Y-105288028D01*
X110633621Y-105290813D01*
X110636667Y-105293716D01*
X110639572Y-105296730D01*
X110642331Y-105299850D01*
X110644936Y-105303068D01*
X110647382Y-105306377D01*
X110649663Y-105309771D01*
X110651773Y-105313243D01*
X110653704Y-105316786D01*
X110655452Y-105320394D01*
X110658991Y-105360523D01*
X110661008Y-105542733D01*
X110662861Y-106824992D01*
X110662464Y-107971255D01*
X110661422Y-108241339D01*
X110660647Y-108308636D01*
X110659686Y-108333822D01*
X110658500Y-108339039D01*
X110657062Y-108344102D01*
X110655376Y-108349009D01*
X110653446Y-108353754D01*
X110651276Y-108358334D01*
X110648871Y-108362744D01*
X110646234Y-108366981D01*
X110643370Y-108371040D01*
X110640282Y-108374917D01*
X110636976Y-108378608D01*
X110633454Y-108382109D01*
X110629722Y-108385416D01*
X110625783Y-108388524D01*
X110621641Y-108391430D01*
X110617301Y-108394129D01*
X110612766Y-108396617D01*
X110591600Y-108407200D01*
X109030558Y-108407200D01*
X107469163Y-108407200D01*
X107452583Y-108399086D01*
X107448718Y-108396996D01*
X107444819Y-108394583D01*
X107440915Y-108391883D01*
X107437039Y-108388927D01*
X107433220Y-108385751D01*
X107429490Y-108382386D01*
X107425880Y-108378868D01*
X107422420Y-108375230D01*
X107419143Y-108371504D01*
X107416079Y-108367725D01*
X107413258Y-108363927D01*
X107410712Y-108360143D01*
X107408473Y-108356406D01*
X107406570Y-108352750D01*
X107405035Y-108349209D01*
X107403899Y-108345817D01*
X107401856Y-108052658D01*
X107600397Y-108052658D01*
X107973636Y-108052658D01*
X108346522Y-108052658D01*
X108333822Y-108035725D01*
X108328477Y-108028438D01*
X108323292Y-108020738D01*
X108318271Y-108012634D01*
X108313416Y-108004135D01*
X108308730Y-107995249D01*
X108304217Y-107985986D01*
X108299880Y-107976353D01*
X108295722Y-107966360D01*
X108291745Y-107956016D01*
X108287954Y-107945329D01*
X108284350Y-107934309D01*
X108280938Y-107922963D01*
X108277720Y-107911301D01*
X108274700Y-107899332D01*
X108271880Y-107887064D01*
X108269263Y-107874506D01*
X108267484Y-107862806D01*
X108266077Y-107846923D01*
X108264148Y-107789310D01*
X108263013Y-107675076D01*
X108262208Y-107477631D01*
X108261938Y-107330792D01*
X108262164Y-107216002D01*
X108262853Y-107141626D01*
X108263361Y-107122209D01*
X108263653Y-107117401D01*
X108263972Y-107116033D01*
X108510431Y-107451701D01*
X108760330Y-107796895D01*
X108770965Y-107813815D01*
X108781315Y-107831252D01*
X108791193Y-107848829D01*
X108800414Y-107866171D01*
X108808792Y-107882901D01*
X108816141Y-107898643D01*
X108822274Y-107913021D01*
X108824826Y-107919581D01*
X108827005Y-107925658D01*
X108829084Y-107932279D01*
X108830957Y-107938788D01*
X108832621Y-107945198D01*
X108834077Y-107951521D01*
X108835324Y-107957770D01*
X108836363Y-107963957D01*
X108837191Y-107970094D01*
X108837809Y-107976194D01*
X108838216Y-107982269D01*
X108838412Y-107988331D01*
X108838396Y-107994394D01*
X108838167Y-108000469D01*
X108837726Y-108006569D01*
X108837071Y-108012706D01*
X108836202Y-108018893D01*
X108835119Y-108025142D01*
X108830533Y-108052658D01*
X109237991Y-108052658D01*
X109770333Y-108052658D01*
X110118524Y-108052658D01*
X110467069Y-108052658D01*
X110457544Y-108041017D01*
X110451247Y-108032945D01*
X110445319Y-108024732D01*
X110439755Y-108016366D01*
X110434553Y-108007839D01*
X110429708Y-107999140D01*
X110425217Y-107990260D01*
X110421077Y-107981189D01*
X110417283Y-107971916D01*
X110413833Y-107962433D01*
X110410722Y-107952729D01*
X110407946Y-107942795D01*
X110405504Y-107932620D01*
X110403389Y-107922195D01*
X110401600Y-107911511D01*
X110400133Y-107900556D01*
X110398983Y-107889322D01*
X110396425Y-107655916D01*
X110395455Y-107081461D01*
X110395455Y-106313464D01*
X110082894Y-106313464D01*
X109998091Y-106313516D01*
X109929276Y-106313679D01*
X109875037Y-106313966D01*
X109833965Y-106314390D01*
X109804651Y-106314963D01*
X109793962Y-106315309D01*
X109785684Y-106315696D01*
X109779641Y-106316128D01*
X109775656Y-106316604D01*
X109773552Y-106317127D01*
X109773152Y-106317406D01*
X109773155Y-106317697D01*
X109778711Y-106325502D01*
X109783077Y-106331439D01*
X109785483Y-106334612D01*
X109787972Y-106337805D01*
X109790850Y-106341759D01*
X109793782Y-106346053D01*
X109796746Y-106350647D01*
X109799724Y-106355499D01*
X109805633Y-106365822D01*
X109811343Y-106376699D01*
X109816690Y-106387808D01*
X109821508Y-106398825D01*
X109823666Y-106404199D01*
X109825631Y-106409429D01*
X109827380Y-106414475D01*
X109828894Y-106419297D01*
X109832896Y-106437030D01*
X109835971Y-106464657D01*
X109839742Y-106577121D01*
X109840999Y-106811757D01*
X109840536Y-107223631D01*
X109839654Y-107545419D01*
X109838507Y-107758530D01*
X109837793Y-107829395D01*
X109836964Y-107879169D01*
X109836002Y-107909876D01*
X109834891Y-107923542D01*
X109833315Y-107930858D01*
X109831492Y-107938132D01*
X109829414Y-107945382D01*
X109827075Y-107952624D01*
X109824467Y-107959874D01*
X109821583Y-107967148D01*
X109818417Y-107974464D01*
X109814959Y-107981838D01*
X109811204Y-107989287D01*
X109807144Y-107996826D01*
X109802772Y-108004472D01*
X109798081Y-108012243D01*
X109793063Y-108020155D01*
X109787711Y-108028223D01*
X109782018Y-108036465D01*
X109775977Y-108044897D01*
X109770333Y-108052658D01*
X109237991Y-108052658D01*
X109645802Y-108052306D01*
X109628163Y-108037842D01*
X109610499Y-108022222D01*
X109589705Y-108002051D01*
X109566455Y-107978069D01*
X109541424Y-107951014D01*
X109515285Y-107921628D01*
X109488711Y-107890651D01*
X109462378Y-107858821D01*
X109436958Y-107826880D01*
X109055252Y-107303358D01*
X108903222Y-107093615D01*
X108789390Y-106935367D01*
X108718355Y-106834996D01*
X108700323Y-106808510D01*
X108695929Y-106801540D01*
X108694713Y-106798886D01*
X109336769Y-105999492D01*
X109388490Y-105936520D01*
X109412109Y-105908357D01*
X109434362Y-105882276D01*
X109455343Y-105858177D01*
X109475148Y-105835960D01*
X109493874Y-105815527D01*
X109511614Y-105796777D01*
X109528467Y-105779610D01*
X109544525Y-105763926D01*
X109559887Y-105749627D01*
X109574646Y-105736612D01*
X109588899Y-105724781D01*
X109602741Y-105714034D01*
X109616267Y-105704273D01*
X109629575Y-105695397D01*
X109645450Y-105685519D01*
X109246458Y-105685519D01*
X108847466Y-105685519D01*
X108850994Y-105698572D01*
X108851826Y-105702323D01*
X108852473Y-105706766D01*
X108852942Y-105711809D01*
X108853237Y-105717358D01*
X108853365Y-105723320D01*
X108853332Y-105729603D01*
X108852802Y-105742758D01*
X108851693Y-105756078D01*
X108850936Y-105762567D01*
X108850051Y-105768819D01*
X108849045Y-105774740D01*
X108847922Y-105780237D01*
X108846688Y-105785218D01*
X108845349Y-105789589D01*
X108842025Y-105798450D01*
X108838151Y-105807812D01*
X108833749Y-105817637D01*
X108828841Y-105827887D01*
X108817587Y-105849517D01*
X108804560Y-105872403D01*
X108789928Y-105896249D01*
X108773862Y-105920756D01*
X108756531Y-105945627D01*
X108738105Y-105970564D01*
X108487633Y-106288417D01*
X108260797Y-106575578D01*
X108262208Y-106235500D01*
X108262695Y-106115456D01*
X108263261Y-106025112D01*
X108263649Y-105989424D01*
X108264149Y-105959176D01*
X108264790Y-105933707D01*
X108265603Y-105912355D01*
X108266619Y-105894460D01*
X108267868Y-105879360D01*
X108269381Y-105866392D01*
X108271187Y-105854897D01*
X108273318Y-105844211D01*
X108275804Y-105833675D01*
X108281963Y-105810403D01*
X108284046Y-105803311D01*
X108286437Y-105795968D01*
X108289106Y-105788437D01*
X108292023Y-105780780D01*
X108295157Y-105773062D01*
X108298477Y-105765345D01*
X108301953Y-105757692D01*
X108305555Y-105750166D01*
X108309252Y-105742830D01*
X108313014Y-105735747D01*
X108316810Y-105728981D01*
X108320609Y-105722594D01*
X108324382Y-105716649D01*
X108328097Y-105711210D01*
X108331724Y-105706339D01*
X108335233Y-105702100D01*
X108350050Y-105685519D01*
X107975399Y-105685519D01*
X107601102Y-105685519D01*
X107618741Y-105706686D01*
X107624741Y-105714105D01*
X107630440Y-105721555D01*
X107635845Y-105729051D01*
X107640961Y-105736606D01*
X107645793Y-105744236D01*
X107650348Y-105751955D01*
X107654632Y-105759777D01*
X107658649Y-105767717D01*
X107662406Y-105775789D01*
X107665908Y-105784008D01*
X107669161Y-105792388D01*
X107672170Y-105800944D01*
X107674942Y-105809690D01*
X107677482Y-105818641D01*
X107679796Y-105827810D01*
X107681888Y-105837214D01*
X107684870Y-105880589D01*
X107686695Y-106018057D01*
X107688591Y-106832047D01*
X107689002Y-107159929D01*
X107689104Y-107411727D01*
X107688783Y-107598140D01*
X107688430Y-107670170D01*
X107687930Y-107729867D01*
X107687268Y-107778566D01*
X107686431Y-107817606D01*
X107685405Y-107848325D01*
X107684176Y-107872058D01*
X107682730Y-107890145D01*
X107681053Y-107903921D01*
X107679130Y-107914725D01*
X107676949Y-107923894D01*
X107674768Y-107931681D01*
X107672328Y-107939426D01*
X107669635Y-107947117D01*
X107666697Y-107954746D01*
X107663519Y-107962302D01*
X107660107Y-107969777D01*
X107656468Y-107977159D01*
X107652608Y-107984440D01*
X107648533Y-107991609D01*
X107644249Y-107998656D01*
X107639762Y-108005573D01*
X107635079Y-108012348D01*
X107630206Y-108018972D01*
X107625149Y-108025436D01*
X107619914Y-108031729D01*
X107614508Y-108037842D01*
X107600397Y-108052658D01*
X107401856Y-108052658D01*
X107401210Y-107959834D01*
X107400372Y-106833811D01*
X107400372Y-105334506D01*
X107407780Y-105318631D01*
X107409608Y-105314752D01*
X107411526Y-105311049D01*
X107413540Y-105307515D01*
X107415657Y-105304145D01*
X107417883Y-105300931D01*
X107420226Y-105297869D01*
X107422691Y-105294951D01*
X107425287Y-105292172D01*
X107428018Y-105289525D01*
X107430893Y-105287005D01*
X107433918Y-105284604D01*
X107437099Y-105282316D01*
X107440444Y-105280137D01*
X107443958Y-105278058D01*
X107447650Y-105276075D01*
X107451524Y-105274180D01*
X107469163Y-105265714D01*
X108635447Y-105265714D01*
X109801730Y-105265714D01*
X109798555Y-105285822D01*
G37*
G36*
X111920220Y-105650904D02*
G01*
X111945880Y-105651443D01*
X111968978Y-105652396D01*
X111988247Y-105653769D01*
X112023335Y-105657742D01*
X112059602Y-105663261D01*
X112096736Y-105670252D01*
X112134429Y-105678640D01*
X112172370Y-105688351D01*
X112210249Y-105699311D01*
X112247755Y-105711444D01*
X112284580Y-105724678D01*
X112296470Y-105729411D01*
X112311369Y-105735752D01*
X112347816Y-105752150D01*
X112389157Y-105771658D01*
X112430630Y-105792058D01*
X112450590Y-105801993D01*
X112470185Y-105811538D01*
X112488921Y-105820472D01*
X112506301Y-105828571D01*
X112521829Y-105835611D01*
X112535008Y-105841370D01*
X112545343Y-105845624D01*
X112552338Y-105848150D01*
X112562492Y-105851281D01*
X112571653Y-105854147D01*
X112575552Y-105855398D01*
X112578830Y-105856484D01*
X112581364Y-105857372D01*
X112583030Y-105858028D01*
X112583501Y-105858853D01*
X112583142Y-105860747D01*
X112579624Y-105868209D01*
X112571856Y-105881350D01*
X112559218Y-105901111D01*
X112516851Y-105964241D01*
X112447564Y-106065108D01*
X112306452Y-106270425D01*
X112284227Y-106244672D01*
X112272184Y-106231557D01*
X112259618Y-106218946D01*
X112246552Y-106206853D01*
X112233008Y-106195294D01*
X112219010Y-106184286D01*
X112204579Y-106173842D01*
X112189740Y-106163980D01*
X112174513Y-106154714D01*
X112158923Y-106146060D01*
X112142992Y-106138033D01*
X112126743Y-106130649D01*
X112110198Y-106123923D01*
X112093380Y-106117871D01*
X112076312Y-106112509D01*
X112059016Y-106107851D01*
X112041516Y-106103914D01*
X112019969Y-106099874D01*
X111998352Y-106096744D01*
X111976715Y-106094517D01*
X111955102Y-106093187D01*
X111933562Y-106092746D01*
X111912141Y-106093186D01*
X111890887Y-106094500D01*
X111869846Y-106096682D01*
X111849065Y-106099723D01*
X111828592Y-106103618D01*
X111808473Y-106108357D01*
X111788756Y-106113935D01*
X111769488Y-106120344D01*
X111750715Y-106127576D01*
X111732485Y-106135625D01*
X111714844Y-106144483D01*
X111682216Y-106164266D01*
X111651297Y-106187570D01*
X111622127Y-106214304D01*
X111594745Y-106244375D01*
X111569190Y-106277691D01*
X111545502Y-106314160D01*
X111523720Y-106353690D01*
X111503883Y-106396190D01*
X111486030Y-106441568D01*
X111470201Y-106489730D01*
X111456434Y-106540586D01*
X111444770Y-106594043D01*
X111435248Y-106650010D01*
X111427906Y-106708394D01*
X111422784Y-106769104D01*
X111419922Y-106832047D01*
X111419284Y-106867257D01*
X111419353Y-106901956D01*
X111420122Y-106936114D01*
X111421586Y-106969702D01*
X111423741Y-107002688D01*
X111426582Y-107035043D01*
X111430102Y-107066734D01*
X111434297Y-107097733D01*
X111439162Y-107128008D01*
X111444692Y-107157530D01*
X111450881Y-107186266D01*
X111457724Y-107214188D01*
X111465216Y-107241265D01*
X111473353Y-107267465D01*
X111482127Y-107292759D01*
X111491536Y-107317117D01*
X111504816Y-107347786D01*
X111519249Y-107377078D01*
X111534819Y-107404981D01*
X111551513Y-107431483D01*
X111569318Y-107456571D01*
X111588218Y-107480232D01*
X111608201Y-107502455D01*
X111629251Y-107523227D01*
X111651356Y-107542536D01*
X111674501Y-107560368D01*
X111698673Y-107576712D01*
X111723856Y-107591556D01*
X111750039Y-107604886D01*
X111777205Y-107616691D01*
X111805342Y-107626958D01*
X111834436Y-107635675D01*
X111844986Y-107638384D01*
X111854412Y-107640476D01*
X111863507Y-107642031D01*
X111873065Y-107643127D01*
X111883880Y-107643843D01*
X111896745Y-107644257D01*
X111912455Y-107644448D01*
X111931802Y-107644494D01*
X111949663Y-107644422D01*
X111964952Y-107644180D01*
X111978175Y-107643732D01*
X111989834Y-107643039D01*
X112000435Y-107642066D01*
X112010483Y-107640774D01*
X112020480Y-107639126D01*
X112030933Y-107637086D01*
X112044771Y-107634000D01*
X112058260Y-107630686D01*
X112071432Y-107627133D01*
X112084318Y-107623328D01*
X112096950Y-107619258D01*
X112109359Y-107614911D01*
X112121577Y-107610274D01*
X112133635Y-107605336D01*
X112145565Y-107600084D01*
X112157399Y-107594505D01*
X112169167Y-107588587D01*
X112180902Y-107582317D01*
X112192635Y-107575684D01*
X112204397Y-107568675D01*
X112216220Y-107561277D01*
X112228136Y-107553478D01*
X112235540Y-107548415D01*
X112243402Y-107542806D01*
X112260112Y-107530277D01*
X112277491Y-107516550D01*
X112294767Y-107502281D01*
X112311166Y-107488128D01*
X112325916Y-107474748D01*
X112332431Y-107468553D01*
X112338243Y-107462798D01*
X112343256Y-107457565D01*
X112347374Y-107452936D01*
X112348432Y-107451717D01*
X112349484Y-107450575D01*
X112350524Y-107449515D01*
X112351547Y-107448537D01*
X112352548Y-107447647D01*
X112353520Y-107446846D01*
X112354458Y-107446139D01*
X112355356Y-107445528D01*
X112355789Y-107445259D01*
X112356209Y-107445016D01*
X112356616Y-107444798D01*
X112357011Y-107444606D01*
X112357390Y-107444440D01*
X112357755Y-107444301D01*
X112358105Y-107444190D01*
X112358437Y-107444105D01*
X112358753Y-107444049D01*
X112359052Y-107444021D01*
X112359331Y-107444022D01*
X112359592Y-107444052D01*
X112359832Y-107444111D01*
X112360052Y-107444200D01*
X112360251Y-107444319D01*
X112360427Y-107444469D01*
X112400291Y-107508851D01*
X112492014Y-107658958D01*
X112621130Y-107870272D01*
X112599258Y-107878033D01*
X112590108Y-107881335D01*
X112581487Y-107884736D01*
X112572271Y-107888799D01*
X112561334Y-107894085D01*
X112547554Y-107901157D01*
X112529805Y-107910577D01*
X112477902Y-107938711D01*
X112448379Y-107954494D01*
X112419651Y-107969195D01*
X112391584Y-107982856D01*
X112364049Y-107995519D01*
X112336912Y-108007228D01*
X112310043Y-108018024D01*
X112283309Y-108027950D01*
X112256578Y-108037048D01*
X112229720Y-108045360D01*
X112202601Y-108052930D01*
X112175091Y-108059798D01*
X112147057Y-108066009D01*
X112118368Y-108071603D01*
X112088892Y-108076624D01*
X112058498Y-108081113D01*
X112027052Y-108085114D01*
X112000723Y-108087266D01*
X111967036Y-108088708D01*
X111928454Y-108089455D01*
X111887440Y-108089524D01*
X111846460Y-108088931D01*
X111807977Y-108087694D01*
X111774455Y-108085828D01*
X111748358Y-108083350D01*
X111693890Y-108074868D01*
X111641060Y-108064093D01*
X111589836Y-108051006D01*
X111540186Y-108035587D01*
X111492078Y-108017819D01*
X111445480Y-107997681D01*
X111400360Y-107975154D01*
X111356686Y-107950220D01*
X111314426Y-107922860D01*
X111273548Y-107893053D01*
X111234019Y-107860782D01*
X111195808Y-107826026D01*
X111158883Y-107788767D01*
X111123212Y-107748986D01*
X111088762Y-107706664D01*
X111055502Y-107661781D01*
X111024941Y-107616204D01*
X110996503Y-107568944D01*
X110970202Y-107520063D01*
X110946053Y-107469621D01*
X110924070Y-107417681D01*
X110904268Y-107364304D01*
X110886661Y-107309551D01*
X110871264Y-107253484D01*
X110858091Y-107196165D01*
X110847157Y-107137654D01*
X110838475Y-107078014D01*
X110832062Y-107017305D01*
X110827930Y-106955590D01*
X110826095Y-106892930D01*
X110826571Y-106829386D01*
X110829372Y-106765020D01*
X110834372Y-106702427D01*
X110841446Y-106641627D01*
X110850608Y-106582584D01*
X110861871Y-106525263D01*
X110875252Y-106469628D01*
X110890763Y-106415645D01*
X110908421Y-106363279D01*
X110928238Y-106312494D01*
X110950229Y-106263255D01*
X110974410Y-106215527D01*
X111000795Y-106169275D01*
X111029397Y-106124463D01*
X111060231Y-106081057D01*
X111093313Y-106039022D01*
X111128656Y-105998322D01*
X111166275Y-105958922D01*
X111200171Y-105926330D01*
X111234906Y-105895501D01*
X111270460Y-105866443D01*
X111306812Y-105839165D01*
X111343941Y-105813678D01*
X111381827Y-105789990D01*
X111420449Y-105768111D01*
X111459785Y-105748049D01*
X111499817Y-105729815D01*
X111540522Y-105713418D01*
X111581880Y-105698866D01*
X111623871Y-105686170D01*
X111666474Y-105675338D01*
X111709668Y-105666380D01*
X111753432Y-105659305D01*
X111797747Y-105654122D01*
X111817247Y-105652718D01*
X111840510Y-105651686D01*
X111866270Y-105651034D01*
X111893261Y-105650771D01*
X111920220Y-105650904D01*
G37*
G36*
X116011677Y-106684586D02*
G01*
X116012648Y-107543291D01*
X116013761Y-107772470D01*
X116015205Y-107860395D01*
X116016888Y-107874009D01*
X116018763Y-107887204D01*
X116020831Y-107899982D01*
X116023093Y-107912347D01*
X116025552Y-107924300D01*
X116028209Y-107935844D01*
X116031066Y-107946982D01*
X116034123Y-107957717D01*
X116037383Y-107968051D01*
X116040847Y-107977986D01*
X116044517Y-107987525D01*
X116048394Y-107996671D01*
X116052480Y-108005427D01*
X116056776Y-108013794D01*
X116061284Y-108021776D01*
X116066005Y-108029375D01*
X116081527Y-108052658D01*
X115785547Y-108052658D01*
X115489566Y-108052658D01*
X115489566Y-107985278D01*
X115489566Y-107917897D01*
X115465930Y-107939770D01*
X115456111Y-107948467D01*
X115445734Y-107957081D01*
X115434844Y-107965584D01*
X115423487Y-107973950D01*
X115411708Y-107982153D01*
X115399553Y-107990166D01*
X115387067Y-107997964D01*
X115374296Y-108005518D01*
X115361285Y-108012805D01*
X115348080Y-108019796D01*
X115334726Y-108026465D01*
X115321269Y-108032787D01*
X115307754Y-108038735D01*
X115294226Y-108044282D01*
X115280732Y-108049402D01*
X115267316Y-108054070D01*
X115245824Y-108060721D01*
X115223737Y-108066649D01*
X115201137Y-108071851D01*
X115178107Y-108076322D01*
X115154730Y-108080060D01*
X115131089Y-108083060D01*
X115107265Y-108085319D01*
X115083343Y-108086834D01*
X115059403Y-108087600D01*
X115035530Y-108087614D01*
X115011806Y-108086873D01*
X114988313Y-108085373D01*
X114965135Y-108083110D01*
X114942353Y-108080081D01*
X114920051Y-108076281D01*
X114898311Y-108071708D01*
X114862764Y-108062275D01*
X114828000Y-108050680D01*
X114794083Y-108036978D01*
X114761075Y-108021223D01*
X114729041Y-108003468D01*
X114698044Y-107983769D01*
X114668148Y-107962180D01*
X114639416Y-107938755D01*
X114611912Y-107913548D01*
X114585700Y-107886614D01*
X114560842Y-107858006D01*
X114537403Y-107827779D01*
X114515446Y-107795987D01*
X114495034Y-107762685D01*
X114476232Y-107727927D01*
X114459103Y-107691767D01*
X114446943Y-107663090D01*
X114435729Y-107634050D01*
X114425452Y-107604608D01*
X114416108Y-107574722D01*
X114407690Y-107544352D01*
X114400192Y-107513458D01*
X114393607Y-107482000D01*
X114387930Y-107449937D01*
X114383154Y-107417230D01*
X114379273Y-107383837D01*
X114376281Y-107349719D01*
X114374171Y-107314835D01*
X114372938Y-107279144D01*
X114372575Y-107242608D01*
X114372659Y-107236358D01*
X114944748Y-107236358D01*
X114946509Y-107295289D01*
X114948280Y-107323454D01*
X114950652Y-107350449D01*
X114953631Y-107376046D01*
X114957225Y-107400020D01*
X114961667Y-107423656D01*
X114966787Y-107446267D01*
X114972574Y-107467838D01*
X114979020Y-107488352D01*
X114986114Y-107507793D01*
X114989902Y-107517106D01*
X114993849Y-107526145D01*
X114997953Y-107534908D01*
X115002214Y-107543392D01*
X115006630Y-107551597D01*
X115011200Y-107559519D01*
X115015923Y-107567157D01*
X115020798Y-107574509D01*
X115025823Y-107581572D01*
X115030998Y-107588346D01*
X115036321Y-107594827D01*
X115041792Y-107601013D01*
X115047408Y-107606904D01*
X115053169Y-107612496D01*
X115059074Y-107617788D01*
X115065122Y-107622778D01*
X115071310Y-107627464D01*
X115077639Y-107631843D01*
X115084107Y-107635914D01*
X115090713Y-107639675D01*
X115097455Y-107643124D01*
X115104333Y-107646258D01*
X115122468Y-107653079D01*
X115141477Y-107658342D01*
X115161253Y-107662070D01*
X115181685Y-107664283D01*
X115202665Y-107665004D01*
X115224084Y-107664254D01*
X115245832Y-107662055D01*
X115267801Y-107658429D01*
X115289882Y-107653397D01*
X115311965Y-107646982D01*
X115333942Y-107639204D01*
X115355704Y-107630086D01*
X115377140Y-107619649D01*
X115398144Y-107607914D01*
X115418604Y-107594905D01*
X115438413Y-107580641D01*
X115456052Y-107567236D01*
X115457111Y-107169303D01*
X115457317Y-107044194D01*
X115457375Y-106948293D01*
X115457333Y-106910067D01*
X115457235Y-106877668D01*
X115457075Y-106850605D01*
X115456846Y-106828387D01*
X115456544Y-106810522D01*
X115456160Y-106796519D01*
X115455936Y-106790812D01*
X115455690Y-106785887D01*
X115455420Y-106781681D01*
X115455127Y-106778133D01*
X115454808Y-106775182D01*
X115454464Y-106772766D01*
X115454094Y-106770825D01*
X115453696Y-106769296D01*
X115453271Y-106768118D01*
X115452816Y-106767230D01*
X115452333Y-106766571D01*
X115451819Y-106766078D01*
X115444222Y-106760161D01*
X115436273Y-106754329D01*
X115428006Y-106748602D01*
X115419457Y-106742998D01*
X115410663Y-106737537D01*
X115401658Y-106732238D01*
X115392478Y-106727119D01*
X115383159Y-106722201D01*
X115373738Y-106717502D01*
X115364248Y-106713040D01*
X115354726Y-106708837D01*
X115345208Y-106704909D01*
X115335729Y-106701278D01*
X115326326Y-106697961D01*
X115317032Y-106694977D01*
X115307885Y-106692347D01*
X115301564Y-106690897D01*
X115294092Y-106689592D01*
X115285641Y-106688437D01*
X115276384Y-106687436D01*
X115256137Y-106685917D01*
X115234729Y-106685071D01*
X115213535Y-106684937D01*
X115193933Y-106685551D01*
X115185159Y-106686150D01*
X115177299Y-106686950D01*
X115170526Y-106687956D01*
X115165011Y-106689172D01*
X115146956Y-106694890D01*
X115129700Y-106701993D01*
X115113239Y-106710483D01*
X115097570Y-106720365D01*
X115082687Y-106731643D01*
X115068589Y-106744319D01*
X115055271Y-106758398D01*
X115042729Y-106773883D01*
X115030961Y-106790778D01*
X115019962Y-106809086D01*
X115009729Y-106828811D01*
X115000258Y-106849956D01*
X114991546Y-106872526D01*
X114983589Y-106896523D01*
X114976383Y-106921952D01*
X114969924Y-106948817D01*
X114964960Y-106973286D01*
X114960524Y-106999313D01*
X114956620Y-107026672D01*
X114953256Y-107055135D01*
X114948171Y-107114462D01*
X114945318Y-107175476D01*
X114944748Y-107236358D01*
X114372659Y-107236358D01*
X114373077Y-107205184D01*
X114374436Y-107166833D01*
X114376716Y-107124555D01*
X114379598Y-107083794D01*
X114383098Y-107044483D01*
X114387229Y-107006551D01*
X114392008Y-106969930D01*
X114397448Y-106934550D01*
X114403566Y-106900342D01*
X114410375Y-106867237D01*
X114417891Y-106835165D01*
X114426129Y-106804058D01*
X114435105Y-106773846D01*
X114444832Y-106744459D01*
X114455326Y-106715829D01*
X114466601Y-106687886D01*
X114478674Y-106660562D01*
X114491558Y-106633786D01*
X114510232Y-106598785D01*
X114530256Y-106565495D01*
X114551605Y-106533932D01*
X114574257Y-106504113D01*
X114598189Y-106476052D01*
X114623376Y-106449766D01*
X114649797Y-106425272D01*
X114677428Y-106402584D01*
X114706245Y-106381720D01*
X114736225Y-106362695D01*
X114767346Y-106345525D01*
X114799583Y-106330226D01*
X114832913Y-106316815D01*
X114867314Y-106305306D01*
X114902762Y-106295717D01*
X114939233Y-106288064D01*
X114948822Y-106286555D01*
X114959618Y-106285207D01*
X114984179Y-106283004D01*
X115011601Y-106281478D01*
X115040568Y-106280655D01*
X115069768Y-106280560D01*
X115097884Y-106281218D01*
X115123602Y-106282652D01*
X115145608Y-106284889D01*
X115168136Y-106288201D01*
X115190082Y-106292053D01*
X115211453Y-106296447D01*
X115232253Y-106301387D01*
X115252490Y-106306874D01*
X115272168Y-106312912D01*
X115291292Y-106319503D01*
X115309870Y-106326649D01*
X115327906Y-106334353D01*
X115345406Y-106342618D01*
X115362376Y-106351447D01*
X115378822Y-106360841D01*
X115394748Y-106370803D01*
X115410162Y-106381337D01*
X115425068Y-106392444D01*
X115439472Y-106404128D01*
X115458169Y-106420003D01*
X115457111Y-106050292D01*
X115456630Y-105928087D01*
X115456174Y-105835913D01*
X115455922Y-105799630D01*
X115455635Y-105769106D01*
X115455301Y-105743757D01*
X115454906Y-105723002D01*
X115454437Y-105706257D01*
X115454170Y-105699206D01*
X115453880Y-105692939D01*
X115453564Y-105687383D01*
X115453221Y-105682465D01*
X115452850Y-105678113D01*
X115452448Y-105674253D01*
X115452014Y-105670812D01*
X115451546Y-105667719D01*
X115451043Y-105664899D01*
X115450503Y-105662280D01*
X115449305Y-105657354D01*
X115447938Y-105652358D01*
X115446140Y-105646409D01*
X115444066Y-105640232D01*
X115441740Y-105633875D01*
X115439185Y-105627383D01*
X115436423Y-105620802D01*
X115433477Y-105614178D01*
X115430370Y-105607557D01*
X115427124Y-105600985D01*
X115423763Y-105594508D01*
X115420309Y-105588173D01*
X115416784Y-105582024D01*
X115413212Y-105576109D01*
X115409615Y-105570472D01*
X115406016Y-105565161D01*
X115402437Y-105560221D01*
X115398902Y-105555697D01*
X115386908Y-105540881D01*
X115699116Y-105540881D01*
X116011677Y-105540881D01*
X116011677Y-106684586D01*
G37*
G36*
X113487821Y-106279333D02*
G01*
X113503350Y-106279862D01*
X113540469Y-106281714D01*
X113565398Y-106283286D01*
X113587306Y-106284900D01*
X113607039Y-106286662D01*
X113625445Y-106288681D01*
X113643371Y-106291064D01*
X113661665Y-106293918D01*
X113681174Y-106297350D01*
X113702747Y-106301469D01*
X113736703Y-106308910D01*
X113769377Y-106317600D01*
X113800760Y-106327534D01*
X113830844Y-106338704D01*
X113859619Y-106351104D01*
X113887077Y-106364728D01*
X113913209Y-106379567D01*
X113938006Y-106395617D01*
X113961459Y-106412870D01*
X113983560Y-106431318D01*
X114004300Y-106450957D01*
X114023670Y-106471778D01*
X114041661Y-106493776D01*
X114058265Y-106516943D01*
X114073472Y-106541273D01*
X114087274Y-106566758D01*
X114093024Y-106578781D01*
X114098627Y-106591420D01*
X114109373Y-106618462D01*
X114119465Y-106647721D01*
X114128858Y-106679030D01*
X114137508Y-106712224D01*
X114145367Y-106747138D01*
X114152392Y-106783606D01*
X114158536Y-106821464D01*
X114161589Y-106859591D01*
X114163651Y-106942864D01*
X114166649Y-107378853D01*
X114167994Y-107619150D01*
X114169472Y-107783048D01*
X114170301Y-107839180D01*
X114171213Y-107879610D01*
X114172225Y-107905472D01*
X114173352Y-107917897D01*
X114174977Y-107925975D01*
X114176806Y-107933933D01*
X114178837Y-107941768D01*
X114181069Y-107949476D01*
X114183500Y-107957055D01*
X114186127Y-107964499D01*
X114188948Y-107971806D01*
X114191961Y-107978972D01*
X114195165Y-107985993D01*
X114198557Y-107992866D01*
X114202134Y-107999587D01*
X114205896Y-108006152D01*
X114209840Y-108012559D01*
X114213963Y-108018802D01*
X114218264Y-108024879D01*
X114222741Y-108030786D01*
X114225692Y-108034443D01*
X114228424Y-108037946D01*
X114230883Y-108041210D01*
X114233016Y-108044148D01*
X114234768Y-108046671D01*
X114235484Y-108047751D01*
X114236086Y-108048695D01*
X114236565Y-108049492D01*
X114236916Y-108050132D01*
X114237131Y-108050603D01*
X114237186Y-108050772D01*
X114237205Y-108050894D01*
X114213949Y-108051617D01*
X114150642Y-108052173D01*
X113942636Y-108052658D01*
X113648066Y-108052658D01*
X113648066Y-107985278D01*
X113648066Y-107917897D01*
X113620902Y-107942945D01*
X113598593Y-107962540D01*
X113574856Y-107980826D01*
X113549782Y-107997776D01*
X113523464Y-108013362D01*
X113495995Y-108027557D01*
X113467467Y-108040334D01*
X113437972Y-108051665D01*
X113407604Y-108061522D01*
X113376455Y-108069879D01*
X113344616Y-108076707D01*
X113312181Y-108081980D01*
X113279243Y-108085671D01*
X113245893Y-108087751D01*
X113212224Y-108088193D01*
X113178329Y-108086971D01*
X113144299Y-108084056D01*
X113119057Y-108080900D01*
X113094270Y-108076932D01*
X113069952Y-108072162D01*
X113046116Y-108066602D01*
X113022775Y-108060265D01*
X112999944Y-108053161D01*
X112977635Y-108045302D01*
X112955861Y-108036701D01*
X112934636Y-108027368D01*
X112913973Y-108017316D01*
X112893886Y-108006556D01*
X112874387Y-107995100D01*
X112855491Y-107982959D01*
X112837209Y-107970146D01*
X112819557Y-107956672D01*
X112802546Y-107942548D01*
X112786191Y-107927786D01*
X112770504Y-107912399D01*
X112755499Y-107896397D01*
X112741189Y-107879793D01*
X112727588Y-107862597D01*
X112714708Y-107844823D01*
X112702564Y-107826481D01*
X112691168Y-107807583D01*
X112680533Y-107788141D01*
X112670674Y-107768166D01*
X112661603Y-107747671D01*
X112653333Y-107726666D01*
X112645879Y-107705164D01*
X112639253Y-107683177D01*
X112633468Y-107660716D01*
X112628538Y-107637792D01*
X112624879Y-107617162D01*
X112621838Y-107596444D01*
X112619411Y-107575685D01*
X112617597Y-107554927D01*
X112616392Y-107534218D01*
X112615795Y-107513601D01*
X112615800Y-107498634D01*
X113140447Y-107498634D01*
X113140463Y-107506004D01*
X113140661Y-107513508D01*
X113141036Y-107521066D01*
X113141585Y-107528595D01*
X113142304Y-107536013D01*
X113143188Y-107543238D01*
X113144233Y-107550187D01*
X113145436Y-107556778D01*
X113146791Y-107562930D01*
X113148295Y-107568560D01*
X113149944Y-107573586D01*
X113154094Y-107584033D01*
X113158988Y-107594193D01*
X113164599Y-107604043D01*
X113170901Y-107613560D01*
X113177869Y-107622722D01*
X113185477Y-107631505D01*
X113193698Y-107639887D01*
X113202508Y-107647846D01*
X113211880Y-107655358D01*
X113221788Y-107662401D01*
X113232207Y-107668952D01*
X113243110Y-107674988D01*
X113254473Y-107680486D01*
X113266269Y-107685425D01*
X113278471Y-107689781D01*
X113291055Y-107693531D01*
X113298111Y-107695213D01*
X113305974Y-107696688D01*
X113314536Y-107697954D01*
X113323687Y-107699010D01*
X113333318Y-107699855D01*
X113343319Y-107700488D01*
X113363992Y-107701115D01*
X113384831Y-107700882D01*
X113395038Y-107700441D01*
X113404958Y-107699781D01*
X113414482Y-107698903D01*
X113423499Y-107697804D01*
X113431899Y-107696484D01*
X113439575Y-107694942D01*
X113452202Y-107691885D01*
X113464429Y-107688400D01*
X113476267Y-107684479D01*
X113487729Y-107680114D01*
X113498827Y-107675299D01*
X113509573Y-107670025D01*
X113519981Y-107664287D01*
X113530062Y-107658077D01*
X113539829Y-107651386D01*
X113549294Y-107644209D01*
X113558470Y-107636538D01*
X113567368Y-107628366D01*
X113576002Y-107619685D01*
X113584384Y-107610489D01*
X113592526Y-107600769D01*
X113600441Y-107590519D01*
X113616316Y-107568647D01*
X113616316Y-107430005D01*
X113616290Y-107386959D01*
X113616246Y-107369221D01*
X113616173Y-107353789D01*
X113616062Y-107340501D01*
X113615907Y-107329193D01*
X113615700Y-107319703D01*
X113615575Y-107315590D01*
X113615434Y-107311869D01*
X113615277Y-107308522D01*
X113615102Y-107305527D01*
X113614909Y-107302865D01*
X113614697Y-107300515D01*
X113614465Y-107298456D01*
X113614211Y-107296669D01*
X113613936Y-107295133D01*
X113613637Y-107293828D01*
X113613315Y-107292733D01*
X113612969Y-107291828D01*
X113612786Y-107291440D01*
X113612596Y-107291092D01*
X113612400Y-107290782D01*
X113612197Y-107290506D01*
X113611988Y-107290263D01*
X113611771Y-107290049D01*
X113611548Y-107289862D01*
X113611317Y-107289700D01*
X113610833Y-107289440D01*
X113610319Y-107289247D01*
X113608425Y-107288788D01*
X113605485Y-107288216D01*
X113597046Y-107286822D01*
X113586159Y-107285229D01*
X113573983Y-107283603D01*
X113556054Y-107282030D01*
X113534141Y-107281006D01*
X113509615Y-107280521D01*
X113483848Y-107280560D01*
X113458214Y-107281112D01*
X113434085Y-107282164D01*
X113412832Y-107283704D01*
X113395830Y-107285719D01*
X113380569Y-107288325D01*
X113365504Y-107291370D01*
X113350674Y-107294837D01*
X113336117Y-107298712D01*
X113321872Y-107302976D01*
X113307978Y-107307616D01*
X113294474Y-107312614D01*
X113281398Y-107317954D01*
X113268789Y-107323622D01*
X113256686Y-107329600D01*
X113245128Y-107335872D01*
X113234153Y-107342423D01*
X113223801Y-107349236D01*
X113214109Y-107356296D01*
X113205117Y-107363587D01*
X113196864Y-107371092D01*
X113191866Y-107376138D01*
X113187064Y-107381349D01*
X113182463Y-107386716D01*
X113178067Y-107392231D01*
X113173882Y-107397884D01*
X113169913Y-107403666D01*
X113166165Y-107409570D01*
X113162644Y-107415586D01*
X113159354Y-107421705D01*
X113156301Y-107427919D01*
X113153489Y-107434218D01*
X113150925Y-107440594D01*
X113148613Y-107447039D01*
X113146558Y-107453543D01*
X113144766Y-107460098D01*
X113143241Y-107466695D01*
X113142285Y-107472154D01*
X113141532Y-107478160D01*
X113140978Y-107484631D01*
X113140617Y-107491483D01*
X113140447Y-107498634D01*
X112615800Y-107498634D01*
X112615802Y-107493121D01*
X112616412Y-107472824D01*
X112617620Y-107452754D01*
X112619426Y-107432957D01*
X112621826Y-107413476D01*
X112624818Y-107394358D01*
X112628398Y-107375648D01*
X112632566Y-107357389D01*
X112637317Y-107339628D01*
X112642650Y-107322408D01*
X112645248Y-107314954D01*
X112648253Y-107307062D01*
X112651626Y-107298804D01*
X112655327Y-107290256D01*
X112663560Y-107272582D01*
X112672635Y-107254631D01*
X112682240Y-107236994D01*
X112692060Y-107220263D01*
X112696953Y-107212421D01*
X112701781Y-107205028D01*
X112706506Y-107198156D01*
X112711088Y-107191881D01*
X112720262Y-107180073D01*
X112730036Y-107168345D01*
X112740384Y-107156718D01*
X112751278Y-107145215D01*
X112762690Y-107133856D01*
X112774595Y-107122663D01*
X112786963Y-107111659D01*
X112799768Y-107100864D01*
X112812982Y-107090301D01*
X112826578Y-107079991D01*
X112840529Y-107069956D01*
X112854807Y-107060217D01*
X112869384Y-107050797D01*
X112884234Y-107041717D01*
X112899329Y-107032999D01*
X112914641Y-107024664D01*
X112934108Y-107014819D01*
X112954037Y-107005519D01*
X112974473Y-106996754D01*
X112995455Y-106988515D01*
X113017027Y-106980793D01*
X113039229Y-106973579D01*
X113062104Y-106966862D01*
X113085694Y-106960635D01*
X113110041Y-106954887D01*
X113135186Y-106949609D01*
X113161171Y-106944792D01*
X113188038Y-106940427D01*
X113244587Y-106933015D01*
X113305166Y-106927297D01*
X113329959Y-106925760D01*
X113361230Y-106924591D01*
X113435385Y-106923373D01*
X113511988Y-106923676D01*
X113546318Y-106924408D01*
X113575394Y-106925533D01*
X113624430Y-106928356D01*
X113622313Y-106888139D01*
X113620573Y-106865981D01*
X113619292Y-106855300D01*
X113617737Y-106844886D01*
X113615908Y-106834738D01*
X113613807Y-106824858D01*
X113611433Y-106815246D01*
X113608787Y-106805903D01*
X113605868Y-106796829D01*
X113602679Y-106788025D01*
X113599218Y-106779491D01*
X113595487Y-106771228D01*
X113591486Y-106763237D01*
X113587214Y-106755518D01*
X113582673Y-106748071D01*
X113577863Y-106740898D01*
X113572785Y-106733999D01*
X113567438Y-106727374D01*
X113561823Y-106721024D01*
X113555940Y-106714950D01*
X113549791Y-106709153D01*
X113543374Y-106703631D01*
X113536691Y-106698388D01*
X113529742Y-106693422D01*
X113522528Y-106688735D01*
X113515048Y-106684327D01*
X113507304Y-106680198D01*
X113499295Y-106676350D01*
X113491022Y-106672783D01*
X113482485Y-106669497D01*
X113473685Y-106666493D01*
X113464622Y-106663772D01*
X113457952Y-106662284D01*
X113449711Y-106660995D01*
X113429278Y-106659015D01*
X113404842Y-106657838D01*
X113377927Y-106657466D01*
X113350052Y-106657905D01*
X113322739Y-106659158D01*
X113297510Y-106661230D01*
X113286152Y-106662575D01*
X113275886Y-106664125D01*
X113258340Y-106667268D01*
X113240524Y-106670867D01*
X113204261Y-106679366D01*
X113167452Y-106689494D01*
X113130453Y-106701122D01*
X113093619Y-106714124D01*
X113057307Y-106728369D01*
X113021871Y-106743731D01*
X112987666Y-106760080D01*
X112983792Y-106762008D01*
X112980350Y-106763694D01*
X112977312Y-106765146D01*
X112975934Y-106765786D01*
X112974646Y-106766370D01*
X112973444Y-106766898D01*
X112972324Y-106767372D01*
X112971282Y-106767793D01*
X112970315Y-106768161D01*
X112969419Y-106768476D01*
X112968589Y-106768741D01*
X112967823Y-106768955D01*
X112967117Y-106769120D01*
X112966466Y-106769237D01*
X112965868Y-106769305D01*
X112965317Y-106769327D01*
X112965059Y-106769321D01*
X112964811Y-106769303D01*
X112964574Y-106769274D01*
X112964347Y-106769233D01*
X112964128Y-106769182D01*
X112963919Y-106769120D01*
X112963718Y-106769046D01*
X112963524Y-106768962D01*
X112963338Y-106768867D01*
X112963159Y-106768762D01*
X112962987Y-106768646D01*
X112962820Y-106768520D01*
X112962503Y-106768237D01*
X112962205Y-106767914D01*
X112961920Y-106767551D01*
X112961647Y-106767150D01*
X112961381Y-106766712D01*
X112961118Y-106766236D01*
X112960855Y-106765725D01*
X112882803Y-106579061D01*
X112808455Y-106397425D01*
X112808481Y-106397291D01*
X112808561Y-106397152D01*
X112808871Y-106396866D01*
X112809376Y-106396568D01*
X112810064Y-106396262D01*
X112810927Y-106395949D01*
X112811952Y-106395633D01*
X112814452Y-106395000D01*
X112817481Y-106394383D01*
X112820957Y-106393804D01*
X112824796Y-106393282D01*
X112828916Y-106392839D01*
X112846203Y-106390440D01*
X112867926Y-106386676D01*
X112924828Y-106375024D01*
X112999920Y-106357815D01*
X113093500Y-106334983D01*
X113151062Y-106320856D01*
X113199592Y-106309479D01*
X113240970Y-106300523D01*
X113277076Y-106293664D01*
X113293741Y-106290919D01*
X113309793Y-106288574D01*
X113325468Y-106286591D01*
X113341001Y-106284928D01*
X113372580Y-106282397D01*
X113406413Y-106280656D01*
X113426035Y-106279862D01*
X113443135Y-106279333D01*
X113458565Y-106279068D01*
X113473177Y-106279068D01*
X113487821Y-106279333D01*
G37*
D11*
X102402053Y-66764771D02*
X102330625Y-66836200D01*
X102330625Y-66836200D02*
X102116339Y-66907628D01*
X102116339Y-66907628D02*
X101973482Y-66907628D01*
X101973482Y-66907628D02*
X101759196Y-66836200D01*
X101759196Y-66836200D02*
X101616339Y-66693342D01*
X101616339Y-66693342D02*
X101544910Y-66550485D01*
X101544910Y-66550485D02*
X101473482Y-66264771D01*
X101473482Y-66264771D02*
X101473482Y-66050485D01*
X101473482Y-66050485D02*
X101544910Y-65764771D01*
X101544910Y-65764771D02*
X101616339Y-65621914D01*
X101616339Y-65621914D02*
X101759196Y-65479057D01*
X101759196Y-65479057D02*
X101973482Y-65407628D01*
X101973482Y-65407628D02*
X102116339Y-65407628D01*
X102116339Y-65407628D02*
X102330625Y-65479057D01*
X102330625Y-65479057D02*
X102402053Y-65550485D01*
X103259196Y-66907628D02*
X103116339Y-66836200D01*
X103116339Y-66836200D02*
X103044910Y-66693342D01*
X103044910Y-66693342D02*
X103044910Y-65407628D01*
X104044910Y-66907628D02*
X103902053Y-66836200D01*
X103902053Y-66836200D02*
X103830624Y-66764771D01*
X103830624Y-66764771D02*
X103759196Y-66621914D01*
X103759196Y-66621914D02*
X103759196Y-66193342D01*
X103759196Y-66193342D02*
X103830624Y-66050485D01*
X103830624Y-66050485D02*
X103902053Y-65979057D01*
X103902053Y-65979057D02*
X104044910Y-65907628D01*
X104044910Y-65907628D02*
X104259196Y-65907628D01*
X104259196Y-65907628D02*
X104402053Y-65979057D01*
X104402053Y-65979057D02*
X104473482Y-66050485D01*
X104473482Y-66050485D02*
X104544910Y-66193342D01*
X104544910Y-66193342D02*
X104544910Y-66621914D01*
X104544910Y-66621914D02*
X104473482Y-66764771D01*
X104473482Y-66764771D02*
X104402053Y-66836200D01*
X104402053Y-66836200D02*
X104259196Y-66907628D01*
X104259196Y-66907628D02*
X104044910Y-66907628D01*
X105830625Y-66836200D02*
X105687767Y-66907628D01*
X105687767Y-66907628D02*
X105402053Y-66907628D01*
X105402053Y-66907628D02*
X105259196Y-66836200D01*
X105259196Y-66836200D02*
X105187767Y-66764771D01*
X105187767Y-66764771D02*
X105116339Y-66621914D01*
X105116339Y-66621914D02*
X105116339Y-66193342D01*
X105116339Y-66193342D02*
X105187767Y-66050485D01*
X105187767Y-66050485D02*
X105259196Y-65979057D01*
X105259196Y-65979057D02*
X105402053Y-65907628D01*
X105402053Y-65907628D02*
X105687767Y-65907628D01*
X105687767Y-65907628D02*
X105830625Y-65979057D01*
X106473481Y-66907628D02*
X106473481Y-65407628D01*
X106616339Y-66336200D02*
X107044910Y-66907628D01*
X107044910Y-65907628D02*
X106473481Y-66479057D01*
X109687767Y-66907628D02*
X109187767Y-66193342D01*
X108830624Y-66907628D02*
X108830624Y-65407628D01*
X108830624Y-65407628D02*
X109402053Y-65407628D01*
X109402053Y-65407628D02*
X109544910Y-65479057D01*
X109544910Y-65479057D02*
X109616339Y-65550485D01*
X109616339Y-65550485D02*
X109687767Y-65693342D01*
X109687767Y-65693342D02*
X109687767Y-65907628D01*
X109687767Y-65907628D02*
X109616339Y-66050485D01*
X109616339Y-66050485D02*
X109544910Y-66121914D01*
X109544910Y-66121914D02*
X109402053Y-66193342D01*
X109402053Y-66193342D02*
X108830624Y-66193342D01*
X110973482Y-66907628D02*
X110973482Y-66121914D01*
X110973482Y-66121914D02*
X110902053Y-65979057D01*
X110902053Y-65979057D02*
X110759196Y-65907628D01*
X110759196Y-65907628D02*
X110473482Y-65907628D01*
X110473482Y-65907628D02*
X110330624Y-65979057D01*
X110973482Y-66836200D02*
X110830624Y-66907628D01*
X110830624Y-66907628D02*
X110473482Y-66907628D01*
X110473482Y-66907628D02*
X110330624Y-66836200D01*
X110330624Y-66836200D02*
X110259196Y-66693342D01*
X110259196Y-66693342D02*
X110259196Y-66550485D01*
X110259196Y-66550485D02*
X110330624Y-66407628D01*
X110330624Y-66407628D02*
X110473482Y-66336200D01*
X110473482Y-66336200D02*
X110830624Y-66336200D01*
X110830624Y-66336200D02*
X110973482Y-66264771D01*
X111473482Y-65907628D02*
X112044910Y-65907628D01*
X111687767Y-65407628D02*
X111687767Y-66693342D01*
X111687767Y-66693342D02*
X111759196Y-66836200D01*
X111759196Y-66836200D02*
X111902053Y-66907628D01*
X111902053Y-66907628D02*
X112044910Y-66907628D01*
X113116339Y-66836200D02*
X112973482Y-66907628D01*
X112973482Y-66907628D02*
X112687768Y-66907628D01*
X112687768Y-66907628D02*
X112544910Y-66836200D01*
X112544910Y-66836200D02*
X112473482Y-66693342D01*
X112473482Y-66693342D02*
X112473482Y-66121914D01*
X112473482Y-66121914D02*
X112544910Y-65979057D01*
X112544910Y-65979057D02*
X112687768Y-65907628D01*
X112687768Y-65907628D02*
X112973482Y-65907628D01*
X112973482Y-65907628D02*
X113116339Y-65979057D01*
X113116339Y-65979057D02*
X113187768Y-66121914D01*
X113187768Y-66121914D02*
X113187768Y-66264771D01*
X113187768Y-66264771D02*
X112473482Y-66407628D01*
X150008110Y-82198428D02*
X150008110Y-80698428D01*
X150008110Y-80698428D02*
X150508110Y-81769857D01*
X150508110Y-81769857D02*
X151008110Y-80698428D01*
X151008110Y-80698428D02*
X151008110Y-82198428D01*
X152365254Y-82198428D02*
X152365254Y-81412714D01*
X152365254Y-81412714D02*
X152293825Y-81269857D01*
X152293825Y-81269857D02*
X152150968Y-81198428D01*
X152150968Y-81198428D02*
X151865254Y-81198428D01*
X151865254Y-81198428D02*
X151722396Y-81269857D01*
X152365254Y-82127000D02*
X152222396Y-82198428D01*
X152222396Y-82198428D02*
X151865254Y-82198428D01*
X151865254Y-82198428D02*
X151722396Y-82127000D01*
X151722396Y-82127000D02*
X151650968Y-81984142D01*
X151650968Y-81984142D02*
X151650968Y-81841285D01*
X151650968Y-81841285D02*
X151722396Y-81698428D01*
X151722396Y-81698428D02*
X151865254Y-81627000D01*
X151865254Y-81627000D02*
X152222396Y-81627000D01*
X152222396Y-81627000D02*
X152365254Y-81555571D01*
X153079539Y-81198428D02*
X153079539Y-82198428D01*
X153079539Y-81341285D02*
X153150968Y-81269857D01*
X153150968Y-81269857D02*
X153293825Y-81198428D01*
X153293825Y-81198428D02*
X153508111Y-81198428D01*
X153508111Y-81198428D02*
X153650968Y-81269857D01*
X153650968Y-81269857D02*
X153722397Y-81412714D01*
X153722397Y-81412714D02*
X153722397Y-82198428D01*
X155508111Y-80627000D02*
X154222397Y-82555571D01*
X155936683Y-81769857D02*
X156650969Y-81769857D01*
X155793826Y-82198428D02*
X156293826Y-80698428D01*
X156293826Y-80698428D02*
X156793826Y-82198428D01*
X157936683Y-81198428D02*
X157936683Y-82198428D01*
X157293825Y-81198428D02*
X157293825Y-81984142D01*
X157293825Y-81984142D02*
X157365254Y-82127000D01*
X157365254Y-82127000D02*
X157508111Y-82198428D01*
X157508111Y-82198428D02*
X157722397Y-82198428D01*
X157722397Y-82198428D02*
X157865254Y-82127000D01*
X157865254Y-82127000D02*
X157936683Y-82055571D01*
X158436683Y-81198428D02*
X159008111Y-81198428D01*
X158650968Y-80698428D02*
X158650968Y-81984142D01*
X158650968Y-81984142D02*
X158722397Y-82127000D01*
X158722397Y-82127000D02*
X158865254Y-82198428D01*
X158865254Y-82198428D02*
X159008111Y-82198428D01*
X159722397Y-82198428D02*
X159579540Y-82127000D01*
X159579540Y-82127000D02*
X159508111Y-82055571D01*
X159508111Y-82055571D02*
X159436683Y-81912714D01*
X159436683Y-81912714D02*
X159436683Y-81484142D01*
X159436683Y-81484142D02*
X159508111Y-81341285D01*
X159508111Y-81341285D02*
X159579540Y-81269857D01*
X159579540Y-81269857D02*
X159722397Y-81198428D01*
X159722397Y-81198428D02*
X159936683Y-81198428D01*
X159936683Y-81198428D02*
X160079540Y-81269857D01*
X160079540Y-81269857D02*
X160150969Y-81341285D01*
X160150969Y-81341285D02*
X160222397Y-81484142D01*
X160222397Y-81484142D02*
X160222397Y-81912714D01*
X160222397Y-81912714D02*
X160150969Y-82055571D01*
X160150969Y-82055571D02*
X160079540Y-82127000D01*
X160079540Y-82127000D02*
X159936683Y-82198428D01*
X159936683Y-82198428D02*
X159722397Y-82198428D01*
X153486653Y-95557971D02*
X153415225Y-95629400D01*
X153415225Y-95629400D02*
X153200939Y-95700828D01*
X153200939Y-95700828D02*
X153058082Y-95700828D01*
X153058082Y-95700828D02*
X152843796Y-95629400D01*
X152843796Y-95629400D02*
X152700939Y-95486542D01*
X152700939Y-95486542D02*
X152629510Y-95343685D01*
X152629510Y-95343685D02*
X152558082Y-95057971D01*
X152558082Y-95057971D02*
X152558082Y-94843685D01*
X152558082Y-94843685D02*
X152629510Y-94557971D01*
X152629510Y-94557971D02*
X152700939Y-94415114D01*
X152700939Y-94415114D02*
X152843796Y-94272257D01*
X152843796Y-94272257D02*
X153058082Y-94200828D01*
X153058082Y-94200828D02*
X153200939Y-94200828D01*
X153200939Y-94200828D02*
X153415225Y-94272257D01*
X153415225Y-94272257D02*
X153486653Y-94343685D01*
X154843796Y-95700828D02*
X154129510Y-95700828D01*
X154129510Y-95700828D02*
X154129510Y-94200828D01*
X155629511Y-94200828D02*
X155915225Y-94200828D01*
X155915225Y-94200828D02*
X156058082Y-94272257D01*
X156058082Y-94272257D02*
X156200939Y-94415114D01*
X156200939Y-94415114D02*
X156272368Y-94700828D01*
X156272368Y-94700828D02*
X156272368Y-95200828D01*
X156272368Y-95200828D02*
X156200939Y-95486542D01*
X156200939Y-95486542D02*
X156058082Y-95629400D01*
X156058082Y-95629400D02*
X155915225Y-95700828D01*
X155915225Y-95700828D02*
X155629511Y-95700828D01*
X155629511Y-95700828D02*
X155486654Y-95629400D01*
X155486654Y-95629400D02*
X155343796Y-95486542D01*
X155343796Y-95486542D02*
X155272368Y-95200828D01*
X155272368Y-95200828D02*
X155272368Y-94700828D01*
X155272368Y-94700828D02*
X155343796Y-94415114D01*
X155343796Y-94415114D02*
X155486654Y-94272257D01*
X155486654Y-94272257D02*
X155629511Y-94200828D01*
X157772368Y-95557971D02*
X157700940Y-95629400D01*
X157700940Y-95629400D02*
X157486654Y-95700828D01*
X157486654Y-95700828D02*
X157343797Y-95700828D01*
X157343797Y-95700828D02*
X157129511Y-95629400D01*
X157129511Y-95629400D02*
X156986654Y-95486542D01*
X156986654Y-95486542D02*
X156915225Y-95343685D01*
X156915225Y-95343685D02*
X156843797Y-95057971D01*
X156843797Y-95057971D02*
X156843797Y-94843685D01*
X156843797Y-94843685D02*
X156915225Y-94557971D01*
X156915225Y-94557971D02*
X156986654Y-94415114D01*
X156986654Y-94415114D02*
X157129511Y-94272257D01*
X157129511Y-94272257D02*
X157343797Y-94200828D01*
X157343797Y-94200828D02*
X157486654Y-94200828D01*
X157486654Y-94200828D02*
X157700940Y-94272257D01*
X157700940Y-94272257D02*
X157772368Y-94343685D01*
X158415225Y-95700828D02*
X158415225Y-94200828D01*
X159272368Y-95700828D02*
X158629511Y-94843685D01*
X159272368Y-94200828D02*
X158415225Y-95057971D01*
X130226282Y-82431800D02*
X130440568Y-82503228D01*
X130440568Y-82503228D02*
X130797710Y-82503228D01*
X130797710Y-82503228D02*
X130940568Y-82431800D01*
X130940568Y-82431800D02*
X131011996Y-82360371D01*
X131011996Y-82360371D02*
X131083425Y-82217514D01*
X131083425Y-82217514D02*
X131083425Y-82074657D01*
X131083425Y-82074657D02*
X131011996Y-81931800D01*
X131011996Y-81931800D02*
X130940568Y-81860371D01*
X130940568Y-81860371D02*
X130797710Y-81788942D01*
X130797710Y-81788942D02*
X130511996Y-81717514D01*
X130511996Y-81717514D02*
X130369139Y-81646085D01*
X130369139Y-81646085D02*
X130297710Y-81574657D01*
X130297710Y-81574657D02*
X130226282Y-81431800D01*
X130226282Y-81431800D02*
X130226282Y-81288942D01*
X130226282Y-81288942D02*
X130297710Y-81146085D01*
X130297710Y-81146085D02*
X130369139Y-81074657D01*
X130369139Y-81074657D02*
X130511996Y-81003228D01*
X130511996Y-81003228D02*
X130869139Y-81003228D01*
X130869139Y-81003228D02*
X131083425Y-81074657D01*
X131511996Y-81503228D02*
X132083424Y-81503228D01*
X131726281Y-81003228D02*
X131726281Y-82288942D01*
X131726281Y-82288942D02*
X131797710Y-82431800D01*
X131797710Y-82431800D02*
X131940567Y-82503228D01*
X131940567Y-82503228D02*
X132083424Y-82503228D01*
X133154853Y-82431800D02*
X133011996Y-82503228D01*
X133011996Y-82503228D02*
X132726282Y-82503228D01*
X132726282Y-82503228D02*
X132583424Y-82431800D01*
X132583424Y-82431800D02*
X132511996Y-82288942D01*
X132511996Y-82288942D02*
X132511996Y-81717514D01*
X132511996Y-81717514D02*
X132583424Y-81574657D01*
X132583424Y-81574657D02*
X132726282Y-81503228D01*
X132726282Y-81503228D02*
X133011996Y-81503228D01*
X133011996Y-81503228D02*
X133154853Y-81574657D01*
X133154853Y-81574657D02*
X133226282Y-81717514D01*
X133226282Y-81717514D02*
X133226282Y-81860371D01*
X133226282Y-81860371D02*
X132511996Y-82003228D01*
X133869138Y-81503228D02*
X133869138Y-83003228D01*
X133869138Y-81574657D02*
X134011996Y-81503228D01*
X134011996Y-81503228D02*
X134297710Y-81503228D01*
X134297710Y-81503228D02*
X134440567Y-81574657D01*
X134440567Y-81574657D02*
X134511996Y-81646085D01*
X134511996Y-81646085D02*
X134583424Y-81788942D01*
X134583424Y-81788942D02*
X134583424Y-82217514D01*
X134583424Y-82217514D02*
X134511996Y-82360371D01*
X134511996Y-82360371D02*
X134440567Y-82431800D01*
X134440567Y-82431800D02*
X134297710Y-82503228D01*
X134297710Y-82503228D02*
X134011996Y-82503228D01*
X134011996Y-82503228D02*
X133869138Y-82431800D01*
D12*
X116969747Y-63031238D02*
X116969747Y-61031238D01*
X116969747Y-61031238D02*
X117445937Y-61031238D01*
X117445937Y-61031238D02*
X117731652Y-61126476D01*
X117731652Y-61126476D02*
X117922128Y-61316952D01*
X117922128Y-61316952D02*
X118017366Y-61507428D01*
X118017366Y-61507428D02*
X118112604Y-61888380D01*
X118112604Y-61888380D02*
X118112604Y-62174095D01*
X118112604Y-62174095D02*
X118017366Y-62555047D01*
X118017366Y-62555047D02*
X117922128Y-62745523D01*
X117922128Y-62745523D02*
X117731652Y-62936000D01*
X117731652Y-62936000D02*
X117445937Y-63031238D01*
X117445937Y-63031238D02*
X116969747Y-63031238D01*
X118969747Y-63031238D02*
X118969747Y-61031238D01*
X120303080Y-62078857D02*
X120303080Y-63031238D01*
X119636414Y-61031238D02*
X120303080Y-62078857D01*
X120303080Y-62078857D02*
X120969747Y-61031238D01*
X124303081Y-62840761D02*
X124207843Y-62936000D01*
X124207843Y-62936000D02*
X123922129Y-63031238D01*
X123922129Y-63031238D02*
X123731653Y-63031238D01*
X123731653Y-63031238D02*
X123445938Y-62936000D01*
X123445938Y-62936000D02*
X123255462Y-62745523D01*
X123255462Y-62745523D02*
X123160224Y-62555047D01*
X123160224Y-62555047D02*
X123064986Y-62174095D01*
X123064986Y-62174095D02*
X123064986Y-61888380D01*
X123064986Y-61888380D02*
X123160224Y-61507428D01*
X123160224Y-61507428D02*
X123255462Y-61316952D01*
X123255462Y-61316952D02*
X123445938Y-61126476D01*
X123445938Y-61126476D02*
X123731653Y-61031238D01*
X123731653Y-61031238D02*
X123922129Y-61031238D01*
X123922129Y-61031238D02*
X124207843Y-61126476D01*
X124207843Y-61126476D02*
X124303081Y-61221714D01*
X126112605Y-63031238D02*
X125160224Y-63031238D01*
X125160224Y-63031238D02*
X125160224Y-61031238D01*
X127160224Y-61031238D02*
X127541177Y-61031238D01*
X127541177Y-61031238D02*
X127731653Y-61126476D01*
X127731653Y-61126476D02*
X127922129Y-61316952D01*
X127922129Y-61316952D02*
X128017367Y-61697904D01*
X128017367Y-61697904D02*
X128017367Y-62364571D01*
X128017367Y-62364571D02*
X127922129Y-62745523D01*
X127922129Y-62745523D02*
X127731653Y-62936000D01*
X127731653Y-62936000D02*
X127541177Y-63031238D01*
X127541177Y-63031238D02*
X127160224Y-63031238D01*
X127160224Y-63031238D02*
X126969748Y-62936000D01*
X126969748Y-62936000D02*
X126779272Y-62745523D01*
X126779272Y-62745523D02*
X126684034Y-62364571D01*
X126684034Y-62364571D02*
X126684034Y-61697904D01*
X126684034Y-61697904D02*
X126779272Y-61316952D01*
X126779272Y-61316952D02*
X126969748Y-61126476D01*
X126969748Y-61126476D02*
X127160224Y-61031238D01*
X130017367Y-62840761D02*
X129922129Y-62936000D01*
X129922129Y-62936000D02*
X129636415Y-63031238D01*
X129636415Y-63031238D02*
X129445939Y-63031238D01*
X129445939Y-63031238D02*
X129160224Y-62936000D01*
X129160224Y-62936000D02*
X128969748Y-62745523D01*
X128969748Y-62745523D02*
X128874510Y-62555047D01*
X128874510Y-62555047D02*
X128779272Y-62174095D01*
X128779272Y-62174095D02*
X128779272Y-61888380D01*
X128779272Y-61888380D02*
X128874510Y-61507428D01*
X128874510Y-61507428D02*
X128969748Y-61316952D01*
X128969748Y-61316952D02*
X129160224Y-61126476D01*
X129160224Y-61126476D02*
X129445939Y-61031238D01*
X129445939Y-61031238D02*
X129636415Y-61031238D01*
X129636415Y-61031238D02*
X129922129Y-61126476D01*
X129922129Y-61126476D02*
X130017367Y-61221714D01*
X130874510Y-63031238D02*
X130874510Y-61031238D01*
X132017367Y-63031238D02*
X131160224Y-61888380D01*
X132017367Y-61031238D02*
X130874510Y-62174095D01*
X134398320Y-63031238D02*
X134398320Y-61031238D01*
X134398320Y-61031238D02*
X135064987Y-62459809D01*
X135064987Y-62459809D02*
X135731653Y-61031238D01*
X135731653Y-61031238D02*
X135731653Y-63031238D01*
X137064986Y-61031238D02*
X137445939Y-61031238D01*
X137445939Y-61031238D02*
X137636415Y-61126476D01*
X137636415Y-61126476D02*
X137826891Y-61316952D01*
X137826891Y-61316952D02*
X137922129Y-61697904D01*
X137922129Y-61697904D02*
X137922129Y-62364571D01*
X137922129Y-62364571D02*
X137826891Y-62745523D01*
X137826891Y-62745523D02*
X137636415Y-62936000D01*
X137636415Y-62936000D02*
X137445939Y-63031238D01*
X137445939Y-63031238D02*
X137064986Y-63031238D01*
X137064986Y-63031238D02*
X136874510Y-62936000D01*
X136874510Y-62936000D02*
X136684034Y-62745523D01*
X136684034Y-62745523D02*
X136588796Y-62364571D01*
X136588796Y-62364571D02*
X136588796Y-61697904D01*
X136588796Y-61697904D02*
X136684034Y-61316952D01*
X136684034Y-61316952D02*
X136874510Y-61126476D01*
X136874510Y-61126476D02*
X137064986Y-61031238D01*
X138779272Y-63031238D02*
X138779272Y-61031238D01*
X138779272Y-61031238D02*
X139255462Y-61031238D01*
X139255462Y-61031238D02*
X139541177Y-61126476D01*
X139541177Y-61126476D02*
X139731653Y-61316952D01*
X139731653Y-61316952D02*
X139826891Y-61507428D01*
X139826891Y-61507428D02*
X139922129Y-61888380D01*
X139922129Y-61888380D02*
X139922129Y-62174095D01*
X139922129Y-62174095D02*
X139826891Y-62555047D01*
X139826891Y-62555047D02*
X139731653Y-62745523D01*
X139731653Y-62745523D02*
X139541177Y-62936000D01*
X139541177Y-62936000D02*
X139255462Y-63031238D01*
X139255462Y-63031238D02*
X138779272Y-63031238D01*
X140779272Y-61031238D02*
X140779272Y-62650285D01*
X140779272Y-62650285D02*
X140874510Y-62840761D01*
X140874510Y-62840761D02*
X140969748Y-62936000D01*
X140969748Y-62936000D02*
X141160224Y-63031238D01*
X141160224Y-63031238D02*
X141541177Y-63031238D01*
X141541177Y-63031238D02*
X141731653Y-62936000D01*
X141731653Y-62936000D02*
X141826891Y-62840761D01*
X141826891Y-62840761D02*
X141922129Y-62650285D01*
X141922129Y-62650285D02*
X141922129Y-61031238D01*
X143826891Y-63031238D02*
X142874510Y-63031238D01*
X142874510Y-63031238D02*
X142874510Y-61031238D01*
X144493558Y-61983619D02*
X145160225Y-61983619D01*
X145445939Y-63031238D02*
X144493558Y-63031238D01*
X144493558Y-63031238D02*
X144493558Y-61031238D01*
X144493558Y-61031238D02*
X145445939Y-61031238D01*
D13*
X123644673Y-107767219D02*
X123644673Y-106767219D01*
X123644673Y-107243409D02*
X124216101Y-107243409D01*
X124216101Y-107767219D02*
X124216101Y-106767219D01*
X125120863Y-107767219D02*
X125120863Y-107243409D01*
X125120863Y-107243409D02*
X125073244Y-107148171D01*
X125073244Y-107148171D02*
X124978006Y-107100552D01*
X124978006Y-107100552D02*
X124787530Y-107100552D01*
X124787530Y-107100552D02*
X124692292Y-107148171D01*
X125120863Y-107719600D02*
X125025625Y-107767219D01*
X125025625Y-107767219D02*
X124787530Y-107767219D01*
X124787530Y-107767219D02*
X124692292Y-107719600D01*
X124692292Y-107719600D02*
X124644673Y-107624361D01*
X124644673Y-107624361D02*
X124644673Y-107529123D01*
X124644673Y-107529123D02*
X124692292Y-107433885D01*
X124692292Y-107433885D02*
X124787530Y-107386266D01*
X124787530Y-107386266D02*
X125025625Y-107386266D01*
X125025625Y-107386266D02*
X125120863Y-107338647D01*
X125597054Y-107767219D02*
X125597054Y-107100552D01*
X125597054Y-107291028D02*
X125644673Y-107195790D01*
X125644673Y-107195790D02*
X125692292Y-107148171D01*
X125692292Y-107148171D02*
X125787530Y-107100552D01*
X125787530Y-107100552D02*
X125882768Y-107100552D01*
X126644673Y-107767219D02*
X126644673Y-106767219D01*
X126644673Y-107719600D02*
X126549435Y-107767219D01*
X126549435Y-107767219D02*
X126358959Y-107767219D01*
X126358959Y-107767219D02*
X126263721Y-107719600D01*
X126263721Y-107719600D02*
X126216102Y-107671980D01*
X126216102Y-107671980D02*
X126168483Y-107576742D01*
X126168483Y-107576742D02*
X126168483Y-107291028D01*
X126168483Y-107291028D02*
X126216102Y-107195790D01*
X126216102Y-107195790D02*
X126263721Y-107148171D01*
X126263721Y-107148171D02*
X126358959Y-107100552D01*
X126358959Y-107100552D02*
X126549435Y-107100552D01*
X126549435Y-107100552D02*
X126644673Y-107148171D01*
X127025626Y-107100552D02*
X127216102Y-107767219D01*
X127216102Y-107767219D02*
X127406578Y-107291028D01*
X127406578Y-107291028D02*
X127597054Y-107767219D01*
X127597054Y-107767219D02*
X127787530Y-107100552D01*
X128597054Y-107767219D02*
X128597054Y-107243409D01*
X128597054Y-107243409D02*
X128549435Y-107148171D01*
X128549435Y-107148171D02*
X128454197Y-107100552D01*
X128454197Y-107100552D02*
X128263721Y-107100552D01*
X128263721Y-107100552D02*
X128168483Y-107148171D01*
X128597054Y-107719600D02*
X128501816Y-107767219D01*
X128501816Y-107767219D02*
X128263721Y-107767219D01*
X128263721Y-107767219D02*
X128168483Y-107719600D01*
X128168483Y-107719600D02*
X128120864Y-107624361D01*
X128120864Y-107624361D02*
X128120864Y-107529123D01*
X128120864Y-107529123D02*
X128168483Y-107433885D01*
X128168483Y-107433885D02*
X128263721Y-107386266D01*
X128263721Y-107386266D02*
X128501816Y-107386266D01*
X128501816Y-107386266D02*
X128597054Y-107338647D01*
X129073245Y-107767219D02*
X129073245Y-107100552D01*
X129073245Y-107291028D02*
X129120864Y-107195790D01*
X129120864Y-107195790D02*
X129168483Y-107148171D01*
X129168483Y-107148171D02*
X129263721Y-107100552D01*
X129263721Y-107100552D02*
X129358959Y-107100552D01*
X130073245Y-107719600D02*
X129978007Y-107767219D01*
X129978007Y-107767219D02*
X129787531Y-107767219D01*
X129787531Y-107767219D02*
X129692293Y-107719600D01*
X129692293Y-107719600D02*
X129644674Y-107624361D01*
X129644674Y-107624361D02*
X129644674Y-107243409D01*
X129644674Y-107243409D02*
X129692293Y-107148171D01*
X129692293Y-107148171D02*
X129787531Y-107100552D01*
X129787531Y-107100552D02*
X129978007Y-107100552D01*
X129978007Y-107100552D02*
X130073245Y-107148171D01*
X130073245Y-107148171D02*
X130120864Y-107243409D01*
X130120864Y-107243409D02*
X130120864Y-107338647D01*
X130120864Y-107338647D02*
X129644674Y-107433885D01*
X131311341Y-107767219D02*
X131311341Y-106767219D01*
X131311341Y-106767219D02*
X131549436Y-106767219D01*
X131549436Y-106767219D02*
X131692293Y-106814838D01*
X131692293Y-106814838D02*
X131787531Y-106910076D01*
X131787531Y-106910076D02*
X131835150Y-107005314D01*
X131835150Y-107005314D02*
X131882769Y-107195790D01*
X131882769Y-107195790D02*
X131882769Y-107338647D01*
X131882769Y-107338647D02*
X131835150Y-107529123D01*
X131835150Y-107529123D02*
X131787531Y-107624361D01*
X131787531Y-107624361D02*
X131692293Y-107719600D01*
X131692293Y-107719600D02*
X131549436Y-107767219D01*
X131549436Y-107767219D02*
X131311341Y-107767219D01*
X132692293Y-107719600D02*
X132597055Y-107767219D01*
X132597055Y-107767219D02*
X132406579Y-107767219D01*
X132406579Y-107767219D02*
X132311341Y-107719600D01*
X132311341Y-107719600D02*
X132263722Y-107624361D01*
X132263722Y-107624361D02*
X132263722Y-107243409D01*
X132263722Y-107243409D02*
X132311341Y-107148171D01*
X132311341Y-107148171D02*
X132406579Y-107100552D01*
X132406579Y-107100552D02*
X132597055Y-107100552D01*
X132597055Y-107100552D02*
X132692293Y-107148171D01*
X132692293Y-107148171D02*
X132739912Y-107243409D01*
X132739912Y-107243409D02*
X132739912Y-107338647D01*
X132739912Y-107338647D02*
X132263722Y-107433885D01*
X133120865Y-107719600D02*
X133216103Y-107767219D01*
X133216103Y-107767219D02*
X133406579Y-107767219D01*
X133406579Y-107767219D02*
X133501817Y-107719600D01*
X133501817Y-107719600D02*
X133549436Y-107624361D01*
X133549436Y-107624361D02*
X133549436Y-107576742D01*
X133549436Y-107576742D02*
X133501817Y-107481504D01*
X133501817Y-107481504D02*
X133406579Y-107433885D01*
X133406579Y-107433885D02*
X133263722Y-107433885D01*
X133263722Y-107433885D02*
X133168484Y-107386266D01*
X133168484Y-107386266D02*
X133120865Y-107291028D01*
X133120865Y-107291028D02*
X133120865Y-107243409D01*
X133120865Y-107243409D02*
X133168484Y-107148171D01*
X133168484Y-107148171D02*
X133263722Y-107100552D01*
X133263722Y-107100552D02*
X133406579Y-107100552D01*
X133406579Y-107100552D02*
X133501817Y-107148171D01*
X133978008Y-107767219D02*
X133978008Y-107100552D01*
X133978008Y-106767219D02*
X133930389Y-106814838D01*
X133930389Y-106814838D02*
X133978008Y-106862457D01*
X133978008Y-106862457D02*
X134025627Y-106814838D01*
X134025627Y-106814838D02*
X133978008Y-106767219D01*
X133978008Y-106767219D02*
X133978008Y-106862457D01*
X134882769Y-107100552D02*
X134882769Y-107910076D01*
X134882769Y-107910076D02*
X134835150Y-108005314D01*
X134835150Y-108005314D02*
X134787531Y-108052933D01*
X134787531Y-108052933D02*
X134692293Y-108100552D01*
X134692293Y-108100552D02*
X134549436Y-108100552D01*
X134549436Y-108100552D02*
X134454198Y-108052933D01*
X134882769Y-107719600D02*
X134787531Y-107767219D01*
X134787531Y-107767219D02*
X134597055Y-107767219D01*
X134597055Y-107767219D02*
X134501817Y-107719600D01*
X134501817Y-107719600D02*
X134454198Y-107671980D01*
X134454198Y-107671980D02*
X134406579Y-107576742D01*
X134406579Y-107576742D02*
X134406579Y-107291028D01*
X134406579Y-107291028D02*
X134454198Y-107195790D01*
X134454198Y-107195790D02*
X134501817Y-107148171D01*
X134501817Y-107148171D02*
X134597055Y-107100552D01*
X134597055Y-107100552D02*
X134787531Y-107100552D01*
X134787531Y-107100552D02*
X134882769Y-107148171D01*
X135358960Y-107100552D02*
X135358960Y-107767219D01*
X135358960Y-107195790D02*
X135406579Y-107148171D01*
X135406579Y-107148171D02*
X135501817Y-107100552D01*
X135501817Y-107100552D02*
X135644674Y-107100552D01*
X135644674Y-107100552D02*
X135739912Y-107148171D01*
X135739912Y-107148171D02*
X135787531Y-107243409D01*
X135787531Y-107243409D02*
X135787531Y-107767219D01*
X137025627Y-107767219D02*
X137025627Y-106767219D01*
X137025627Y-107148171D02*
X137120865Y-107100552D01*
X137120865Y-107100552D02*
X137311341Y-107100552D01*
X137311341Y-107100552D02*
X137406579Y-107148171D01*
X137406579Y-107148171D02*
X137454198Y-107195790D01*
X137454198Y-107195790D02*
X137501817Y-107291028D01*
X137501817Y-107291028D02*
X137501817Y-107576742D01*
X137501817Y-107576742D02*
X137454198Y-107671980D01*
X137454198Y-107671980D02*
X137406579Y-107719600D01*
X137406579Y-107719600D02*
X137311341Y-107767219D01*
X137311341Y-107767219D02*
X137120865Y-107767219D01*
X137120865Y-107767219D02*
X137025627Y-107719600D01*
X137835151Y-107100552D02*
X138073246Y-107767219D01*
X138311341Y-107100552D02*
X138073246Y-107767219D01*
X138073246Y-107767219D02*
X137978008Y-108005314D01*
X137978008Y-108005314D02*
X137930389Y-108052933D01*
X137930389Y-108052933D02*
X137835151Y-108100552D01*
X139406580Y-107481504D02*
X139882770Y-107481504D01*
X139311342Y-107767219D02*
X139644675Y-106767219D01*
X139644675Y-106767219D02*
X139978008Y-107767219D01*
X140311342Y-107100552D02*
X140311342Y-107767219D01*
X140311342Y-107195790D02*
X140358961Y-107148171D01*
X140358961Y-107148171D02*
X140454199Y-107100552D01*
X140454199Y-107100552D02*
X140597056Y-107100552D01*
X140597056Y-107100552D02*
X140692294Y-107148171D01*
X140692294Y-107148171D02*
X140739913Y-107243409D01*
X140739913Y-107243409D02*
X140739913Y-107767219D01*
X141073247Y-107100552D02*
X141454199Y-107100552D01*
X141216104Y-106767219D02*
X141216104Y-107624361D01*
X141216104Y-107624361D02*
X141263723Y-107719600D01*
X141263723Y-107719600D02*
X141358961Y-107767219D01*
X141358961Y-107767219D02*
X141454199Y-107767219D01*
X141930390Y-107767219D02*
X141835152Y-107719600D01*
X141835152Y-107719600D02*
X141787533Y-107671980D01*
X141787533Y-107671980D02*
X141739914Y-107576742D01*
X141739914Y-107576742D02*
X141739914Y-107291028D01*
X141739914Y-107291028D02*
X141787533Y-107195790D01*
X141787533Y-107195790D02*
X141835152Y-107148171D01*
X141835152Y-107148171D02*
X141930390Y-107100552D01*
X141930390Y-107100552D02*
X142073247Y-107100552D01*
X142073247Y-107100552D02*
X142168485Y-107148171D01*
X142168485Y-107148171D02*
X142216104Y-107195790D01*
X142216104Y-107195790D02*
X142263723Y-107291028D01*
X142263723Y-107291028D02*
X142263723Y-107576742D01*
X142263723Y-107576742D02*
X142216104Y-107671980D01*
X142216104Y-107671980D02*
X142168485Y-107719600D01*
X142168485Y-107719600D02*
X142073247Y-107767219D01*
X142073247Y-107767219D02*
X141930390Y-107767219D01*
X142692295Y-107100552D02*
X142692295Y-107767219D01*
X142692295Y-107195790D02*
X142739914Y-107148171D01*
X142739914Y-107148171D02*
X142835152Y-107100552D01*
X142835152Y-107100552D02*
X142978009Y-107100552D01*
X142978009Y-107100552D02*
X143073247Y-107148171D01*
X143073247Y-107148171D02*
X143120866Y-107243409D01*
X143120866Y-107243409D02*
X143120866Y-107767219D01*
X143597057Y-107767219D02*
X143597057Y-107100552D01*
X143597057Y-106767219D02*
X143549438Y-106814838D01*
X143549438Y-106814838D02*
X143597057Y-106862457D01*
X143597057Y-106862457D02*
X143644676Y-106814838D01*
X143644676Y-106814838D02*
X143597057Y-106767219D01*
X143597057Y-106767219D02*
X143597057Y-106862457D01*
X144216104Y-107767219D02*
X144120866Y-107719600D01*
X144120866Y-107719600D02*
X144073247Y-107671980D01*
X144073247Y-107671980D02*
X144025628Y-107576742D01*
X144025628Y-107576742D02*
X144025628Y-107291028D01*
X144025628Y-107291028D02*
X144073247Y-107195790D01*
X144073247Y-107195790D02*
X144120866Y-107148171D01*
X144120866Y-107148171D02*
X144216104Y-107100552D01*
X144216104Y-107100552D02*
X144358961Y-107100552D01*
X144358961Y-107100552D02*
X144454199Y-107148171D01*
X144454199Y-107148171D02*
X144501818Y-107195790D01*
X144501818Y-107195790D02*
X144549437Y-107291028D01*
X144549437Y-107291028D02*
X144549437Y-107576742D01*
X144549437Y-107576742D02*
X144501818Y-107671980D01*
X144501818Y-107671980D02*
X144454199Y-107719600D01*
X144454199Y-107719600D02*
X144358961Y-107767219D01*
X144358961Y-107767219D02*
X144216104Y-107767219D01*
X146073247Y-107243409D02*
X146216104Y-107291028D01*
X146216104Y-107291028D02*
X146263723Y-107338647D01*
X146263723Y-107338647D02*
X146311342Y-107433885D01*
X146311342Y-107433885D02*
X146311342Y-107576742D01*
X146311342Y-107576742D02*
X146263723Y-107671980D01*
X146263723Y-107671980D02*
X146216104Y-107719600D01*
X146216104Y-107719600D02*
X146120866Y-107767219D01*
X146120866Y-107767219D02*
X145739914Y-107767219D01*
X145739914Y-107767219D02*
X145739914Y-106767219D01*
X145739914Y-106767219D02*
X146073247Y-106767219D01*
X146073247Y-106767219D02*
X146168485Y-106814838D01*
X146168485Y-106814838D02*
X146216104Y-106862457D01*
X146216104Y-106862457D02*
X146263723Y-106957695D01*
X146263723Y-106957695D02*
X146263723Y-107052933D01*
X146263723Y-107052933D02*
X146216104Y-107148171D01*
X146216104Y-107148171D02*
X146168485Y-107195790D01*
X146168485Y-107195790D02*
X146073247Y-107243409D01*
X146073247Y-107243409D02*
X145739914Y-107243409D01*
X147120866Y-107719600D02*
X147025628Y-107767219D01*
X147025628Y-107767219D02*
X146835152Y-107767219D01*
X146835152Y-107767219D02*
X146739914Y-107719600D01*
X146739914Y-107719600D02*
X146692295Y-107624361D01*
X146692295Y-107624361D02*
X146692295Y-107243409D01*
X146692295Y-107243409D02*
X146739914Y-107148171D01*
X146739914Y-107148171D02*
X146835152Y-107100552D01*
X146835152Y-107100552D02*
X147025628Y-107100552D01*
X147025628Y-107100552D02*
X147120866Y-107148171D01*
X147120866Y-107148171D02*
X147168485Y-107243409D01*
X147168485Y-107243409D02*
X147168485Y-107338647D01*
X147168485Y-107338647D02*
X146692295Y-107433885D01*
X147597057Y-107767219D02*
X147597057Y-107100552D01*
X147597057Y-107291028D02*
X147644676Y-107195790D01*
X147644676Y-107195790D02*
X147692295Y-107148171D01*
X147692295Y-107148171D02*
X147787533Y-107100552D01*
X147787533Y-107100552D02*
X147882771Y-107100552D01*
X148216105Y-107100552D02*
X148216105Y-107767219D01*
X148216105Y-107195790D02*
X148263724Y-107148171D01*
X148263724Y-107148171D02*
X148358962Y-107100552D01*
X148358962Y-107100552D02*
X148501819Y-107100552D01*
X148501819Y-107100552D02*
X148597057Y-107148171D01*
X148597057Y-107148171D02*
X148644676Y-107243409D01*
X148644676Y-107243409D02*
X148644676Y-107767219D01*
X149549438Y-107767219D02*
X149549438Y-107243409D01*
X149549438Y-107243409D02*
X149501819Y-107148171D01*
X149501819Y-107148171D02*
X149406581Y-107100552D01*
X149406581Y-107100552D02*
X149216105Y-107100552D01*
X149216105Y-107100552D02*
X149120867Y-107148171D01*
X149549438Y-107719600D02*
X149454200Y-107767219D01*
X149454200Y-107767219D02*
X149216105Y-107767219D01*
X149216105Y-107767219D02*
X149120867Y-107719600D01*
X149120867Y-107719600D02*
X149073248Y-107624361D01*
X149073248Y-107624361D02*
X149073248Y-107529123D01*
X149073248Y-107529123D02*
X149120867Y-107433885D01*
X149120867Y-107433885D02*
X149216105Y-107386266D01*
X149216105Y-107386266D02*
X149454200Y-107386266D01*
X149454200Y-107386266D02*
X149549438Y-107338647D01*
X150025629Y-107767219D02*
X150025629Y-107100552D01*
X150025629Y-107291028D02*
X150073248Y-107195790D01*
X150073248Y-107195790D02*
X150120867Y-107148171D01*
X150120867Y-107148171D02*
X150216105Y-107100552D01*
X150216105Y-107100552D02*
X150311343Y-107100552D01*
X151073248Y-107767219D02*
X151073248Y-106767219D01*
X151073248Y-107719600D02*
X150978010Y-107767219D01*
X150978010Y-107767219D02*
X150787534Y-107767219D01*
X150787534Y-107767219D02*
X150692296Y-107719600D01*
X150692296Y-107719600D02*
X150644677Y-107671980D01*
X150644677Y-107671980D02*
X150597058Y-107576742D01*
X150597058Y-107576742D02*
X150597058Y-107291028D01*
X150597058Y-107291028D02*
X150644677Y-107195790D01*
X150644677Y-107195790D02*
X150692296Y-107148171D01*
X150692296Y-107148171D02*
X150787534Y-107100552D01*
X150787534Y-107100552D02*
X150978010Y-107100552D01*
X150978010Y-107100552D02*
X151073248Y-107148171D01*
X151549439Y-107767219D02*
X151549439Y-107100552D01*
X151549439Y-106767219D02*
X151501820Y-106814838D01*
X151501820Y-106814838D02*
X151549439Y-106862457D01*
X151549439Y-106862457D02*
X151597058Y-106814838D01*
X151597058Y-106814838D02*
X151549439Y-106767219D01*
X151549439Y-106767219D02*
X151549439Y-106862457D01*
X152025629Y-107100552D02*
X152025629Y-107767219D01*
X152025629Y-107195790D02*
X152073248Y-107148171D01*
X152073248Y-107148171D02*
X152168486Y-107100552D01*
X152168486Y-107100552D02*
X152311343Y-107100552D01*
X152311343Y-107100552D02*
X152406581Y-107148171D01*
X152406581Y-107148171D02*
X152454200Y-107243409D01*
X152454200Y-107243409D02*
X152454200Y-107767219D01*
X152930391Y-107767219D02*
X152930391Y-107100552D01*
X152930391Y-106767219D02*
X152882772Y-106814838D01*
X152882772Y-106814838D02*
X152930391Y-106862457D01*
X152930391Y-106862457D02*
X152978010Y-106814838D01*
X152978010Y-106814838D02*
X152930391Y-106767219D01*
X152930391Y-106767219D02*
X152930391Y-106862457D01*
D14*
X144308333Y-98104819D02*
X143975000Y-97628628D01*
X143736905Y-98104819D02*
X143736905Y-97104819D01*
X143736905Y-97104819D02*
X144117857Y-97104819D01*
X144117857Y-97104819D02*
X144213095Y-97152438D01*
X144213095Y-97152438D02*
X144260714Y-97200057D01*
X144260714Y-97200057D02*
X144308333Y-97295295D01*
X144308333Y-97295295D02*
X144308333Y-97438152D01*
X144308333Y-97438152D02*
X144260714Y-97533390D01*
X144260714Y-97533390D02*
X144213095Y-97581009D01*
X144213095Y-97581009D02*
X144117857Y-97628628D01*
X144117857Y-97628628D02*
X143736905Y-97628628D01*
X144641667Y-97104819D02*
X145308333Y-97104819D01*
X145308333Y-97104819D02*
X144879762Y-98104819D01*
D15*
X153727067Y-77005400D02*
X153869924Y-77053019D01*
X153869924Y-77053019D02*
X154108019Y-77053019D01*
X154108019Y-77053019D02*
X154203257Y-77005400D01*
X154203257Y-77005400D02*
X154250876Y-76957780D01*
X154250876Y-76957780D02*
X154298495Y-76862542D01*
X154298495Y-76862542D02*
X154298495Y-76767304D01*
X154298495Y-76767304D02*
X154250876Y-76672066D01*
X154250876Y-76672066D02*
X154203257Y-76624447D01*
X154203257Y-76624447D02*
X154108019Y-76576828D01*
X154108019Y-76576828D02*
X153917543Y-76529209D01*
X153917543Y-76529209D02*
X153822305Y-76481590D01*
X153822305Y-76481590D02*
X153774686Y-76433971D01*
X153774686Y-76433971D02*
X153727067Y-76338733D01*
X153727067Y-76338733D02*
X153727067Y-76243495D01*
X153727067Y-76243495D02*
X153774686Y-76148257D01*
X153774686Y-76148257D02*
X153822305Y-76100638D01*
X153822305Y-76100638D02*
X153917543Y-76053019D01*
X153917543Y-76053019D02*
X154155638Y-76053019D01*
X154155638Y-76053019D02*
X154298495Y-76100638D01*
X154631829Y-76053019D02*
X154869924Y-77053019D01*
X154869924Y-77053019D02*
X155060400Y-76338733D01*
X155060400Y-76338733D02*
X155250876Y-77053019D01*
X155250876Y-77053019D02*
X155488972Y-76053019D01*
X155822305Y-76148257D02*
X155869924Y-76100638D01*
X155869924Y-76100638D02*
X155965162Y-76053019D01*
X155965162Y-76053019D02*
X156203257Y-76053019D01*
X156203257Y-76053019D02*
X156298495Y-76100638D01*
X156298495Y-76100638D02*
X156346114Y-76148257D01*
X156346114Y-76148257D02*
X156393733Y-76243495D01*
X156393733Y-76243495D02*
X156393733Y-76338733D01*
X156393733Y-76338733D02*
X156346114Y-76481590D01*
X156346114Y-76481590D02*
X155774686Y-77053019D01*
X155774686Y-77053019D02*
X156393733Y-77053019D01*
D14*
X152604819Y-100313094D02*
X151604819Y-100313094D01*
X151604819Y-100313094D02*
X151604819Y-100074999D01*
X151604819Y-100074999D02*
X151652438Y-99932142D01*
X151652438Y-99932142D02*
X151747676Y-99836904D01*
X151747676Y-99836904D02*
X151842914Y-99789285D01*
X151842914Y-99789285D02*
X152033390Y-99741666D01*
X152033390Y-99741666D02*
X152176247Y-99741666D01*
X152176247Y-99741666D02*
X152366723Y-99789285D01*
X152366723Y-99789285D02*
X152461961Y-99836904D01*
X152461961Y-99836904D02*
X152557200Y-99932142D01*
X152557200Y-99932142D02*
X152604819Y-100074999D01*
X152604819Y-100074999D02*
X152604819Y-100313094D01*
X152604819Y-98789285D02*
X152604819Y-99360713D01*
X152604819Y-99074999D02*
X151604819Y-99074999D01*
X151604819Y-99074999D02*
X151747676Y-99170237D01*
X151747676Y-99170237D02*
X151842914Y-99265475D01*
X151842914Y-99265475D02*
X151890533Y-99360713D01*
X114422019Y-92247704D02*
X115231542Y-92247704D01*
X115231542Y-92247704D02*
X115326780Y-92200085D01*
X115326780Y-92200085D02*
X115374400Y-92152466D01*
X115374400Y-92152466D02*
X115422019Y-92057228D01*
X115422019Y-92057228D02*
X115422019Y-91866752D01*
X115422019Y-91866752D02*
X115374400Y-91771514D01*
X115374400Y-91771514D02*
X115326780Y-91723895D01*
X115326780Y-91723895D02*
X115231542Y-91676276D01*
X115231542Y-91676276D02*
X114422019Y-91676276D01*
X114422019Y-91295323D02*
X114422019Y-90676276D01*
X114422019Y-90676276D02*
X114802971Y-91009609D01*
X114802971Y-91009609D02*
X114802971Y-90866752D01*
X114802971Y-90866752D02*
X114850590Y-90771514D01*
X114850590Y-90771514D02*
X114898209Y-90723895D01*
X114898209Y-90723895D02*
X114993447Y-90676276D01*
X114993447Y-90676276D02*
X115231542Y-90676276D01*
X115231542Y-90676276D02*
X115326780Y-90723895D01*
X115326780Y-90723895D02*
X115374400Y-90771514D01*
X115374400Y-90771514D02*
X115422019Y-90866752D01*
X115422019Y-90866752D02*
X115422019Y-91152466D01*
X115422019Y-91152466D02*
X115374400Y-91247704D01*
X115374400Y-91247704D02*
X115326780Y-91295323D01*
X119477333Y-67463619D02*
X119144000Y-66987428D01*
X118905905Y-67463619D02*
X118905905Y-66463619D01*
X118905905Y-66463619D02*
X119286857Y-66463619D01*
X119286857Y-66463619D02*
X119382095Y-66511238D01*
X119382095Y-66511238D02*
X119429714Y-66558857D01*
X119429714Y-66558857D02*
X119477333Y-66654095D01*
X119477333Y-66654095D02*
X119477333Y-66796952D01*
X119477333Y-66796952D02*
X119429714Y-66892190D01*
X119429714Y-66892190D02*
X119382095Y-66939809D01*
X119382095Y-66939809D02*
X119286857Y-66987428D01*
X119286857Y-66987428D02*
X118905905Y-66987428D01*
X120429714Y-67463619D02*
X119858286Y-67463619D01*
X120144000Y-67463619D02*
X120144000Y-66463619D01*
X120144000Y-66463619D02*
X120048762Y-66606476D01*
X120048762Y-66606476D02*
X119953524Y-66701714D01*
X119953524Y-66701714D02*
X119858286Y-66749333D01*
X104170080Y-95176466D02*
X103455795Y-95176466D01*
X103455795Y-95176466D02*
X103312938Y-95128847D01*
X103312938Y-95128847D02*
X103217700Y-95033609D01*
X103217700Y-95033609D02*
X103170080Y-94890752D01*
X103170080Y-94890752D02*
X103170080Y-94795514D01*
X103170080Y-96176466D02*
X103170080Y-95605038D01*
X103170080Y-95890752D02*
X104170080Y-95890752D01*
X104170080Y-95890752D02*
X104027223Y-95795514D01*
X104027223Y-95795514D02*
X103931985Y-95700276D01*
X103931985Y-95700276D02*
X103884366Y-95605038D01*
X122108933Y-97856019D02*
X121775600Y-97379828D01*
X121537505Y-97856019D02*
X121537505Y-96856019D01*
X121537505Y-96856019D02*
X121918457Y-96856019D01*
X121918457Y-96856019D02*
X122013695Y-96903638D01*
X122013695Y-96903638D02*
X122061314Y-96951257D01*
X122061314Y-96951257D02*
X122108933Y-97046495D01*
X122108933Y-97046495D02*
X122108933Y-97189352D01*
X122108933Y-97189352D02*
X122061314Y-97284590D01*
X122061314Y-97284590D02*
X122013695Y-97332209D01*
X122013695Y-97332209D02*
X121918457Y-97379828D01*
X121918457Y-97379828D02*
X121537505Y-97379828D01*
X123013695Y-96856019D02*
X122537505Y-96856019D01*
X122537505Y-96856019D02*
X122489886Y-97332209D01*
X122489886Y-97332209D02*
X122537505Y-97284590D01*
X122537505Y-97284590D02*
X122632743Y-97236971D01*
X122632743Y-97236971D02*
X122870838Y-97236971D01*
X122870838Y-97236971D02*
X122966076Y-97284590D01*
X122966076Y-97284590D02*
X123013695Y-97332209D01*
X123013695Y-97332209D02*
X123061314Y-97427447D01*
X123061314Y-97427447D02*
X123061314Y-97665542D01*
X123061314Y-97665542D02*
X123013695Y-97760780D01*
X123013695Y-97760780D02*
X122966076Y-97808400D01*
X122966076Y-97808400D02*
X122870838Y-97856019D01*
X122870838Y-97856019D02*
X122632743Y-97856019D01*
X122632743Y-97856019D02*
X122537505Y-97808400D01*
X122537505Y-97808400D02*
X122489886Y-97760780D01*
X137383619Y-77165104D02*
X138193142Y-77165104D01*
X138193142Y-77165104D02*
X138288380Y-77117485D01*
X138288380Y-77117485D02*
X138336000Y-77069866D01*
X138336000Y-77069866D02*
X138383619Y-76974628D01*
X138383619Y-76974628D02*
X138383619Y-76784152D01*
X138383619Y-76784152D02*
X138336000Y-76688914D01*
X138336000Y-76688914D02*
X138288380Y-76641295D01*
X138288380Y-76641295D02*
X138193142Y-76593676D01*
X138193142Y-76593676D02*
X137383619Y-76593676D01*
X137478857Y-76165104D02*
X137431238Y-76117485D01*
X137431238Y-76117485D02*
X137383619Y-76022247D01*
X137383619Y-76022247D02*
X137383619Y-75784152D01*
X137383619Y-75784152D02*
X137431238Y-75688914D01*
X137431238Y-75688914D02*
X137478857Y-75641295D01*
X137478857Y-75641295D02*
X137574095Y-75593676D01*
X137574095Y-75593676D02*
X137669333Y-75593676D01*
X137669333Y-75593676D02*
X137812190Y-75641295D01*
X137812190Y-75641295D02*
X138383619Y-76212723D01*
X138383619Y-76212723D02*
X138383619Y-75593676D01*
X114511219Y-77503904D02*
X115320742Y-77503904D01*
X115320742Y-77503904D02*
X115415980Y-77456285D01*
X115415980Y-77456285D02*
X115463600Y-77408666D01*
X115463600Y-77408666D02*
X115511219Y-77313428D01*
X115511219Y-77313428D02*
X115511219Y-77122952D01*
X115511219Y-77122952D02*
X115463600Y-77027714D01*
X115463600Y-77027714D02*
X115415980Y-76980095D01*
X115415980Y-76980095D02*
X115320742Y-76932476D01*
X115320742Y-76932476D02*
X114511219Y-76932476D01*
X115511219Y-75932476D02*
X115511219Y-76503904D01*
X115511219Y-76218190D02*
X114511219Y-76218190D01*
X114511219Y-76218190D02*
X114654076Y-76313428D01*
X114654076Y-76313428D02*
X114749314Y-76408666D01*
X114749314Y-76408666D02*
X114796933Y-76503904D01*
X138161733Y-82807980D02*
X138114114Y-82855600D01*
X138114114Y-82855600D02*
X137971257Y-82903219D01*
X137971257Y-82903219D02*
X137876019Y-82903219D01*
X137876019Y-82903219D02*
X137733162Y-82855600D01*
X137733162Y-82855600D02*
X137637924Y-82760361D01*
X137637924Y-82760361D02*
X137590305Y-82665123D01*
X137590305Y-82665123D02*
X137542686Y-82474647D01*
X137542686Y-82474647D02*
X137542686Y-82331790D01*
X137542686Y-82331790D02*
X137590305Y-82141314D01*
X137590305Y-82141314D02*
X137637924Y-82046076D01*
X137637924Y-82046076D02*
X137733162Y-81950838D01*
X137733162Y-81950838D02*
X137876019Y-81903219D01*
X137876019Y-81903219D02*
X137971257Y-81903219D01*
X137971257Y-81903219D02*
X138114114Y-81950838D01*
X138114114Y-81950838D02*
X138161733Y-81998457D01*
X139066495Y-81903219D02*
X138590305Y-81903219D01*
X138590305Y-81903219D02*
X138542686Y-82379409D01*
X138542686Y-82379409D02*
X138590305Y-82331790D01*
X138590305Y-82331790D02*
X138685543Y-82284171D01*
X138685543Y-82284171D02*
X138923638Y-82284171D01*
X138923638Y-82284171D02*
X139018876Y-82331790D01*
X139018876Y-82331790D02*
X139066495Y-82379409D01*
X139066495Y-82379409D02*
X139114114Y-82474647D01*
X139114114Y-82474647D02*
X139114114Y-82712742D01*
X139114114Y-82712742D02*
X139066495Y-82807980D01*
X139066495Y-82807980D02*
X139018876Y-82855600D01*
X139018876Y-82855600D02*
X138923638Y-82903219D01*
X138923638Y-82903219D02*
X138685543Y-82903219D01*
X138685543Y-82903219D02*
X138590305Y-82855600D01*
X138590305Y-82855600D02*
X138542686Y-82807980D01*
X155332133Y-89372419D02*
X154998800Y-88896228D01*
X154760705Y-89372419D02*
X154760705Y-88372419D01*
X154760705Y-88372419D02*
X155141657Y-88372419D01*
X155141657Y-88372419D02*
X155236895Y-88420038D01*
X155236895Y-88420038D02*
X155284514Y-88467657D01*
X155284514Y-88467657D02*
X155332133Y-88562895D01*
X155332133Y-88562895D02*
X155332133Y-88705752D01*
X155332133Y-88705752D02*
X155284514Y-88800990D01*
X155284514Y-88800990D02*
X155236895Y-88848609D01*
X155236895Y-88848609D02*
X155141657Y-88896228D01*
X155141657Y-88896228D02*
X154760705Y-88896228D01*
X155903562Y-88800990D02*
X155808324Y-88753371D01*
X155808324Y-88753371D02*
X155760705Y-88705752D01*
X155760705Y-88705752D02*
X155713086Y-88610514D01*
X155713086Y-88610514D02*
X155713086Y-88562895D01*
X155713086Y-88562895D02*
X155760705Y-88467657D01*
X155760705Y-88467657D02*
X155808324Y-88420038D01*
X155808324Y-88420038D02*
X155903562Y-88372419D01*
X155903562Y-88372419D02*
X156094038Y-88372419D01*
X156094038Y-88372419D02*
X156189276Y-88420038D01*
X156189276Y-88420038D02*
X156236895Y-88467657D01*
X156236895Y-88467657D02*
X156284514Y-88562895D01*
X156284514Y-88562895D02*
X156284514Y-88610514D01*
X156284514Y-88610514D02*
X156236895Y-88705752D01*
X156236895Y-88705752D02*
X156189276Y-88753371D01*
X156189276Y-88753371D02*
X156094038Y-88800990D01*
X156094038Y-88800990D02*
X155903562Y-88800990D01*
X155903562Y-88800990D02*
X155808324Y-88848609D01*
X155808324Y-88848609D02*
X155760705Y-88896228D01*
X155760705Y-88896228D02*
X155713086Y-88991466D01*
X155713086Y-88991466D02*
X155713086Y-89181942D01*
X155713086Y-89181942D02*
X155760705Y-89277180D01*
X155760705Y-89277180D02*
X155808324Y-89324800D01*
X155808324Y-89324800D02*
X155903562Y-89372419D01*
X155903562Y-89372419D02*
X156094038Y-89372419D01*
X156094038Y-89372419D02*
X156189276Y-89324800D01*
X156189276Y-89324800D02*
X156236895Y-89277180D01*
X156236895Y-89277180D02*
X156284514Y-89181942D01*
X156284514Y-89181942D02*
X156284514Y-88991466D01*
X156284514Y-88991466D02*
X156236895Y-88896228D01*
X156236895Y-88896228D02*
X156189276Y-88848609D01*
X156189276Y-88848609D02*
X156094038Y-88800990D01*
X111796533Y-97539980D02*
X111748914Y-97587600D01*
X111748914Y-97587600D02*
X111606057Y-97635219D01*
X111606057Y-97635219D02*
X111510819Y-97635219D01*
X111510819Y-97635219D02*
X111367962Y-97587600D01*
X111367962Y-97587600D02*
X111272724Y-97492361D01*
X111272724Y-97492361D02*
X111225105Y-97397123D01*
X111225105Y-97397123D02*
X111177486Y-97206647D01*
X111177486Y-97206647D02*
X111177486Y-97063790D01*
X111177486Y-97063790D02*
X111225105Y-96873314D01*
X111225105Y-96873314D02*
X111272724Y-96778076D01*
X111272724Y-96778076D02*
X111367962Y-96682838D01*
X111367962Y-96682838D02*
X111510819Y-96635219D01*
X111510819Y-96635219D02*
X111606057Y-96635219D01*
X111606057Y-96635219D02*
X111748914Y-96682838D01*
X111748914Y-96682838D02*
X111796533Y-96730457D01*
X112177486Y-96730457D02*
X112225105Y-96682838D01*
X112225105Y-96682838D02*
X112320343Y-96635219D01*
X112320343Y-96635219D02*
X112558438Y-96635219D01*
X112558438Y-96635219D02*
X112653676Y-96682838D01*
X112653676Y-96682838D02*
X112701295Y-96730457D01*
X112701295Y-96730457D02*
X112748914Y-96825695D01*
X112748914Y-96825695D02*
X112748914Y-96920933D01*
X112748914Y-96920933D02*
X112701295Y-97063790D01*
X112701295Y-97063790D02*
X112129867Y-97635219D01*
X112129867Y-97635219D02*
X112748914Y-97635219D01*
X137427619Y-92303504D02*
X138237142Y-92303504D01*
X138237142Y-92303504D02*
X138332380Y-92255885D01*
X138332380Y-92255885D02*
X138380000Y-92208266D01*
X138380000Y-92208266D02*
X138427619Y-92113028D01*
X138427619Y-92113028D02*
X138427619Y-91922552D01*
X138427619Y-91922552D02*
X138380000Y-91827314D01*
X138380000Y-91827314D02*
X138332380Y-91779695D01*
X138332380Y-91779695D02*
X138237142Y-91732076D01*
X138237142Y-91732076D02*
X137427619Y-91732076D01*
X137760952Y-90827314D02*
X138427619Y-90827314D01*
X137380000Y-91065409D02*
X138094285Y-91303504D01*
X138094285Y-91303504D02*
X138094285Y-90684457D01*
X111658333Y-82609580D02*
X111610714Y-82657200D01*
X111610714Y-82657200D02*
X111467857Y-82704819D01*
X111467857Y-82704819D02*
X111372619Y-82704819D01*
X111372619Y-82704819D02*
X111229762Y-82657200D01*
X111229762Y-82657200D02*
X111134524Y-82561961D01*
X111134524Y-82561961D02*
X111086905Y-82466723D01*
X111086905Y-82466723D02*
X111039286Y-82276247D01*
X111039286Y-82276247D02*
X111039286Y-82133390D01*
X111039286Y-82133390D02*
X111086905Y-81942914D01*
X111086905Y-81942914D02*
X111134524Y-81847676D01*
X111134524Y-81847676D02*
X111229762Y-81752438D01*
X111229762Y-81752438D02*
X111372619Y-81704819D01*
X111372619Y-81704819D02*
X111467857Y-81704819D01*
X111467857Y-81704819D02*
X111610714Y-81752438D01*
X111610714Y-81752438D02*
X111658333Y-81800057D01*
X111991667Y-81704819D02*
X112658333Y-81704819D01*
X112658333Y-81704819D02*
X112229762Y-82704819D01*
X128255733Y-67704780D02*
X128208114Y-67752400D01*
X128208114Y-67752400D02*
X128065257Y-67800019D01*
X128065257Y-67800019D02*
X127970019Y-67800019D01*
X127970019Y-67800019D02*
X127827162Y-67752400D01*
X127827162Y-67752400D02*
X127731924Y-67657161D01*
X127731924Y-67657161D02*
X127684305Y-67561923D01*
X127684305Y-67561923D02*
X127636686Y-67371447D01*
X127636686Y-67371447D02*
X127636686Y-67228590D01*
X127636686Y-67228590D02*
X127684305Y-67038114D01*
X127684305Y-67038114D02*
X127731924Y-66942876D01*
X127731924Y-66942876D02*
X127827162Y-66847638D01*
X127827162Y-66847638D02*
X127970019Y-66800019D01*
X127970019Y-66800019D02*
X128065257Y-66800019D01*
X128065257Y-66800019D02*
X128208114Y-66847638D01*
X128208114Y-66847638D02*
X128255733Y-66895257D01*
X129112876Y-67133352D02*
X129112876Y-67800019D01*
X128874781Y-66752400D02*
X128636686Y-67466685D01*
X128636686Y-67466685D02*
X129255733Y-67466685D01*
X111683332Y-93434780D02*
X111635713Y-93482400D01*
X111635713Y-93482400D02*
X111492856Y-93530019D01*
X111492856Y-93530019D02*
X111397618Y-93530019D01*
X111397618Y-93530019D02*
X111254761Y-93482400D01*
X111254761Y-93482400D02*
X111159523Y-93387161D01*
X111159523Y-93387161D02*
X111111904Y-93291923D01*
X111111904Y-93291923D02*
X111064285Y-93101447D01*
X111064285Y-93101447D02*
X111064285Y-92958590D01*
X111064285Y-92958590D02*
X111111904Y-92768114D01*
X111111904Y-92768114D02*
X111159523Y-92672876D01*
X111159523Y-92672876D02*
X111254761Y-92577638D01*
X111254761Y-92577638D02*
X111397618Y-92530019D01*
X111397618Y-92530019D02*
X111492856Y-92530019D01*
X111492856Y-92530019D02*
X111635713Y-92577638D01*
X111635713Y-92577638D02*
X111683332Y-92625257D01*
X112016666Y-92530019D02*
X112635713Y-92530019D01*
X112635713Y-92530019D02*
X112302380Y-92910971D01*
X112302380Y-92910971D02*
X112445237Y-92910971D01*
X112445237Y-92910971D02*
X112540475Y-92958590D01*
X112540475Y-92958590D02*
X112588094Y-93006209D01*
X112588094Y-93006209D02*
X112635713Y-93101447D01*
X112635713Y-93101447D02*
X112635713Y-93339542D01*
X112635713Y-93339542D02*
X112588094Y-93434780D01*
X112588094Y-93434780D02*
X112540475Y-93482400D01*
X112540475Y-93482400D02*
X112445237Y-93530019D01*
X112445237Y-93530019D02*
X112159523Y-93530019D01*
X112159523Y-93530019D02*
X112064285Y-93482400D01*
X112064285Y-93482400D02*
X112016666Y-93434780D01*
X100908333Y-82534580D02*
X100860714Y-82582200D01*
X100860714Y-82582200D02*
X100717857Y-82629819D01*
X100717857Y-82629819D02*
X100622619Y-82629819D01*
X100622619Y-82629819D02*
X100479762Y-82582200D01*
X100479762Y-82582200D02*
X100384524Y-82486961D01*
X100384524Y-82486961D02*
X100336905Y-82391723D01*
X100336905Y-82391723D02*
X100289286Y-82201247D01*
X100289286Y-82201247D02*
X100289286Y-82058390D01*
X100289286Y-82058390D02*
X100336905Y-81867914D01*
X100336905Y-81867914D02*
X100384524Y-81772676D01*
X100384524Y-81772676D02*
X100479762Y-81677438D01*
X100479762Y-81677438D02*
X100622619Y-81629819D01*
X100622619Y-81629819D02*
X100717857Y-81629819D01*
X100717857Y-81629819D02*
X100860714Y-81677438D01*
X100860714Y-81677438D02*
X100908333Y-81725057D01*
X101860714Y-82629819D02*
X101289286Y-82629819D01*
X101575000Y-82629819D02*
X101575000Y-81629819D01*
X101575000Y-81629819D02*
X101479762Y-81772676D01*
X101479762Y-81772676D02*
X101384524Y-81867914D01*
X101384524Y-81867914D02*
X101289286Y-81915533D01*
X155332133Y-84394019D02*
X154998800Y-83917828D01*
X154760705Y-84394019D02*
X154760705Y-83394019D01*
X154760705Y-83394019D02*
X155141657Y-83394019D01*
X155141657Y-83394019D02*
X155236895Y-83441638D01*
X155236895Y-83441638D02*
X155284514Y-83489257D01*
X155284514Y-83489257D02*
X155332133Y-83584495D01*
X155332133Y-83584495D02*
X155332133Y-83727352D01*
X155332133Y-83727352D02*
X155284514Y-83822590D01*
X155284514Y-83822590D02*
X155236895Y-83870209D01*
X155236895Y-83870209D02*
X155141657Y-83917828D01*
X155141657Y-83917828D02*
X154760705Y-83917828D01*
X155808324Y-84394019D02*
X155998800Y-84394019D01*
X155998800Y-84394019D02*
X156094038Y-84346400D01*
X156094038Y-84346400D02*
X156141657Y-84298780D01*
X156141657Y-84298780D02*
X156236895Y-84155923D01*
X156236895Y-84155923D02*
X156284514Y-83965447D01*
X156284514Y-83965447D02*
X156284514Y-83584495D01*
X156284514Y-83584495D02*
X156236895Y-83489257D01*
X156236895Y-83489257D02*
X156189276Y-83441638D01*
X156189276Y-83441638D02*
X156094038Y-83394019D01*
X156094038Y-83394019D02*
X155903562Y-83394019D01*
X155903562Y-83394019D02*
X155808324Y-83441638D01*
X155808324Y-83441638D02*
X155760705Y-83489257D01*
X155760705Y-83489257D02*
X155713086Y-83584495D01*
X155713086Y-83584495D02*
X155713086Y-83822590D01*
X155713086Y-83822590D02*
X155760705Y-83917828D01*
X155760705Y-83917828D02*
X155808324Y-83965447D01*
X155808324Y-83965447D02*
X155903562Y-84013066D01*
X155903562Y-84013066D02*
X156094038Y-84013066D01*
X156094038Y-84013066D02*
X156189276Y-83965447D01*
X156189276Y-83965447D02*
X156236895Y-83917828D01*
X156236895Y-83917828D02*
X156284514Y-83822590D01*
X146391333Y-82909580D02*
X146343714Y-82957200D01*
X146343714Y-82957200D02*
X146200857Y-83004819D01*
X146200857Y-83004819D02*
X146105619Y-83004819D01*
X146105619Y-83004819D02*
X145962762Y-82957200D01*
X145962762Y-82957200D02*
X145867524Y-82861961D01*
X145867524Y-82861961D02*
X145819905Y-82766723D01*
X145819905Y-82766723D02*
X145772286Y-82576247D01*
X145772286Y-82576247D02*
X145772286Y-82433390D01*
X145772286Y-82433390D02*
X145819905Y-82242914D01*
X145819905Y-82242914D02*
X145867524Y-82147676D01*
X145867524Y-82147676D02*
X145962762Y-82052438D01*
X145962762Y-82052438D02*
X146105619Y-82004819D01*
X146105619Y-82004819D02*
X146200857Y-82004819D01*
X146200857Y-82004819D02*
X146343714Y-82052438D01*
X146343714Y-82052438D02*
X146391333Y-82100057D01*
X147248476Y-82004819D02*
X147058000Y-82004819D01*
X147058000Y-82004819D02*
X146962762Y-82052438D01*
X146962762Y-82052438D02*
X146915143Y-82100057D01*
X146915143Y-82100057D02*
X146819905Y-82242914D01*
X146819905Y-82242914D02*
X146772286Y-82433390D01*
X146772286Y-82433390D02*
X146772286Y-82814342D01*
X146772286Y-82814342D02*
X146819905Y-82909580D01*
X146819905Y-82909580D02*
X146867524Y-82957200D01*
X146867524Y-82957200D02*
X146962762Y-83004819D01*
X146962762Y-83004819D02*
X147153238Y-83004819D01*
X147153238Y-83004819D02*
X147248476Y-82957200D01*
X147248476Y-82957200D02*
X147296095Y-82909580D01*
X147296095Y-82909580D02*
X147343714Y-82814342D01*
X147343714Y-82814342D02*
X147343714Y-82576247D01*
X147343714Y-82576247D02*
X147296095Y-82481009D01*
X147296095Y-82481009D02*
X147248476Y-82433390D01*
X147248476Y-82433390D02*
X147153238Y-82385771D01*
X147153238Y-82385771D02*
X146962762Y-82385771D01*
X146962762Y-82385771D02*
X146867524Y-82433390D01*
X146867524Y-82433390D02*
X146819905Y-82481009D01*
X146819905Y-82481009D02*
X146772286Y-82576247D01*
X107404761Y-73908019D02*
X107071428Y-73431828D01*
X106833333Y-73908019D02*
X106833333Y-72908019D01*
X106833333Y-72908019D02*
X107214285Y-72908019D01*
X107214285Y-72908019D02*
X107309523Y-72955638D01*
X107309523Y-72955638D02*
X107357142Y-73003257D01*
X107357142Y-73003257D02*
X107404761Y-73098495D01*
X107404761Y-73098495D02*
X107404761Y-73241352D01*
X107404761Y-73241352D02*
X107357142Y-73336590D01*
X107357142Y-73336590D02*
X107309523Y-73384209D01*
X107309523Y-73384209D02*
X107214285Y-73431828D01*
X107214285Y-73431828D02*
X106833333Y-73431828D01*
X107690476Y-72908019D02*
X108023809Y-73908019D01*
X108023809Y-73908019D02*
X108357142Y-72908019D01*
X109214285Y-73908019D02*
X108642857Y-73908019D01*
X108928571Y-73908019D02*
X108928571Y-72908019D01*
X108928571Y-72908019D02*
X108833333Y-73050876D01*
X108833333Y-73050876D02*
X108738095Y-73146114D01*
X108738095Y-73146114D02*
X108642857Y-73193733D01*
X107714285Y-75908019D02*
X107142857Y-75908019D01*
X107428571Y-75908019D02*
X107428571Y-74908019D01*
X107428571Y-74908019D02*
X107333333Y-75050876D01*
X107333333Y-75050876D02*
X107238095Y-75146114D01*
X107238095Y-75146114D02*
X107142857Y-75193733D01*
X108142857Y-75908019D02*
X108142857Y-74908019D01*
X108142857Y-74908019D02*
X108476190Y-75622304D01*
X108476190Y-75622304D02*
X108809523Y-74908019D01*
X108809523Y-74908019D02*
X108809523Y-75908019D01*
X147955133Y-67625819D02*
X147621800Y-67149628D01*
X147383705Y-67625819D02*
X147383705Y-66625819D01*
X147383705Y-66625819D02*
X147764657Y-66625819D01*
X147764657Y-66625819D02*
X147859895Y-66673438D01*
X147859895Y-66673438D02*
X147907514Y-66721057D01*
X147907514Y-66721057D02*
X147955133Y-66816295D01*
X147955133Y-66816295D02*
X147955133Y-66959152D01*
X147955133Y-66959152D02*
X147907514Y-67054390D01*
X147907514Y-67054390D02*
X147859895Y-67102009D01*
X147859895Y-67102009D02*
X147764657Y-67149628D01*
X147764657Y-67149628D02*
X147383705Y-67149628D01*
X148288467Y-66625819D02*
X148907514Y-66625819D01*
X148907514Y-66625819D02*
X148574181Y-67006771D01*
X148574181Y-67006771D02*
X148717038Y-67006771D01*
X148717038Y-67006771D02*
X148812276Y-67054390D01*
X148812276Y-67054390D02*
X148859895Y-67102009D01*
X148859895Y-67102009D02*
X148907514Y-67197247D01*
X148907514Y-67197247D02*
X148907514Y-67435342D01*
X148907514Y-67435342D02*
X148859895Y-67530580D01*
X148859895Y-67530580D02*
X148812276Y-67578200D01*
X148812276Y-67578200D02*
X148717038Y-67625819D01*
X148717038Y-67625819D02*
X148431324Y-67625819D01*
X148431324Y-67625819D02*
X148336086Y-67578200D01*
X148336086Y-67578200D02*
X148288467Y-67530580D01*
X137439533Y-67575019D02*
X137106200Y-67098828D01*
X136868105Y-67575019D02*
X136868105Y-66575019D01*
X136868105Y-66575019D02*
X137249057Y-66575019D01*
X137249057Y-66575019D02*
X137344295Y-66622638D01*
X137344295Y-66622638D02*
X137391914Y-66670257D01*
X137391914Y-66670257D02*
X137439533Y-66765495D01*
X137439533Y-66765495D02*
X137439533Y-66908352D01*
X137439533Y-66908352D02*
X137391914Y-67003590D01*
X137391914Y-67003590D02*
X137344295Y-67051209D01*
X137344295Y-67051209D02*
X137249057Y-67098828D01*
X137249057Y-67098828D02*
X136868105Y-67098828D01*
X137820486Y-66670257D02*
X137868105Y-66622638D01*
X137868105Y-66622638D02*
X137963343Y-66575019D01*
X137963343Y-66575019D02*
X138201438Y-66575019D01*
X138201438Y-66575019D02*
X138296676Y-66622638D01*
X138296676Y-66622638D02*
X138344295Y-66670257D01*
X138344295Y-66670257D02*
X138391914Y-66765495D01*
X138391914Y-66765495D02*
X138391914Y-66860733D01*
X138391914Y-66860733D02*
X138344295Y-67003590D01*
X138344295Y-67003590D02*
X137772867Y-67575019D01*
X137772867Y-67575019D02*
X138391914Y-67575019D01*
X156708333Y-67859580D02*
X156660714Y-67907200D01*
X156660714Y-67907200D02*
X156517857Y-67954819D01*
X156517857Y-67954819D02*
X156422619Y-67954819D01*
X156422619Y-67954819D02*
X156279762Y-67907200D01*
X156279762Y-67907200D02*
X156184524Y-67811961D01*
X156184524Y-67811961D02*
X156136905Y-67716723D01*
X156136905Y-67716723D02*
X156089286Y-67526247D01*
X156089286Y-67526247D02*
X156089286Y-67383390D01*
X156089286Y-67383390D02*
X156136905Y-67192914D01*
X156136905Y-67192914D02*
X156184524Y-67097676D01*
X156184524Y-67097676D02*
X156279762Y-67002438D01*
X156279762Y-67002438D02*
X156422619Y-66954819D01*
X156422619Y-66954819D02*
X156517857Y-66954819D01*
X156517857Y-66954819D02*
X156660714Y-67002438D01*
X156660714Y-67002438D02*
X156708333Y-67050057D01*
X157279762Y-67383390D02*
X157184524Y-67335771D01*
X157184524Y-67335771D02*
X157136905Y-67288152D01*
X157136905Y-67288152D02*
X157089286Y-67192914D01*
X157089286Y-67192914D02*
X157089286Y-67145295D01*
X157089286Y-67145295D02*
X157136905Y-67050057D01*
X157136905Y-67050057D02*
X157184524Y-67002438D01*
X157184524Y-67002438D02*
X157279762Y-66954819D01*
X157279762Y-66954819D02*
X157470238Y-66954819D01*
X157470238Y-66954819D02*
X157565476Y-67002438D01*
X157565476Y-67002438D02*
X157613095Y-67050057D01*
X157613095Y-67050057D02*
X157660714Y-67145295D01*
X157660714Y-67145295D02*
X157660714Y-67192914D01*
X157660714Y-67192914D02*
X157613095Y-67288152D01*
X157613095Y-67288152D02*
X157565476Y-67335771D01*
X157565476Y-67335771D02*
X157470238Y-67383390D01*
X157470238Y-67383390D02*
X157279762Y-67383390D01*
X157279762Y-67383390D02*
X157184524Y-67431009D01*
X157184524Y-67431009D02*
X157136905Y-67478628D01*
X157136905Y-67478628D02*
X157089286Y-67573866D01*
X157089286Y-67573866D02*
X157089286Y-67764342D01*
X157089286Y-67764342D02*
X157136905Y-67859580D01*
X157136905Y-67859580D02*
X157184524Y-67907200D01*
X157184524Y-67907200D02*
X157279762Y-67954819D01*
X157279762Y-67954819D02*
X157470238Y-67954819D01*
X157470238Y-67954819D02*
X157565476Y-67907200D01*
X157565476Y-67907200D02*
X157613095Y-67859580D01*
X157613095Y-67859580D02*
X157660714Y-67764342D01*
X157660714Y-67764342D02*
X157660714Y-67573866D01*
X157660714Y-67573866D02*
X157613095Y-67478628D01*
X157613095Y-67478628D02*
X157565476Y-67431009D01*
X157565476Y-67431009D02*
X157470238Y-67383390D01*
X133183333Y-97906819D02*
X132850000Y-97430628D01*
X132611905Y-97906819D02*
X132611905Y-96906819D01*
X132611905Y-96906819D02*
X132992857Y-96906819D01*
X132992857Y-96906819D02*
X133088095Y-96954438D01*
X133088095Y-96954438D02*
X133135714Y-97002057D01*
X133135714Y-97002057D02*
X133183333Y-97097295D01*
X133183333Y-97097295D02*
X133183333Y-97240152D01*
X133183333Y-97240152D02*
X133135714Y-97335390D01*
X133135714Y-97335390D02*
X133088095Y-97383009D01*
X133088095Y-97383009D02*
X132992857Y-97430628D01*
X132992857Y-97430628D02*
X132611905Y-97430628D01*
X134040476Y-96906819D02*
X133850000Y-96906819D01*
X133850000Y-96906819D02*
X133754762Y-96954438D01*
X133754762Y-96954438D02*
X133707143Y-97002057D01*
X133707143Y-97002057D02*
X133611905Y-97144914D01*
X133611905Y-97144914D02*
X133564286Y-97335390D01*
X133564286Y-97335390D02*
X133564286Y-97716342D01*
X133564286Y-97716342D02*
X133611905Y-97811580D01*
X133611905Y-97811580D02*
X133659524Y-97859200D01*
X133659524Y-97859200D02*
X133754762Y-97906819D01*
X133754762Y-97906819D02*
X133945238Y-97906819D01*
X133945238Y-97906819D02*
X134040476Y-97859200D01*
X134040476Y-97859200D02*
X134088095Y-97811580D01*
X134088095Y-97811580D02*
X134135714Y-97716342D01*
X134135714Y-97716342D02*
X134135714Y-97478247D01*
X134135714Y-97478247D02*
X134088095Y-97383009D01*
X134088095Y-97383009D02*
X134040476Y-97335390D01*
X134040476Y-97335390D02*
X133945238Y-97287771D01*
X133945238Y-97287771D02*
X133754762Y-97287771D01*
X133754762Y-97287771D02*
X133659524Y-97335390D01*
X133659524Y-97335390D02*
X133611905Y-97383009D01*
X133611905Y-97383009D02*
X133564286Y-97478247D01*
X120534133Y-83004819D02*
X120200800Y-82528628D01*
X119962705Y-83004819D02*
X119962705Y-82004819D01*
X119962705Y-82004819D02*
X120343657Y-82004819D01*
X120343657Y-82004819D02*
X120438895Y-82052438D01*
X120438895Y-82052438D02*
X120486514Y-82100057D01*
X120486514Y-82100057D02*
X120534133Y-82195295D01*
X120534133Y-82195295D02*
X120534133Y-82338152D01*
X120534133Y-82338152D02*
X120486514Y-82433390D01*
X120486514Y-82433390D02*
X120438895Y-82481009D01*
X120438895Y-82481009D02*
X120343657Y-82528628D01*
X120343657Y-82528628D02*
X119962705Y-82528628D01*
X121391276Y-82338152D02*
X121391276Y-83004819D01*
X121153181Y-81957200D02*
X120915086Y-82671485D01*
X120915086Y-82671485D02*
X121534133Y-82671485D01*
D16*
%TO.C,R7*%
X141205200Y-98452000D02*
X147745200Y-98452000D01*
X141205200Y-98782000D02*
X141205200Y-98452000D01*
X141205200Y-100862000D02*
X141205200Y-101192000D01*
X141205200Y-101192000D02*
X147745200Y-101192000D01*
X147745200Y-98452000D02*
X147745200Y-98782000D01*
X147745200Y-101192000D02*
X147745200Y-100862000D01*
D13*
%TO.C,SW2*%
X151560400Y-73095600D02*
X151560400Y-80095600D01*
X151560400Y-80095600D02*
X158560400Y-80095600D01*
X158560400Y-73095600D02*
X151560400Y-73095600D01*
X158560400Y-80095600D02*
X158560400Y-73095600D01*
D16*
%TO.C,D1*%
X153320000Y-98030000D02*
X153320000Y-101120000D01*
X153320000Y-98030170D02*
G75*
G02*
X158870000Y-99574952I2560000J-1544830D01*
G01*
X158870000Y-99575048D02*
G75*
G02*
X153320000Y-101119830I-2990000J48D01*
G01*
X158380000Y-99575000D02*
G75*
G02*
X153380000Y-99575000I-2500000J0D01*
G01*
X153380000Y-99575000D02*
G75*
G02*
X158380000Y-99575000I2500000J0D01*
G01*
%TO.C,U3*%
X115967200Y-88835800D02*
X115967200Y-90485800D01*
X115967200Y-92485800D02*
X115967200Y-94135800D01*
X115967200Y-94135800D02*
X133867200Y-94135800D01*
X133867200Y-88835800D02*
X115967200Y-88835800D01*
X133867200Y-94135800D02*
X133867200Y-88835800D01*
X115967200Y-90485800D02*
G75*
G02*
X115967200Y-92485800I0J-1000000D01*
G01*
%TO.C,R1*%
X116211600Y-68124400D02*
X122751600Y-68124400D01*
X116211600Y-68454400D02*
X116211600Y-68124400D01*
X116211600Y-70534400D02*
X116211600Y-70864400D01*
X116211600Y-70864400D02*
X122751600Y-70864400D01*
X122751600Y-68124400D02*
X122751600Y-68454400D01*
X122751600Y-70864400D02*
X122751600Y-70534400D01*
%TO.C,J1*%
X105664900Y-90909800D02*
X104034900Y-90909800D01*
X105664900Y-100109800D02*
X104034900Y-100109800D01*
%TO.C,R5*%
X119005600Y-98401200D02*
X125545600Y-98401200D01*
X119005600Y-98731200D02*
X119005600Y-98401200D01*
X119005600Y-100811200D02*
X119005600Y-101141200D01*
X119005600Y-101141200D02*
X125545600Y-101141200D01*
X125545600Y-98401200D02*
X125545600Y-98731200D01*
X125545600Y-101141200D02*
X125545600Y-100811200D01*
%TO.C,U2*%
X138928800Y-73753200D02*
X138928800Y-75403200D01*
X138928800Y-77403200D02*
X138928800Y-79053200D01*
X138928800Y-79053200D02*
X149208800Y-79053200D01*
X149208800Y-73753200D02*
X138928800Y-73753200D01*
X149208800Y-79053200D02*
X149208800Y-73753200D01*
X138928800Y-75403200D02*
G75*
G02*
X138928800Y-77403200I0J-1000000D01*
G01*
%TO.C,U1*%
X116056400Y-74092000D02*
X116056400Y-75742000D01*
X116056400Y-77742000D02*
X116056400Y-79392000D01*
X116056400Y-79392000D02*
X126336400Y-79392000D01*
X126336400Y-74092000D02*
X116056400Y-74092000D01*
X126336400Y-79392000D02*
X126336400Y-74092000D01*
X116056400Y-75742000D02*
G75*
G02*
X116056400Y-77742000I0J-1000000D01*
G01*
%TO.C,C5*%
X136160000Y-83461200D02*
X140700000Y-83461200D01*
X136160000Y-85545200D02*
X136160000Y-85601200D01*
X136160000Y-85601200D02*
X140700000Y-85601200D01*
X140700000Y-85545200D02*
X140700000Y-85601200D01*
%TO.C,SW1*%
X128783200Y-76110400D02*
X128783200Y-77610400D01*
X130033200Y-80110400D02*
X134533200Y-80110400D01*
X134533200Y-73610400D02*
X130033200Y-73610400D01*
X135783200Y-77610400D02*
X135783200Y-76110400D01*
%TO.C,R8*%
X152228800Y-89917600D02*
X158768800Y-89917600D01*
X152228800Y-90247600D02*
X152228800Y-89917600D01*
X152228800Y-92327600D02*
X152228800Y-92657600D01*
X152228800Y-92657600D02*
X158768800Y-92657600D01*
X158768800Y-89917600D02*
X158768800Y-90247600D01*
X158768800Y-92657600D02*
X158768800Y-92327600D01*
%TO.C,C2*%
X109693200Y-98300000D02*
X109693200Y-98244000D01*
X114233200Y-98244000D02*
X109693200Y-98244000D01*
X114233200Y-98300000D02*
X114233200Y-98244000D01*
X114233200Y-100384000D02*
X109693200Y-100384000D01*
%TO.C,U4*%
X138878000Y-88988200D02*
X138878000Y-90638200D01*
X138878000Y-92638200D02*
X138878000Y-94288200D01*
X138878000Y-94288200D02*
X149158000Y-94288200D01*
X149158000Y-88988200D02*
X138878000Y-88988200D01*
X149158000Y-94288200D02*
X149158000Y-88988200D01*
X138878000Y-90638200D02*
G75*
G02*
X138878000Y-92638200I0J-1000000D01*
G01*
%TO.C,C7*%
X109174425Y-84631000D02*
X109674425Y-84631000D01*
X109424425Y-84381000D02*
X109424425Y-84881000D01*
X111979200Y-83526000D02*
X111979200Y-85066000D01*
X111979200Y-87146000D02*
X111979200Y-88686000D01*
X112019200Y-83526000D02*
X112019200Y-85066000D01*
X112019200Y-87146000D02*
X112019200Y-88686000D01*
X112059200Y-83527000D02*
X112059200Y-85066000D01*
X112059200Y-87146000D02*
X112059200Y-88685000D01*
X112099200Y-83529000D02*
X112099200Y-85066000D01*
X112099200Y-87146000D02*
X112099200Y-88683000D01*
X112139200Y-83531000D02*
X112139200Y-85066000D01*
X112139200Y-87146000D02*
X112139200Y-88681000D01*
X112179200Y-83534000D02*
X112179200Y-85066000D01*
X112179200Y-87146000D02*
X112179200Y-88678000D01*
X112219200Y-83537000D02*
X112219200Y-85066000D01*
X112219200Y-87146000D02*
X112219200Y-88675000D01*
X112259200Y-83541000D02*
X112259200Y-85066000D01*
X112259200Y-87146000D02*
X112259200Y-88671000D01*
X112299200Y-83546000D02*
X112299200Y-85066000D01*
X112299200Y-87146000D02*
X112299200Y-88666000D01*
X112339200Y-83551000D02*
X112339200Y-85066000D01*
X112339200Y-87146000D02*
X112339200Y-88661000D01*
X112379200Y-83557000D02*
X112379200Y-85066000D01*
X112379200Y-87146000D02*
X112379200Y-88655000D01*
X112419200Y-83563000D02*
X112419200Y-85066000D01*
X112419200Y-87146000D02*
X112419200Y-88649000D01*
X112459200Y-83570000D02*
X112459200Y-85066000D01*
X112459200Y-87146000D02*
X112459200Y-88642000D01*
X112499200Y-83578000D02*
X112499200Y-85066000D01*
X112499200Y-87146000D02*
X112499200Y-88634000D01*
X112539200Y-83587000D02*
X112539200Y-85066000D01*
X112539200Y-87146000D02*
X112539200Y-88625000D01*
X112579200Y-83596000D02*
X112579200Y-85066000D01*
X112579200Y-87146000D02*
X112579200Y-88616000D01*
X112619200Y-83605000D02*
X112619200Y-85066000D01*
X112619200Y-87146000D02*
X112619200Y-88607000D01*
X112659200Y-83616000D02*
X112659200Y-85066000D01*
X112659200Y-87146000D02*
X112659200Y-88596000D01*
X112699200Y-83627000D02*
X112699200Y-85066000D01*
X112699200Y-87146000D02*
X112699200Y-88585000D01*
X112739200Y-83639000D02*
X112739200Y-85066000D01*
X112739200Y-87146000D02*
X112739200Y-88573000D01*
X112779200Y-83651000D02*
X112779200Y-85066000D01*
X112779200Y-87146000D02*
X112779200Y-88561000D01*
X112819200Y-83664000D02*
X112819200Y-85066000D01*
X112819200Y-87146000D02*
X112819200Y-88548000D01*
X112859200Y-83678000D02*
X112859200Y-85066000D01*
X112859200Y-87146000D02*
X112859200Y-88534000D01*
X112899200Y-83693000D02*
X112899200Y-85066000D01*
X112899200Y-87146000D02*
X112899200Y-88519000D01*
X112939200Y-83708000D02*
X112939200Y-85066000D01*
X112939200Y-87146000D02*
X112939200Y-88504000D01*
X112979200Y-83724000D02*
X112979200Y-85066000D01*
X112979200Y-87146000D02*
X112979200Y-88488000D01*
X113019200Y-83741000D02*
X113019200Y-85066000D01*
X113019200Y-87146000D02*
X113019200Y-88471000D01*
X113059200Y-83759000D02*
X113059200Y-85066000D01*
X113059200Y-87146000D02*
X113059200Y-88453000D01*
X113099200Y-83777000D02*
X113099200Y-85066000D01*
X113099200Y-87146000D02*
X113099200Y-88435000D01*
X113139200Y-83797000D02*
X113139200Y-85066000D01*
X113139200Y-87146000D02*
X113139200Y-88415000D01*
X113179200Y-83817000D02*
X113179200Y-85066000D01*
X113179200Y-87146000D02*
X113179200Y-88395000D01*
X113219200Y-83838000D02*
X113219200Y-85066000D01*
X113219200Y-87146000D02*
X113219200Y-88374000D01*
X113259200Y-83860000D02*
X113259200Y-85066000D01*
X113259200Y-87146000D02*
X113259200Y-88352000D01*
X113299200Y-83883000D02*
X113299200Y-85066000D01*
X113299200Y-87146000D02*
X113299200Y-88329000D01*
X113339200Y-83907000D02*
X113339200Y-85066000D01*
X113339200Y-87146000D02*
X113339200Y-88305000D01*
X113379200Y-83931000D02*
X113379200Y-85066000D01*
X113379200Y-87146000D02*
X113379200Y-88281000D01*
X113419200Y-83957000D02*
X113419200Y-85066000D01*
X113419200Y-87146000D02*
X113419200Y-88255000D01*
X113459200Y-83984000D02*
X113459200Y-85066000D01*
X113459200Y-87146000D02*
X113459200Y-88228000D01*
X113499200Y-84012000D02*
X113499200Y-85066000D01*
X113499200Y-87146000D02*
X113499200Y-88200000D01*
X113539200Y-84041000D02*
X113539200Y-85066000D01*
X113539200Y-87146000D02*
X113539200Y-88171000D01*
X113579200Y-84071000D02*
X113579200Y-85066000D01*
X113579200Y-87146000D02*
X113579200Y-88141000D01*
X113619200Y-84103000D02*
X113619200Y-85066000D01*
X113619200Y-87146000D02*
X113619200Y-88109000D01*
X113659200Y-84136000D02*
X113659200Y-85066000D01*
X113659200Y-87146000D02*
X113659200Y-88076000D01*
X113699200Y-84170000D02*
X113699200Y-85066000D01*
X113699200Y-87146000D02*
X113699200Y-88042000D01*
X113739200Y-84205000D02*
X113739200Y-85066000D01*
X113739200Y-87146000D02*
X113739200Y-88007000D01*
X113779200Y-84242000D02*
X113779200Y-85066000D01*
X113779200Y-87146000D02*
X113779200Y-87970000D01*
X113819200Y-84281000D02*
X113819200Y-85066000D01*
X113819200Y-87146000D02*
X113819200Y-87931000D01*
X113859200Y-84321000D02*
X113859200Y-85066000D01*
X113859200Y-87146000D02*
X113859200Y-87891000D01*
X113899200Y-84363000D02*
X113899200Y-85066000D01*
X113899200Y-87146000D02*
X113899200Y-87849000D01*
X113939200Y-84407000D02*
X113939200Y-85066000D01*
X113939200Y-87146000D02*
X113939200Y-87805000D01*
X113979200Y-84454000D02*
X113979200Y-85066000D01*
X113979200Y-87146000D02*
X113979200Y-87758000D01*
X114019200Y-84502000D02*
X114019200Y-87710000D01*
X114059200Y-84553000D02*
X114059200Y-87659000D01*
X114099200Y-84607000D02*
X114099200Y-87605000D01*
X114139200Y-84663000D02*
X114139200Y-87549000D01*
X114179200Y-84723000D02*
X114179200Y-87489000D01*
X114219200Y-84787000D02*
X114219200Y-87425000D01*
X114259200Y-84855000D02*
X114259200Y-87357000D01*
X114299200Y-84929000D02*
X114299200Y-87283000D01*
X114339200Y-85008000D02*
X114339200Y-87204000D01*
X114379200Y-85095000D02*
X114379200Y-87117000D01*
X114419200Y-85192000D02*
X114419200Y-87020000D01*
X114459200Y-85301000D02*
X114459200Y-86911000D01*
X114499200Y-85429000D02*
X114499200Y-86783000D01*
X114539200Y-85589000D02*
X114539200Y-86623000D01*
X114579200Y-85823000D02*
X114579200Y-86389000D01*
X114599200Y-86106000D02*
G75*
G02*
X109359200Y-86106000I-2620000J0D01*
G01*
X109359200Y-86106000D02*
G75*
G02*
X114599200Y-86106000I2620000J0D01*
G01*
%TO.C,C4*%
X126152400Y-68475200D02*
X130692400Y-68475200D01*
X126152400Y-70559200D02*
X126152400Y-70615200D01*
X126152400Y-70615200D02*
X130692400Y-70615200D01*
X130692400Y-70559200D02*
X130692400Y-70615200D01*
%TO.C,C3*%
X109529199Y-94194800D02*
X109529199Y-94138800D01*
X114069199Y-94138800D02*
X109529199Y-94138800D01*
X114069199Y-94194800D02*
X114069199Y-94138800D01*
X114069199Y-96278800D02*
X109529199Y-96278800D01*
%TO.C,C1*%
X100843225Y-83615000D02*
X101343225Y-83615000D01*
X101093225Y-83365000D02*
X101093225Y-83865000D01*
X103648000Y-82510000D02*
X103648000Y-84050000D01*
X103648000Y-86130000D02*
X103648000Y-87670000D01*
X103688000Y-82510000D02*
X103688000Y-84050000D01*
X103688000Y-86130000D02*
X103688000Y-87670000D01*
X103728000Y-82511000D02*
X103728000Y-84050000D01*
X103728000Y-86130000D02*
X103728000Y-87669000D01*
X103768000Y-82513000D02*
X103768000Y-84050000D01*
X103768000Y-86130000D02*
X103768000Y-87667000D01*
X103808000Y-82515000D02*
X103808000Y-84050000D01*
X103808000Y-86130000D02*
X103808000Y-87665000D01*
X103848000Y-82518000D02*
X103848000Y-84050000D01*
X103848000Y-86130000D02*
X103848000Y-87662000D01*
X103888000Y-82521000D02*
X103888000Y-84050000D01*
X103888000Y-86130000D02*
X103888000Y-87659000D01*
X103928000Y-82525000D02*
X103928000Y-84050000D01*
X103928000Y-86130000D02*
X103928000Y-87655000D01*
X103968000Y-82530000D02*
X103968000Y-84050000D01*
X103968000Y-86130000D02*
X103968000Y-87650000D01*
X104008000Y-82535000D02*
X104008000Y-84050000D01*
X104008000Y-86130000D02*
X104008000Y-87645000D01*
X104048000Y-82541000D02*
X104048000Y-84050000D01*
X104048000Y-86130000D02*
X104048000Y-87639000D01*
X104088000Y-82547000D02*
X104088000Y-84050000D01*
X104088000Y-86130000D02*
X104088000Y-87633000D01*
X104128000Y-82554000D02*
X104128000Y-84050000D01*
X104128000Y-86130000D02*
X104128000Y-87626000D01*
X104168000Y-82562000D02*
X104168000Y-84050000D01*
X104168000Y-86130000D02*
X104168000Y-87618000D01*
X104208000Y-82571000D02*
X104208000Y-84050000D01*
X104208000Y-86130000D02*
X104208000Y-87609000D01*
X104248000Y-82580000D02*
X104248000Y-84050000D01*
X104248000Y-86130000D02*
X104248000Y-87600000D01*
X104288000Y-82589000D02*
X104288000Y-84050000D01*
X104288000Y-86130000D02*
X104288000Y-87591000D01*
X104328000Y-82600000D02*
X104328000Y-84050000D01*
X104328000Y-86130000D02*
X104328000Y-87580000D01*
X104368000Y-82611000D02*
X104368000Y-84050000D01*
X104368000Y-86130000D02*
X104368000Y-87569000D01*
X104408000Y-82623000D02*
X104408000Y-84050000D01*
X104408000Y-86130000D02*
X104408000Y-87557000D01*
X104448000Y-82635000D02*
X104448000Y-84050000D01*
X104448000Y-86130000D02*
X104448000Y-87545000D01*
X104488000Y-82648000D02*
X104488000Y-84050000D01*
X104488000Y-86130000D02*
X104488000Y-87532000D01*
X104528000Y-82662000D02*
X104528000Y-84050000D01*
X104528000Y-86130000D02*
X104528000Y-87518000D01*
X104568000Y-82677000D02*
X104568000Y-84050000D01*
X104568000Y-86130000D02*
X104568000Y-87503000D01*
X104608000Y-82692000D02*
X104608000Y-84050000D01*
X104608000Y-86130000D02*
X104608000Y-87488000D01*
X104648000Y-82708000D02*
X104648000Y-84050000D01*
X104648000Y-86130000D02*
X104648000Y-87472000D01*
X104688000Y-82725000D02*
X104688000Y-84050000D01*
X104688000Y-86130000D02*
X104688000Y-87455000D01*
X104728000Y-82743000D02*
X104728000Y-84050000D01*
X104728000Y-86130000D02*
X104728000Y-87437000D01*
X104768000Y-82761000D02*
X104768000Y-84050000D01*
X104768000Y-86130000D02*
X104768000Y-87419000D01*
X104808000Y-82781000D02*
X104808000Y-84050000D01*
X104808000Y-86130000D02*
X104808000Y-87399000D01*
X104848000Y-82801000D02*
X104848000Y-84050000D01*
X104848000Y-86130000D02*
X104848000Y-87379000D01*
X104888000Y-82822000D02*
X104888000Y-84050000D01*
X104888000Y-86130000D02*
X104888000Y-87358000D01*
X104928000Y-82844000D02*
X104928000Y-84050000D01*
X104928000Y-86130000D02*
X104928000Y-87336000D01*
X104968000Y-82867000D02*
X104968000Y-84050000D01*
X104968000Y-86130000D02*
X104968000Y-87313000D01*
X105008000Y-82891000D02*
X105008000Y-84050000D01*
X105008000Y-86130000D02*
X105008000Y-87289000D01*
X105048000Y-82915000D02*
X105048000Y-84050000D01*
X105048000Y-86130000D02*
X105048000Y-87265000D01*
X105088000Y-82941000D02*
X105088000Y-84050000D01*
X105088000Y-86130000D02*
X105088000Y-87239000D01*
X105128000Y-82968000D02*
X105128000Y-84050000D01*
X105128000Y-86130000D02*
X105128000Y-87212000D01*
X105168000Y-82996000D02*
X105168000Y-84050000D01*
X105168000Y-86130000D02*
X105168000Y-87184000D01*
X105208000Y-83025000D02*
X105208000Y-84050000D01*
X105208000Y-86130000D02*
X105208000Y-87155000D01*
X105248000Y-83055000D02*
X105248000Y-84050000D01*
X105248000Y-86130000D02*
X105248000Y-87125000D01*
X105288000Y-83087000D02*
X105288000Y-84050000D01*
X105288000Y-86130000D02*
X105288000Y-87093000D01*
X105328000Y-83120000D02*
X105328000Y-84050000D01*
X105328000Y-86130000D02*
X105328000Y-87060000D01*
X105368000Y-83154000D02*
X105368000Y-84050000D01*
X105368000Y-86130000D02*
X105368000Y-87026000D01*
X105408000Y-83189000D02*
X105408000Y-84050000D01*
X105408000Y-86130000D02*
X105408000Y-86991000D01*
X105448000Y-83226000D02*
X105448000Y-84050000D01*
X105448000Y-86130000D02*
X105448000Y-86954000D01*
X105488000Y-83265000D02*
X105488000Y-84050000D01*
X105488000Y-86130000D02*
X105488000Y-86915000D01*
X105528000Y-83305000D02*
X105528000Y-84050000D01*
X105528000Y-86130000D02*
X105528000Y-86875000D01*
X105568000Y-83347000D02*
X105568000Y-84050000D01*
X105568000Y-86130000D02*
X105568000Y-86833000D01*
X105608000Y-83391000D02*
X105608000Y-84050000D01*
X105608000Y-86130000D02*
X105608000Y-86789000D01*
X105648000Y-83438000D02*
X105648000Y-84050000D01*
X105648000Y-86130000D02*
X105648000Y-86742000D01*
X105688000Y-83486000D02*
X105688000Y-86694000D01*
X105728000Y-83537000D02*
X105728000Y-86643000D01*
X105768000Y-83591000D02*
X105768000Y-86589000D01*
X105808000Y-83647000D02*
X105808000Y-86533000D01*
X105848000Y-83707000D02*
X105848000Y-86473000D01*
X105888000Y-83771000D02*
X105888000Y-86409000D01*
X105928000Y-83839000D02*
X105928000Y-86341000D01*
X105968000Y-83913000D02*
X105968000Y-86267000D01*
X106008000Y-83992000D02*
X106008000Y-86188000D01*
X106048000Y-84079000D02*
X106048000Y-86101000D01*
X106088000Y-84176000D02*
X106088000Y-86004000D01*
X106128000Y-84285000D02*
X106128000Y-85895000D01*
X106168000Y-84413000D02*
X106168000Y-85767000D01*
X106208000Y-84573000D02*
X106208000Y-85607000D01*
X106248000Y-84807000D02*
X106248000Y-85373000D01*
X106268000Y-85090000D02*
G75*
G02*
X101028000Y-85090000I-2620000J0D01*
G01*
X101028000Y-85090000D02*
G75*
G02*
X106268000Y-85090000I2620000J0D01*
G01*
%TO.C,R9*%
X152228800Y-84939200D02*
X158768800Y-84939200D01*
X152228800Y-85269200D02*
X152228800Y-84939200D01*
X152228800Y-87349200D02*
X152228800Y-87679200D01*
X152228800Y-87679200D02*
X158768800Y-87679200D01*
X158768800Y-84939200D02*
X158768800Y-85269200D01*
X158768800Y-87679200D02*
X158768800Y-87349200D01*
%TO.C,C6*%
X144248000Y-83461200D02*
X148788000Y-83461200D01*
X144248000Y-85545200D02*
X144248000Y-85601200D01*
X144248000Y-85601200D02*
X148788000Y-85601200D01*
X148788000Y-85545200D02*
X148788000Y-85601200D01*
%TO.C,RV1*%
X101840000Y-69493200D02*
X101840000Y-71257200D01*
X101840000Y-69493200D02*
X105585000Y-69493200D01*
X101840000Y-72649200D02*
X101840000Y-73757200D01*
X101840000Y-75149200D02*
X101840000Y-76257200D01*
X101840000Y-77649200D02*
X101840000Y-79413200D01*
X101840000Y-79413200D02*
X105585000Y-79413200D01*
X110315000Y-69493200D02*
X114060000Y-69493200D01*
X110315000Y-79413200D02*
X114060000Y-79413200D01*
X114060000Y-69493200D02*
X114060000Y-79413200D01*
%TO.C,R3*%
X144851800Y-68171000D02*
X151391800Y-68171000D01*
X144851800Y-68501000D02*
X144851800Y-68171000D01*
X144851800Y-70581000D02*
X144851800Y-70911000D01*
X144851800Y-70911000D02*
X151391800Y-70911000D01*
X151391800Y-68171000D02*
X151391800Y-68501000D01*
X151391800Y-70911000D02*
X151391800Y-70581000D01*
%TO.C,R2*%
X134336200Y-68120200D02*
X140876200Y-68120200D01*
X134336200Y-68450200D02*
X134336200Y-68120200D01*
X134336200Y-70530200D02*
X134336200Y-70860200D01*
X134336200Y-70860200D02*
X140876200Y-70860200D01*
X140876200Y-68120200D02*
X140876200Y-68450200D01*
X140876200Y-70860200D02*
X140876200Y-70530200D01*
%TO.C,C8*%
X154580000Y-68430000D02*
X159120000Y-68430000D01*
X154580000Y-70514000D02*
X154580000Y-70570000D01*
X154580000Y-70570000D02*
X159120000Y-70570000D01*
X159120000Y-70514000D02*
X159120000Y-70570000D01*
%TO.C,R6*%
X130080000Y-98452000D02*
X136620000Y-98452000D01*
X130080000Y-98782000D02*
X130080000Y-98452000D01*
X130080000Y-100862000D02*
X130080000Y-101192000D01*
X130080000Y-101192000D02*
X136620000Y-101192000D01*
X136620000Y-98452000D02*
X136620000Y-98782000D01*
X136620000Y-101192000D02*
X136620000Y-100862000D01*
%TO.C,R4*%
X117329200Y-83313600D02*
X123869200Y-83313600D01*
X117329200Y-83643600D02*
X117329200Y-83313600D01*
X117329200Y-85723600D02*
X117329200Y-86053600D01*
X117329200Y-86053600D02*
X123869200Y-86053600D01*
X123869200Y-83313600D02*
X123869200Y-83643600D01*
X123869200Y-86053600D02*
X123869200Y-85723600D01*
%TD*%
M02*
