M48
; DRILL file {KiCad 9.0.1} date 2025-05-04T07:23:14+0200
; FORMAT={-:-/ absolute / metric / decimal}
; #@! TF.CreationDate,2025-05-04T07:23:14+02:00
; #@! TF.GenerationSoftware,Kicad,Pcbnew,9.0.1
; #@! TF.FileFunction,Plated,1,2,PTH
FMAT,2
METRIC
; #@! TA.AperFunction,Plated,PTH,ViaDrill
T1C0.300
; #@! TA.AperFunction,Plated,PTH,ComponentDrill
T2C0.762
; #@! TA.AperFunction,Plated,PTH,ComponentDrill
T3C0.800
; #@! TA.AperFunction,Plated,PTH,ComponentDrill
T4C0.900
; #@! TA.AperFunction,Plated,PTH,ComponentDrill
T5C1.000
; #@! TA.AperFunction,Plated,PTH,ComponentDrill
T6C1.100
; #@! TA.AperFunction,Plated,PTH,ComponentDrill
T7C2.200
%
G90
G05
T1
X114.675Y-81.05
X115.475Y-78.425
X134.425Y-89.575
X141.375Y-77.375
X141.65Y-92.35
X145.075Y-81.625
X145.275Y-78.9
X145.65Y-93.0
T2
X153.06Y-74.096
X153.06Y-79.096
X155.06Y-74.096
X155.06Y-79.096
X157.06Y-74.096
X157.06Y-79.096
T3
X102.648Y-85.09
X104.648Y-85.09
X109.299Y-95.209
X109.463Y-99.314
X110.979Y-86.106
X112.979Y-86.106
X114.299Y-95.209
X114.463Y-99.314
X115.672Y-69.494
X116.789Y-84.684
X117.297Y-87.676
X117.297Y-95.296
X117.386Y-72.932
X117.386Y-80.552
X118.466Y-99.771
X119.837Y-87.676
X119.837Y-95.296
X119.926Y-72.932
X119.926Y-80.552
X122.377Y-87.676
X122.377Y-95.296
X122.466Y-72.932
X122.466Y-80.552
X123.292Y-69.494
X124.409Y-84.684
X124.917Y-87.676
X124.917Y-95.296
X125.006Y-72.932
X125.006Y-80.552
X125.922Y-69.545
X126.086Y-99.771
X127.457Y-87.676
X127.457Y-95.296
X129.54Y-99.822
X129.997Y-87.676
X129.997Y-95.296
X130.922Y-69.545
X132.537Y-87.676
X132.537Y-95.296
X133.796Y-69.49
X135.93Y-84.531
X137.16Y-99.822
X140.208Y-87.828
X140.208Y-95.448
X140.259Y-72.593
X140.259Y-80.213
X140.665Y-99.822
X140.93Y-84.531
X141.416Y-69.49
X142.748Y-87.828
X142.748Y-95.448
X142.799Y-72.593
X142.799Y-80.213
X144.018Y-84.531
X144.312Y-69.541
X145.288Y-87.828
X145.288Y-95.448
X145.339Y-72.593
X145.339Y-80.213
X147.828Y-87.828
X147.828Y-95.448
X147.879Y-72.593
X147.879Y-80.213
X148.285Y-99.822
X149.018Y-84.531
X151.689Y-86.309
X151.689Y-91.288
X151.932Y-69.541
X154.35Y-69.5
X159.309Y-86.309
X159.309Y-91.288
X159.35Y-69.5
T4
X154.61Y-99.575
X157.15Y-99.575
T5
X100.95Y-71.953
X100.95Y-74.453
X100.95Y-76.953
T6
X129.033Y-74.61
X129.033Y-79.11
X135.533Y-74.61
X135.533Y-79.11
T7
X107.95Y-70.053
X107.95Y-78.853
M30
