%TF.GenerationSoftware,KiCad,Pcbnew,9.0.1*%
%TF.CreationDate,2025-05-04T07:23:12+02:00*%
%TF.ProjectId,clock-module,636c6f63-6b2d-46d6-9f64-756c652e6b69,rev?*%
%TF.SameCoordinates,Original*%
%TF.FileFunction,Legend,Bot*%
%TF.FilePolarity,Positive*%
%FSLAX46Y46*%
G04 Gerber Fmt 4.6, Leading zero omitted, Abs format (unit mm)*
G04 Created by KiCad (PCBNEW 9.0.1) date 2025-05-04 07:23:12*
%MOMM*%
%LPD*%
G01*
G04 APERTURE LIST*
%ADD10C,0.000000*%
G04 APERTURE END LIST*
D10*
G36*
X129658882Y-82362924D02*
G01*
X129664206Y-82363526D01*
X129669428Y-82364486D01*
X129674533Y-82365791D01*
X129679508Y-82367430D01*
X129684339Y-82369389D01*
X129689013Y-82371656D01*
X129693515Y-82374219D01*
X129697833Y-82377064D01*
X129701951Y-82380179D01*
X129705857Y-82383552D01*
X129709537Y-82387170D01*
X129712977Y-82391020D01*
X129716162Y-82395090D01*
X129719080Y-82399367D01*
X129721717Y-82403839D01*
X129724059Y-82408493D01*
X129726091Y-82413316D01*
X129727801Y-82418295D01*
X129729175Y-82423419D01*
X129730198Y-82428675D01*
X129730858Y-82434049D01*
X129731140Y-82439530D01*
X129731030Y-82445105D01*
X129730515Y-82450761D01*
X129729581Y-82456485D01*
X129728215Y-82462266D01*
X129727079Y-82466135D01*
X129725761Y-82469901D01*
X129724266Y-82473561D01*
X129722600Y-82477111D01*
X129720769Y-82480549D01*
X129718779Y-82483869D01*
X129716637Y-82487069D01*
X129714349Y-82490146D01*
X129711920Y-82493096D01*
X129709357Y-82495915D01*
X129706666Y-82498600D01*
X129703853Y-82501147D01*
X129700925Y-82503553D01*
X129697886Y-82505815D01*
X129694744Y-82507929D01*
X129691504Y-82509891D01*
X129688172Y-82511698D01*
X129684756Y-82513346D01*
X129681260Y-82514833D01*
X129677691Y-82516154D01*
X129674055Y-82517306D01*
X129670358Y-82518286D01*
X129666606Y-82519089D01*
X129662805Y-82519713D01*
X129658962Y-82520155D01*
X129655082Y-82520410D01*
X129651171Y-82520474D01*
X129647237Y-82520346D01*
X129643284Y-82520021D01*
X129639319Y-82519495D01*
X129635348Y-82518765D01*
X129631377Y-82517828D01*
X129624637Y-82515702D01*
X129618307Y-82513112D01*
X129612389Y-82510088D01*
X129606884Y-82506661D01*
X129601793Y-82502860D01*
X129597118Y-82498714D01*
X129592859Y-82494254D01*
X129589019Y-82489510D01*
X129585598Y-82484510D01*
X129582598Y-82479285D01*
X129580019Y-82473864D01*
X129577864Y-82468278D01*
X129576133Y-82462555D01*
X129574828Y-82456727D01*
X129573950Y-82450821D01*
X129573500Y-82444869D01*
X129573479Y-82438900D01*
X129573889Y-82432944D01*
X129574731Y-82427030D01*
X129576006Y-82421188D01*
X129577715Y-82415448D01*
X129579861Y-82409840D01*
X129582443Y-82404393D01*
X129585464Y-82399138D01*
X129588924Y-82394103D01*
X129592825Y-82389319D01*
X129597167Y-82384816D01*
X129601954Y-82380622D01*
X129607184Y-82376769D01*
X129612861Y-82373285D01*
X129618984Y-82370200D01*
X129625556Y-82367545D01*
X129631206Y-82365732D01*
X129636836Y-82364353D01*
X129642433Y-82363396D01*
X129647982Y-82362847D01*
X129653470Y-82362694D01*
X129658882Y-82362924D01*
G37*
G36*
X129635491Y-83124485D02*
G01*
X129638271Y-83124804D01*
X129641134Y-83125394D01*
X129644074Y-83126253D01*
X129647087Y-83127377D01*
X129650168Y-83128761D01*
X129653313Y-83130403D01*
X129659774Y-83134443D01*
X129666434Y-83139467D01*
X129673256Y-83145446D01*
X129680201Y-83152351D01*
X129687233Y-83160152D01*
X129694315Y-83168819D01*
X129701409Y-83178324D01*
X129708478Y-83188636D01*
X129715486Y-83199727D01*
X129722394Y-83211566D01*
X129732787Y-83232144D01*
X129741743Y-83254326D01*
X129749264Y-83278016D01*
X129755351Y-83303120D01*
X129760005Y-83329541D01*
X129763229Y-83357185D01*
X129765023Y-83385956D01*
X129765389Y-83415758D01*
X129764329Y-83446497D01*
X129761844Y-83478077D01*
X129757936Y-83510402D01*
X129752606Y-83543378D01*
X129745856Y-83576909D01*
X129737688Y-83610900D01*
X129728103Y-83645254D01*
X129717102Y-83679878D01*
X129708233Y-83705200D01*
X129698038Y-83732260D01*
X129686730Y-83760625D01*
X129674521Y-83789862D01*
X129648251Y-83849226D01*
X129620926Y-83906891D01*
X129594247Y-83959396D01*
X129581680Y-83982633D01*
X129569911Y-84003282D01*
X129559153Y-84020911D01*
X129549619Y-84035087D01*
X129541520Y-84045379D01*
X129538075Y-84048933D01*
X129535069Y-84051353D01*
X129532993Y-84052655D01*
X129531111Y-84053783D01*
X129529396Y-84054736D01*
X129527818Y-84055512D01*
X129527071Y-84055834D01*
X129526348Y-84056112D01*
X129525645Y-84056345D01*
X129524958Y-84056534D01*
X129524284Y-84056679D01*
X129523619Y-84056778D01*
X129522960Y-84056833D01*
X129522303Y-84056843D01*
X129521644Y-84056808D01*
X129520980Y-84056728D01*
X129520308Y-84056603D01*
X129519623Y-84056433D01*
X129518922Y-84056217D01*
X129518202Y-84055956D01*
X129517459Y-84055649D01*
X129516689Y-84055297D01*
X129515054Y-84054455D01*
X129513271Y-84053429D01*
X129511309Y-84052219D01*
X129509140Y-84050824D01*
X129507770Y-84049883D01*
X129506444Y-84048854D01*
X129505168Y-84047747D01*
X129503947Y-84046574D01*
X129502789Y-84045345D01*
X129501698Y-84044071D01*
X129500682Y-84042763D01*
X129499747Y-84041431D01*
X129498898Y-84040088D01*
X129498143Y-84038742D01*
X129497487Y-84037406D01*
X129496936Y-84036090D01*
X129496496Y-84034805D01*
X129496175Y-84033562D01*
X129495978Y-84032372D01*
X129495927Y-84031800D01*
X129495910Y-84031245D01*
X129496045Y-84029836D01*
X129496439Y-84028008D01*
X129497079Y-84025789D01*
X129497953Y-84023208D01*
X129500347Y-84017069D01*
X129503517Y-84009814D01*
X129507357Y-84001665D01*
X129511761Y-83992847D01*
X129516623Y-83983583D01*
X129521840Y-83974095D01*
X129544424Y-83933105D01*
X129565547Y-83892883D01*
X129585207Y-83853429D01*
X129603406Y-83814741D01*
X129620144Y-83776820D01*
X129635423Y-83739663D01*
X129649244Y-83703270D01*
X129661606Y-83667641D01*
X129672511Y-83632775D01*
X129681959Y-83598671D01*
X129689952Y-83565328D01*
X129696490Y-83532745D01*
X129701573Y-83500922D01*
X129705203Y-83469858D01*
X129707381Y-83439552D01*
X129708106Y-83410003D01*
X129707839Y-83391049D01*
X129707033Y-83372871D01*
X129705682Y-83355449D01*
X129703782Y-83338764D01*
X129701327Y-83322799D01*
X129698312Y-83307535D01*
X129694730Y-83292953D01*
X129690578Y-83279035D01*
X129685848Y-83265761D01*
X129680537Y-83253114D01*
X129674638Y-83241074D01*
X129668146Y-83229624D01*
X129661055Y-83218744D01*
X129653361Y-83208416D01*
X129645058Y-83198621D01*
X129636140Y-83189341D01*
X129633625Y-83186828D01*
X129631241Y-83184349D01*
X129628987Y-83181906D01*
X129626864Y-83179498D01*
X129624871Y-83177127D01*
X129623009Y-83174792D01*
X129621278Y-83172494D01*
X129619677Y-83170233D01*
X129618208Y-83168010D01*
X129616870Y-83165826D01*
X129615663Y-83163681D01*
X129614587Y-83161575D01*
X129613643Y-83159509D01*
X129612830Y-83157484D01*
X129612149Y-83155499D01*
X129611599Y-83153556D01*
X129611182Y-83151655D01*
X129610896Y-83149796D01*
X129610742Y-83147979D01*
X129610720Y-83146207D01*
X129610830Y-83144477D01*
X129611073Y-83142793D01*
X129611448Y-83141153D01*
X129611955Y-83139558D01*
X129612595Y-83138009D01*
X129613367Y-83136506D01*
X129614273Y-83135050D01*
X129615311Y-83133641D01*
X129616482Y-83132280D01*
X129617786Y-83130967D01*
X129619223Y-83129702D01*
X129620794Y-83128487D01*
X129622984Y-83127097D01*
X129625284Y-83126001D01*
X129627689Y-83125196D01*
X129630195Y-83124677D01*
X129632797Y-83124441D01*
X129635491Y-83124485D01*
G37*
G36*
X129896202Y-82992982D02*
G01*
X129900143Y-82993083D01*
X129903725Y-82993264D01*
X129906966Y-82993524D01*
X129909886Y-82993862D01*
X129912503Y-82994278D01*
X129914837Y-82994773D01*
X129916906Y-82995345D01*
X129918730Y-82995994D01*
X129920328Y-82996720D01*
X129921719Y-82997522D01*
X129922922Y-82998400D01*
X129923956Y-82999354D01*
X129924840Y-83000383D01*
X129925594Y-83001487D01*
X129926352Y-83002799D01*
X129927040Y-83004153D01*
X129927657Y-83005545D01*
X129928205Y-83006971D01*
X129928685Y-83008424D01*
X129929097Y-83009902D01*
X129929442Y-83011400D01*
X129929720Y-83012913D01*
X129929932Y-83014437D01*
X129930079Y-83015968D01*
X129930161Y-83017500D01*
X129930180Y-83019030D01*
X129930135Y-83020553D01*
X129930028Y-83022064D01*
X129929859Y-83023559D01*
X129929629Y-83025035D01*
X129929338Y-83026485D01*
X129928988Y-83027906D01*
X129928578Y-83029293D01*
X129928110Y-83030643D01*
X129927585Y-83031949D01*
X129927002Y-83033209D01*
X129926363Y-83034416D01*
X129925668Y-83035568D01*
X129924918Y-83036660D01*
X129924114Y-83037686D01*
X129923256Y-83038643D01*
X129922345Y-83039527D01*
X129921382Y-83040332D01*
X129920367Y-83041054D01*
X129919301Y-83041689D01*
X129918185Y-83042233D01*
X129901734Y-83045201D01*
X129863863Y-83049905D01*
X129738004Y-83063135D01*
X129568886Y-83079142D01*
X129384785Y-83095149D01*
X129054288Y-83125783D01*
X128735895Y-83161229D01*
X128584586Y-83180338D01*
X128440322Y-83200147D01*
X128304442Y-83220490D01*
X128178285Y-83241199D01*
X127995723Y-83272949D01*
X127961813Y-83277815D01*
X127913156Y-83283698D01*
X127794772Y-83296232D01*
X127686905Y-83305989D01*
X127651395Y-83308399D01*
X127640780Y-83308738D01*
X127635890Y-83308403D01*
X127634763Y-83307955D01*
X127633666Y-83307406D01*
X127632600Y-83306761D01*
X127631566Y-83306027D01*
X127630568Y-83305208D01*
X127629605Y-83304309D01*
X127628680Y-83303336D01*
X127627795Y-83302293D01*
X127626951Y-83301186D01*
X127626149Y-83300019D01*
X127624681Y-83297530D01*
X127623404Y-83294864D01*
X127622330Y-83292065D01*
X127621473Y-83289173D01*
X127620847Y-83286229D01*
X127620464Y-83283274D01*
X127620337Y-83280349D01*
X127620374Y-83278911D01*
X127620480Y-83277496D01*
X127620657Y-83276109D01*
X127620907Y-83274755D01*
X127621230Y-83273439D01*
X127621629Y-83272167D01*
X127622105Y-83270944D01*
X127622661Y-83269774D01*
X127625393Y-83265523D01*
X127627270Y-83263715D01*
X127629837Y-83262060D01*
X127633360Y-83260513D01*
X127638101Y-83259031D01*
X127652294Y-83256082D01*
X127674523Y-83252860D01*
X127706897Y-83249013D01*
X127810515Y-83238024D01*
X127881539Y-83229739D01*
X127957226Y-83219768D01*
X128030334Y-83209003D01*
X128063657Y-83203602D01*
X128093619Y-83198337D01*
X128234163Y-83174229D01*
X128380270Y-83151423D01*
X128532987Y-83129783D01*
X128693363Y-83109172D01*
X129041282Y-83070493D01*
X129432410Y-83034295D01*
X129589970Y-83020140D01*
X129741973Y-83005191D01*
X129768632Y-83002487D01*
X129792555Y-83000127D01*
X129813893Y-82998108D01*
X129832799Y-82996427D01*
X129849427Y-82995080D01*
X129863928Y-82994066D01*
X129876456Y-82993380D01*
X129887163Y-82993020D01*
X129891881Y-82992961D01*
X129896202Y-82992982D01*
G37*
G36*
X128268972Y-82462663D02*
G01*
X128273622Y-82463029D01*
X128278305Y-82463729D01*
X128283037Y-82464765D01*
X128287831Y-82466135D01*
X128292703Y-82467841D01*
X128297667Y-82469881D01*
X128302739Y-82472256D01*
X128307931Y-82474966D01*
X128310005Y-82476231D01*
X128312056Y-82477641D01*
X128316078Y-82480864D01*
X128319966Y-82484576D01*
X128323691Y-82488716D01*
X128327224Y-82493225D01*
X128330535Y-82498044D01*
X128333595Y-82503112D01*
X128336374Y-82508370D01*
X128338843Y-82513758D01*
X128340973Y-82519216D01*
X128342734Y-82524686D01*
X128344097Y-82530107D01*
X128345031Y-82535419D01*
X128345508Y-82540563D01*
X128345566Y-82543053D01*
X128345499Y-82545479D01*
X128345302Y-82547833D01*
X128344973Y-82550108D01*
X128343445Y-82557415D01*
X128341632Y-82564264D01*
X128339519Y-82570668D01*
X128337093Y-82576640D01*
X128335759Y-82579469D01*
X128334343Y-82582194D01*
X128332841Y-82584818D01*
X128331253Y-82587342D01*
X128329577Y-82589769D01*
X128327811Y-82592099D01*
X128325955Y-82594334D01*
X128324005Y-82596476D01*
X128321960Y-82598526D01*
X128319820Y-82600487D01*
X128317582Y-82602359D01*
X128315244Y-82604145D01*
X128312805Y-82605847D01*
X128310263Y-82607464D01*
X128307616Y-82609001D01*
X128304864Y-82610457D01*
X128299034Y-82613137D01*
X128292760Y-82615516D01*
X128286029Y-82617609D01*
X128278827Y-82619428D01*
X128275648Y-82620160D01*
X128272641Y-82620764D01*
X128269779Y-82621237D01*
X128267037Y-82621578D01*
X128264388Y-82621782D01*
X128261805Y-82621847D01*
X128259263Y-82621769D01*
X128256735Y-82621545D01*
X128254194Y-82621172D01*
X128251614Y-82620648D01*
X128248970Y-82619968D01*
X128246234Y-82619131D01*
X128243380Y-82618132D01*
X128240382Y-82616969D01*
X128237213Y-82615638D01*
X128233848Y-82614137D01*
X128228220Y-82611396D01*
X128222947Y-82608346D01*
X128218027Y-82605008D01*
X128213463Y-82601400D01*
X128209253Y-82597544D01*
X128205399Y-82593458D01*
X128201900Y-82589162D01*
X128198758Y-82584677D01*
X128195972Y-82580022D01*
X128193543Y-82575217D01*
X128191471Y-82570282D01*
X128189758Y-82565237D01*
X128188402Y-82560102D01*
X128187405Y-82554896D01*
X128186767Y-82549640D01*
X128186488Y-82544353D01*
X128186568Y-82539055D01*
X128187009Y-82533766D01*
X128187810Y-82528506D01*
X128188972Y-82523295D01*
X128190495Y-82518152D01*
X128192380Y-82513098D01*
X128194627Y-82508152D01*
X128197236Y-82503334D01*
X128200208Y-82498664D01*
X128203543Y-82494163D01*
X128207242Y-82489849D01*
X128211305Y-82485742D01*
X128215732Y-82481864D01*
X128220523Y-82478232D01*
X128225680Y-82474868D01*
X128231202Y-82471791D01*
X128236116Y-82469478D01*
X128240945Y-82467500D01*
X128245705Y-82465856D01*
X128250409Y-82464548D01*
X128255073Y-82463574D01*
X128259712Y-82462936D01*
X128264340Y-82462632D01*
X128268972Y-82462663D01*
G37*
G36*
X128656487Y-82206604D02*
G01*
X128659926Y-82206675D01*
X128663111Y-82206773D01*
X128666055Y-82206901D01*
X128668773Y-82207060D01*
X128671281Y-82207253D01*
X128673593Y-82207484D01*
X128675723Y-82207755D01*
X128677687Y-82208067D01*
X128679498Y-82208425D01*
X128681173Y-82208831D01*
X128682725Y-82209286D01*
X128684169Y-82209795D01*
X128685520Y-82210358D01*
X128686793Y-82210980D01*
X128688002Y-82211663D01*
X128689163Y-82212408D01*
X128690289Y-82213220D01*
X128691396Y-82214100D01*
X128692499Y-82215051D01*
X128693611Y-82216076D01*
X128695925Y-82218358D01*
X128698456Y-82220966D01*
X128701099Y-82223897D01*
X128703472Y-82226929D01*
X128705580Y-82230050D01*
X128707427Y-82233249D01*
X128709017Y-82236516D01*
X128710353Y-82239838D01*
X128711440Y-82243205D01*
X128712281Y-82246606D01*
X128712880Y-82250029D01*
X128713241Y-82253463D01*
X128713368Y-82256898D01*
X128713265Y-82260322D01*
X128712935Y-82263723D01*
X128712383Y-82267092D01*
X128711613Y-82270416D01*
X128710627Y-82273684D01*
X128709431Y-82276886D01*
X128708028Y-82280010D01*
X128706422Y-82283045D01*
X128704616Y-82285980D01*
X128702615Y-82288804D01*
X128700423Y-82291505D01*
X128698043Y-82294073D01*
X128695480Y-82296496D01*
X128692736Y-82298764D01*
X128689817Y-82300864D01*
X128686726Y-82302786D01*
X128683466Y-82304519D01*
X128680042Y-82306052D01*
X128676458Y-82307373D01*
X128672717Y-82308472D01*
X128668823Y-82309337D01*
X128650302Y-82313041D01*
X128661415Y-82342674D01*
X128664323Y-82351898D01*
X128666892Y-82362047D01*
X128669121Y-82373026D01*
X128671006Y-82384743D01*
X128672543Y-82397105D01*
X128673730Y-82410019D01*
X128674564Y-82423392D01*
X128675041Y-82437130D01*
X128675158Y-82451142D01*
X128674913Y-82465333D01*
X128674301Y-82479612D01*
X128673321Y-82493884D01*
X128671969Y-82508056D01*
X128670241Y-82522037D01*
X128668135Y-82535732D01*
X128665648Y-82549049D01*
X128661762Y-82566892D01*
X128657629Y-82583942D01*
X128653224Y-82600250D01*
X128648525Y-82615865D01*
X128643505Y-82630838D01*
X128638143Y-82645220D01*
X128632413Y-82659061D01*
X128626291Y-82672411D01*
X128619754Y-82685321D01*
X128612778Y-82697841D01*
X128605338Y-82710022D01*
X128597410Y-82721913D01*
X128588971Y-82733566D01*
X128579996Y-82745030D01*
X128570462Y-82756356D01*
X128560344Y-82767595D01*
X128548938Y-82779583D01*
X128537139Y-82791145D01*
X128524937Y-82802288D01*
X128512322Y-82813021D01*
X128499286Y-82823350D01*
X128485818Y-82833284D01*
X128471911Y-82842830D01*
X128457553Y-82851997D01*
X128442737Y-82860792D01*
X128427453Y-82869222D01*
X128411691Y-82877296D01*
X128395442Y-82885020D01*
X128378698Y-82892404D01*
X128361448Y-82899455D01*
X128343683Y-82906180D01*
X128325394Y-82912587D01*
X128299322Y-82920735D01*
X128273483Y-82927716D01*
X128247863Y-82933531D01*
X128222446Y-82938177D01*
X128197219Y-82941654D01*
X128172166Y-82943961D01*
X128147273Y-82945098D01*
X128122525Y-82945064D01*
X128097907Y-82943858D01*
X128073404Y-82941479D01*
X128049002Y-82937926D01*
X128024687Y-82933199D01*
X128000442Y-82927297D01*
X127976254Y-82920219D01*
X127952108Y-82911965D01*
X127927990Y-82902532D01*
X127901274Y-82890872D01*
X127875345Y-82878352D01*
X127850270Y-82865032D01*
X127826117Y-82850972D01*
X127802953Y-82836229D01*
X127780845Y-82820863D01*
X127759862Y-82804933D01*
X127740069Y-82788497D01*
X127721536Y-82771615D01*
X127704329Y-82754345D01*
X127688516Y-82736747D01*
X127674163Y-82718879D01*
X127661340Y-82700800D01*
X127650112Y-82682569D01*
X127640548Y-82664245D01*
X127636411Y-82655066D01*
X127632715Y-82645887D01*
X127627622Y-82630697D01*
X127623648Y-82615129D01*
X127620782Y-82599238D01*
X127619014Y-82583081D01*
X127618335Y-82566713D01*
X127618572Y-82556910D01*
X127676383Y-82556910D01*
X127676635Y-82569687D01*
X127677500Y-82582039D01*
X127678008Y-82587593D01*
X127678587Y-82592805D01*
X127679253Y-82597731D01*
X127680021Y-82602429D01*
X127680908Y-82606953D01*
X127681927Y-82611359D01*
X127683096Y-82615702D01*
X127684428Y-82620040D01*
X127685941Y-82624428D01*
X127687649Y-82628920D01*
X127689568Y-82633574D01*
X127691713Y-82638445D01*
X127694100Y-82643589D01*
X127696744Y-82649062D01*
X127705830Y-82665336D01*
X127716926Y-82681746D01*
X127729892Y-82698194D01*
X127744592Y-82714579D01*
X127760889Y-82730804D01*
X127778646Y-82746767D01*
X127797725Y-82762372D01*
X127817989Y-82777517D01*
X127839301Y-82792104D01*
X127861524Y-82806034D01*
X127884521Y-82819207D01*
X127908154Y-82831525D01*
X127932286Y-82842888D01*
X127956781Y-82853196D01*
X127981500Y-82862351D01*
X128006306Y-82870253D01*
X128026219Y-82875521D01*
X128046437Y-82879826D01*
X128066917Y-82883187D01*
X128087614Y-82885620D01*
X128108484Y-82887143D01*
X128129483Y-82887773D01*
X128150565Y-82887528D01*
X128171687Y-82886426D01*
X128192805Y-82884483D01*
X128213874Y-82881718D01*
X128234849Y-82878147D01*
X128255686Y-82873788D01*
X128276342Y-82868659D01*
X128296771Y-82862776D01*
X128316928Y-82856158D01*
X128336771Y-82848822D01*
X128356254Y-82840785D01*
X128375333Y-82832065D01*
X128393963Y-82822679D01*
X128412101Y-82812644D01*
X128429701Y-82801979D01*
X128446720Y-82790700D01*
X128463113Y-82778825D01*
X128478836Y-82766371D01*
X128493844Y-82753356D01*
X128508093Y-82739798D01*
X128521538Y-82725713D01*
X128534136Y-82711119D01*
X128545841Y-82696034D01*
X128556610Y-82680474D01*
X128566398Y-82664458D01*
X128575161Y-82648003D01*
X128579775Y-82638401D01*
X128584095Y-82628633D01*
X128588126Y-82618682D01*
X128591871Y-82608531D01*
X128595333Y-82598163D01*
X128598517Y-82587560D01*
X128601427Y-82576707D01*
X128604066Y-82565586D01*
X128606439Y-82554179D01*
X128608549Y-82542470D01*
X128610400Y-82530441D01*
X128611996Y-82518076D01*
X128613340Y-82505358D01*
X128614438Y-82492269D01*
X128615906Y-82464912D01*
X128616653Y-82441916D01*
X128616816Y-82431902D01*
X128616816Y-82422727D01*
X128616636Y-82414278D01*
X128616260Y-82406441D01*
X128615669Y-82399103D01*
X128614848Y-82392151D01*
X128613779Y-82385472D01*
X128612444Y-82378953D01*
X128610827Y-82372480D01*
X128608912Y-82365941D01*
X128606679Y-82359222D01*
X128604114Y-82352210D01*
X128601198Y-82344791D01*
X128597915Y-82336854D01*
X128589448Y-82317274D01*
X128538648Y-82317803D01*
X128512843Y-82318556D01*
X128480241Y-82319854D01*
X128411119Y-82323095D01*
X128060281Y-82342674D01*
X127786173Y-82358020D01*
X127759715Y-82383949D01*
X127748806Y-82394959D01*
X127738695Y-82405973D01*
X127729375Y-82417007D01*
X127720837Y-82428077D01*
X127713075Y-82439200D01*
X127706081Y-82450392D01*
X127699846Y-82461669D01*
X127694363Y-82473048D01*
X127689624Y-82484544D01*
X127685621Y-82496175D01*
X127682347Y-82507956D01*
X127679794Y-82519904D01*
X127677954Y-82532034D01*
X127676819Y-82544364D01*
X127676383Y-82556910D01*
X127618572Y-82556910D01*
X127618734Y-82550190D01*
X127620201Y-82533568D01*
X127622727Y-82516902D01*
X127626300Y-82500249D01*
X127630911Y-82483664D01*
X127636550Y-82467203D01*
X127643207Y-82450922D01*
X127650872Y-82434876D01*
X127659534Y-82419122D01*
X127669183Y-82403715D01*
X127679811Y-82388712D01*
X127695686Y-82368074D01*
X127670815Y-82359608D01*
X127667376Y-82358421D01*
X127664194Y-82357231D01*
X127661250Y-82356025D01*
X127658528Y-82354787D01*
X127656011Y-82353503D01*
X127653681Y-82352157D01*
X127651522Y-82350735D01*
X127649516Y-82349223D01*
X127647646Y-82347605D01*
X127645896Y-82345867D01*
X127644249Y-82343994D01*
X127642686Y-82341971D01*
X127641192Y-82339785D01*
X127639749Y-82337419D01*
X127638340Y-82334859D01*
X127636948Y-82332091D01*
X127635453Y-82329041D01*
X127634141Y-82326220D01*
X127633009Y-82323598D01*
X127632053Y-82321144D01*
X127631271Y-82318826D01*
X127630660Y-82316613D01*
X127630216Y-82314474D01*
X127629937Y-82312379D01*
X127629818Y-82310297D01*
X127629858Y-82308196D01*
X127630053Y-82306045D01*
X127630400Y-82303814D01*
X127630895Y-82301471D01*
X127631536Y-82298985D01*
X127632320Y-82296326D01*
X127633244Y-82293462D01*
X127636845Y-82280684D01*
X127639174Y-82275555D01*
X127643100Y-82271113D01*
X127649556Y-82267244D01*
X127659475Y-82263836D01*
X127673791Y-82260773D01*
X127693437Y-82257941D01*
X127752451Y-82252518D01*
X127843984Y-82246655D01*
X128154473Y-82229962D01*
X128307535Y-82221627D01*
X128437577Y-82214087D01*
X128486980Y-82211441D01*
X128537524Y-82209192D01*
X128583206Y-82207538D01*
X128618023Y-82206678D01*
X128639884Y-82206533D01*
X128648784Y-82206531D01*
X128656487Y-82206604D01*
G37*
G36*
X131231577Y-83597857D02*
G01*
X131231577Y-85857399D01*
X130457935Y-85856340D01*
X129683765Y-85854753D01*
X129669477Y-85740982D01*
X129653140Y-85594652D01*
X129638794Y-85436323D01*
X129626643Y-85270267D01*
X129616891Y-85100757D01*
X129609744Y-84932065D01*
X129605407Y-84768465D01*
X129605361Y-84763082D01*
X129707577Y-84763082D01*
X129707656Y-84792728D01*
X129707759Y-84805466D01*
X129707908Y-84816892D01*
X129708107Y-84827065D01*
X129708358Y-84836045D01*
X129708666Y-84843890D01*
X129709032Y-84850659D01*
X129709461Y-84856411D01*
X129709954Y-84861206D01*
X129710226Y-84863262D01*
X129710516Y-84865100D01*
X129710823Y-84866729D01*
X129711149Y-84868155D01*
X129711493Y-84869386D01*
X129711856Y-84870428D01*
X129712239Y-84871290D01*
X129712641Y-84871979D01*
X129713064Y-84872502D01*
X129713507Y-84872866D01*
X129713971Y-84873080D01*
X129714456Y-84873149D01*
X129715168Y-84873125D01*
X129715912Y-84873053D01*
X129716683Y-84872936D01*
X129717474Y-84872777D01*
X129718281Y-84872577D01*
X129719098Y-84872340D01*
X129719919Y-84872066D01*
X129720740Y-84871760D01*
X129721555Y-84871422D01*
X129722358Y-84871056D01*
X129723143Y-84870663D01*
X129723907Y-84870247D01*
X129724642Y-84869808D01*
X129725345Y-84869351D01*
X129726008Y-84868876D01*
X129726627Y-84868386D01*
X129729006Y-84866629D01*
X129733953Y-84863459D01*
X129750307Y-84853570D01*
X129773210Y-84840109D01*
X129800181Y-84824466D01*
X129885443Y-84775055D01*
X129993327Y-84711753D01*
X130089702Y-84655066D01*
X130146785Y-84621795D01*
X130310827Y-84525486D01*
X130630973Y-84337632D01*
X130791509Y-84243838D01*
X130916723Y-84169886D01*
X130934512Y-84159256D01*
X130951904Y-84148638D01*
X130968813Y-84138097D01*
X130985151Y-84127694D01*
X131000832Y-84117492D01*
X131015768Y-84107556D01*
X131029874Y-84097946D01*
X131043062Y-84088726D01*
X131055245Y-84079958D01*
X131066337Y-84071707D01*
X131076250Y-84064033D01*
X131084899Y-84057000D01*
X131092195Y-84050672D01*
X131098053Y-84045110D01*
X131102386Y-84040377D01*
X131103953Y-84038341D01*
X131105106Y-84036537D01*
X131105521Y-84035437D01*
X131105968Y-84033941D01*
X131106942Y-84029864D01*
X131107990Y-84024509D01*
X131109075Y-84018082D01*
X131110160Y-84010786D01*
X131111208Y-84002827D01*
X131112182Y-83994409D01*
X131113044Y-83985737D01*
X131116748Y-83943932D01*
X131098756Y-83923824D01*
X131096844Y-83921682D01*
X131094696Y-83919435D01*
X131092335Y-83917103D01*
X131089785Y-83914704D01*
X131087072Y-83912260D01*
X131084218Y-83909788D01*
X131078185Y-83904840D01*
X131071879Y-83900017D01*
X131065493Y-83895472D01*
X131062330Y-83893353D01*
X131059219Y-83891362D01*
X131056183Y-83889518D01*
X131053248Y-83887841D01*
X131038447Y-83879374D01*
X131032492Y-83875535D01*
X131027410Y-83871602D01*
X131023130Y-83867310D01*
X131019585Y-83862391D01*
X131016704Y-83856580D01*
X131014420Y-83849609D01*
X131012663Y-83841211D01*
X131011364Y-83831121D01*
X131010454Y-83819071D01*
X131009864Y-83804795D01*
X131009369Y-83768497D01*
X131009327Y-83720095D01*
X131009245Y-83684448D01*
X131008971Y-83654784D01*
X131008462Y-83630342D01*
X131008105Y-83619841D01*
X131007673Y-83610359D01*
X131007161Y-83601801D01*
X131006562Y-83594072D01*
X131005872Y-83587076D01*
X131005086Y-83580717D01*
X131004196Y-83574902D01*
X131003199Y-83569534D01*
X131002089Y-83564517D01*
X131000861Y-83559757D01*
X130999956Y-83556622D01*
X130999034Y-83553577D01*
X130998101Y-83550637D01*
X130997165Y-83547818D01*
X130996231Y-83545136D01*
X130995307Y-83542605D01*
X130994401Y-83540242D01*
X130993518Y-83538062D01*
X130992667Y-83536080D01*
X130991853Y-83534312D01*
X130991085Y-83532774D01*
X130990368Y-83531480D01*
X130989710Y-83530447D01*
X130989406Y-83530033D01*
X130989118Y-83529690D01*
X130988849Y-83529420D01*
X130988599Y-83529224D01*
X130988369Y-83529106D01*
X130988160Y-83529066D01*
X130986238Y-83529796D01*
X130984440Y-83531982D01*
X130982765Y-83535617D01*
X130981215Y-83540691D01*
X130979789Y-83547198D01*
X130978486Y-83555129D01*
X130976254Y-83575236D01*
X130974518Y-83600948D01*
X130973278Y-83632204D01*
X130972534Y-83668942D01*
X130972286Y-83711099D01*
X130972183Y-83759272D01*
X130971968Y-83778897D01*
X130971566Y-83795849D01*
X130971277Y-83803392D01*
X130970919Y-83810350D01*
X130970486Y-83816753D01*
X130969969Y-83822627D01*
X130969363Y-83828002D01*
X130968658Y-83832904D01*
X130967849Y-83837363D01*
X130966928Y-83841406D01*
X130965887Y-83845062D01*
X130964720Y-83848358D01*
X130963418Y-83851323D01*
X130961976Y-83853985D01*
X130960385Y-83856371D01*
X130958639Y-83858510D01*
X130956729Y-83860430D01*
X130954649Y-83862160D01*
X130952392Y-83863726D01*
X130949950Y-83865158D01*
X130947316Y-83866484D01*
X130944482Y-83867730D01*
X130941442Y-83868927D01*
X130938189Y-83870101D01*
X130931010Y-83872495D01*
X130925520Y-83874534D01*
X130919802Y-83877048D01*
X130913915Y-83879991D01*
X130907917Y-83883318D01*
X130901867Y-83886983D01*
X130895822Y-83890940D01*
X130889840Y-83895144D01*
X130883981Y-83899549D01*
X130878301Y-83904108D01*
X130872859Y-83908777D01*
X130867713Y-83913509D01*
X130862922Y-83918260D01*
X130858542Y-83922982D01*
X130854634Y-83927631D01*
X130851254Y-83932160D01*
X130848460Y-83936524D01*
X130846859Y-83939346D01*
X130845426Y-83942086D01*
X130844154Y-83944783D01*
X130843036Y-83947480D01*
X130842068Y-83950216D01*
X130841242Y-83953035D01*
X130840553Y-83955976D01*
X130839994Y-83959080D01*
X130839559Y-83962389D01*
X130839241Y-83965944D01*
X130839036Y-83969785D01*
X130838936Y-83973954D01*
X130838934Y-83978493D01*
X130839026Y-83983441D01*
X130839464Y-83994733D01*
X130840983Y-84029232D01*
X130841519Y-84043581D01*
X130841887Y-84056215D01*
X130842072Y-84067299D01*
X130842060Y-84076997D01*
X130841835Y-84085474D01*
X130841638Y-84089305D01*
X130841383Y-84092893D01*
X130841067Y-84096257D01*
X130840689Y-84099419D01*
X130840247Y-84102399D01*
X130839738Y-84105217D01*
X130839162Y-84107893D01*
X130838517Y-84110450D01*
X130837800Y-84112906D01*
X130837009Y-84115283D01*
X130836143Y-84117601D01*
X130835200Y-84119881D01*
X130833076Y-84124407D01*
X130830622Y-84129027D01*
X130827823Y-84133903D01*
X130823936Y-84140187D01*
X130819769Y-84146169D01*
X130815253Y-84151898D01*
X130810319Y-84157418D01*
X130804899Y-84162778D01*
X130798922Y-84168022D01*
X130792321Y-84173199D01*
X130785026Y-84178353D01*
X130776969Y-84183533D01*
X130768080Y-84188784D01*
X130758290Y-84194152D01*
X130747530Y-84199685D01*
X130735732Y-84205429D01*
X130722826Y-84211430D01*
X130693415Y-84224391D01*
X130469577Y-84321757D01*
X130207640Y-84434999D01*
X130115366Y-84475149D01*
X130048889Y-84503791D01*
X129966869Y-84539774D01*
X129732977Y-84641374D01*
X129707577Y-84653016D01*
X129707577Y-84763082D01*
X129605361Y-84763082D01*
X129604416Y-84653016D01*
X129604083Y-84614228D01*
X129605977Y-84473628D01*
X129607350Y-84415908D01*
X129608226Y-84368258D01*
X129608507Y-84335590D01*
X129608394Y-84326409D01*
X129608268Y-84323876D01*
X129608094Y-84322816D01*
X129607714Y-84322405D01*
X129607085Y-84322206D01*
X129606085Y-84322283D01*
X129604588Y-84322700D01*
X129599611Y-84324806D01*
X129591161Y-84329033D01*
X129559874Y-84345884D01*
X129502790Y-84377320D01*
X129474692Y-84392292D01*
X129444697Y-84407300D01*
X129413288Y-84422136D01*
X129380949Y-84436587D01*
X129348163Y-84450442D01*
X129315415Y-84463491D01*
X129283187Y-84475524D01*
X129251965Y-84486328D01*
X129228944Y-84493931D01*
X129208589Y-84501509D01*
X129184787Y-84512410D01*
X129151423Y-84529985D01*
X129031550Y-84598545D01*
X128800056Y-84733978D01*
X128567223Y-84870503D01*
X128532794Y-84890934D01*
X128497373Y-84911712D01*
X128465127Y-84930407D01*
X128440223Y-84944586D01*
X128230673Y-85067353D01*
X128068219Y-85162603D01*
X128065573Y-85132970D01*
X128065053Y-85126914D01*
X128064851Y-85123983D01*
X128064688Y-85121138D01*
X128064566Y-85118395D01*
X128064485Y-85115771D01*
X128064445Y-85113282D01*
X128064449Y-85110943D01*
X128064495Y-85108773D01*
X128064586Y-85106785D01*
X128064722Y-85104998D01*
X128064903Y-85103428D01*
X128065131Y-85102089D01*
X128065407Y-85101000D01*
X128065562Y-85100553D01*
X128065730Y-85100175D01*
X128065910Y-85099868D01*
X128066102Y-85099632D01*
X128131653Y-85060540D01*
X128284119Y-84971045D01*
X128638660Y-84763082D01*
X128840736Y-84644681D01*
X128897952Y-84611212D01*
X128955036Y-84577940D01*
X129051411Y-84521253D01*
X129223390Y-84420712D01*
X129271924Y-84392051D01*
X129315696Y-84365356D01*
X129335688Y-84352817D01*
X129354358Y-84340856D01*
X129371665Y-84329501D01*
X129387564Y-84318781D01*
X129402011Y-84308724D01*
X129414965Y-84299360D01*
X129426380Y-84290716D01*
X129436214Y-84282822D01*
X129444423Y-84275707D01*
X129450964Y-84269398D01*
X129455794Y-84263925D01*
X129457553Y-84261510D01*
X129458869Y-84259316D01*
X129459470Y-84258129D01*
X129460079Y-84256572D01*
X129460693Y-84254668D01*
X129461308Y-84252445D01*
X129462524Y-84247140D01*
X129463697Y-84240861D01*
X129464796Y-84233813D01*
X129465789Y-84226201D01*
X129466646Y-84218230D01*
X129467335Y-84210103D01*
X129467881Y-84204305D01*
X129468323Y-84198992D01*
X129468658Y-84194126D01*
X129468882Y-84189672D01*
X129468991Y-84185594D01*
X129468982Y-84181854D01*
X129468850Y-84178416D01*
X129468592Y-84175244D01*
X129468204Y-84172302D01*
X129467682Y-84169553D01*
X129467021Y-84166960D01*
X129466219Y-84164487D01*
X129465271Y-84162098D01*
X129464174Y-84159757D01*
X129462923Y-84157426D01*
X129461515Y-84155070D01*
X129459520Y-84152062D01*
X129456944Y-84148820D01*
X129453838Y-84145381D01*
X129450253Y-84141783D01*
X129446240Y-84138064D01*
X129441851Y-84134262D01*
X129437135Y-84130415D01*
X129432146Y-84126561D01*
X129426933Y-84122738D01*
X129421548Y-84118984D01*
X129416042Y-84115337D01*
X129410467Y-84111835D01*
X129404872Y-84108516D01*
X129399311Y-84105418D01*
X129393833Y-84102579D01*
X129388490Y-84100037D01*
X129384460Y-84097992D01*
X129380888Y-84095705D01*
X129377745Y-84092999D01*
X129375004Y-84089693D01*
X129372638Y-84085609D01*
X129370621Y-84080568D01*
X129368924Y-84074391D01*
X129367521Y-84066898D01*
X129366385Y-84057910D01*
X129365488Y-84047249D01*
X129364305Y-84020190D01*
X129363754Y-83984289D01*
X129363619Y-83938112D01*
X129363536Y-83901404D01*
X129363255Y-83871263D01*
X129362726Y-83846815D01*
X129362353Y-83836452D01*
X129361899Y-83827185D01*
X129361359Y-83818904D01*
X129360725Y-83811499D01*
X129359992Y-83804862D01*
X129359154Y-83798883D01*
X129358204Y-83793453D01*
X129357137Y-83788462D01*
X129355945Y-83783801D01*
X129354623Y-83779362D01*
X129353719Y-83776518D01*
X129352797Y-83773751D01*
X129351864Y-83771075D01*
X129350927Y-83768505D01*
X129349994Y-83766057D01*
X129349070Y-83763744D01*
X129348163Y-83761581D01*
X129347281Y-83759584D01*
X129346429Y-83757766D01*
X129345616Y-83756143D01*
X129344847Y-83754730D01*
X129344131Y-83753540D01*
X129343473Y-83752589D01*
X129343168Y-83752208D01*
X129342881Y-83751891D01*
X129342612Y-83751642D01*
X129342362Y-83751462D01*
X129342132Y-83751353D01*
X129341923Y-83751316D01*
X129340094Y-83752058D01*
X129338377Y-83754275D01*
X129336773Y-83757954D01*
X129335284Y-83763081D01*
X129333909Y-83769645D01*
X129332649Y-83777630D01*
X129330480Y-83797816D01*
X129328782Y-83823534D01*
X129327561Y-83854677D01*
X129326824Y-83891141D01*
X129326577Y-83932820D01*
X129326496Y-83968514D01*
X129326230Y-83997511D01*
X129326015Y-84009730D01*
X129325740Y-84020554D01*
X129325400Y-84030076D01*
X129324990Y-84038389D01*
X129324505Y-84045585D01*
X129323942Y-84051758D01*
X129323294Y-84057002D01*
X129322559Y-84061407D01*
X129321730Y-84065069D01*
X129320804Y-84068080D01*
X129320303Y-84069370D01*
X129319775Y-84070532D01*
X129319221Y-84071578D01*
X129318640Y-84072520D01*
X129317670Y-84073689D01*
X129316363Y-84075004D01*
X129314741Y-84076450D01*
X129312827Y-84078010D01*
X129310643Y-84079669D01*
X129308212Y-84081412D01*
X129302698Y-84085088D01*
X129296465Y-84088912D01*
X129289693Y-84092761D01*
X129282560Y-84096510D01*
X129275248Y-84100037D01*
X129271520Y-84101906D01*
X129267695Y-84103930D01*
X129263802Y-84106089D01*
X129259869Y-84108363D01*
X129255924Y-84110733D01*
X129251994Y-84113180D01*
X129244292Y-84118227D01*
X129240576Y-84120788D01*
X129236987Y-84123348D01*
X129233553Y-84125888D01*
X129230302Y-84128388D01*
X129227262Y-84130830D01*
X129224460Y-84133193D01*
X129221926Y-84135459D01*
X129219686Y-84137607D01*
X129214773Y-84143122D01*
X129210347Y-84148586D01*
X129206398Y-84154046D01*
X129202918Y-84159551D01*
X129199896Y-84165150D01*
X129197324Y-84170889D01*
X129195192Y-84176818D01*
X129193492Y-84182983D01*
X129192213Y-84189434D01*
X129191346Y-84196219D01*
X129190883Y-84203385D01*
X129190813Y-84210980D01*
X129191128Y-84219052D01*
X129191817Y-84227650D01*
X129192873Y-84236822D01*
X129194285Y-84246616D01*
X129195572Y-84255623D01*
X129196642Y-84264996D01*
X129197476Y-84274456D01*
X129198056Y-84283723D01*
X129198363Y-84292520D01*
X129198378Y-84300566D01*
X129198271Y-84304220D01*
X129198084Y-84307582D01*
X129197814Y-84310617D01*
X129197460Y-84313291D01*
X129196354Y-84319096D01*
X129194831Y-84324986D01*
X129192912Y-84330931D01*
X129190614Y-84336905D01*
X129187957Y-84342878D01*
X129184959Y-84348823D01*
X129181638Y-84354713D01*
X129178014Y-84360519D01*
X129174104Y-84366213D01*
X129169927Y-84371768D01*
X129165503Y-84377155D01*
X129160849Y-84382347D01*
X129155984Y-84387315D01*
X129150927Y-84392033D01*
X129145696Y-84396471D01*
X129140311Y-84400603D01*
X129127405Y-84407902D01*
X129102252Y-84420199D01*
X129010863Y-84461722D01*
X128857463Y-84529042D01*
X128633369Y-84626028D01*
X128384661Y-84733978D01*
X128369133Y-84741089D01*
X128344576Y-84751970D01*
X128281473Y-84779486D01*
X128138598Y-84841399D01*
X128113388Y-84852437D01*
X128091701Y-84861838D01*
X128075867Y-84868560D01*
X128070874Y-84870591D01*
X128068219Y-84871562D01*
X128067276Y-84871857D01*
X128066429Y-84871941D01*
X128066040Y-84871899D01*
X128065675Y-84871800D01*
X128065332Y-84871641D01*
X128065011Y-84871421D01*
X128064433Y-84870791D01*
X128063940Y-84869897D01*
X128063527Y-84868725D01*
X128063192Y-84867262D01*
X128062931Y-84865496D01*
X128062741Y-84863412D01*
X128062620Y-84860999D01*
X128062563Y-84858242D01*
X128062634Y-84851645D01*
X128062927Y-84843516D01*
X128064515Y-84812824D01*
X128109494Y-84793245D01*
X128561402Y-84596395D01*
X128576165Y-84589970D01*
X128589713Y-84583885D01*
X128601772Y-84578284D01*
X128612070Y-84573310D01*
X128620334Y-84569105D01*
X128623618Y-84567335D01*
X128626291Y-84565811D01*
X128628319Y-84564550D01*
X128629669Y-84563571D01*
X128630078Y-84563193D01*
X128630305Y-84562891D01*
X128630345Y-84562669D01*
X128630194Y-84562528D01*
X128602677Y-84559353D01*
X128543410Y-84553003D01*
X128485221Y-84546059D01*
X128427341Y-84537037D01*
X128369189Y-84525796D01*
X128310180Y-84512191D01*
X128249733Y-84496082D01*
X128187265Y-84477324D01*
X128122192Y-84455776D01*
X128053931Y-84431295D01*
X128017063Y-84417346D01*
X127982825Y-84404241D01*
X127955035Y-84393418D01*
X127937515Y-84386316D01*
X127933117Y-84384455D01*
X127929224Y-84382840D01*
X127925792Y-84381468D01*
X127924237Y-84380873D01*
X127922781Y-84380338D01*
X127921419Y-84379862D01*
X127920148Y-84379446D01*
X127918960Y-84379089D01*
X127917851Y-84378791D01*
X127916815Y-84378551D01*
X127915849Y-84378369D01*
X127914945Y-84378246D01*
X127914099Y-84378180D01*
X127913306Y-84378171D01*
X127912560Y-84378220D01*
X127911857Y-84378325D01*
X127911191Y-84378487D01*
X127910556Y-84378705D01*
X127909948Y-84378979D01*
X127909361Y-84379308D01*
X127908791Y-84379693D01*
X127908231Y-84380133D01*
X127907677Y-84380627D01*
X127907123Y-84381176D01*
X127906565Y-84381779D01*
X127905996Y-84382436D01*
X127905412Y-84383147D01*
X127904177Y-84384728D01*
X127900260Y-84390560D01*
X127894796Y-84400030D01*
X127880026Y-84428169D01*
X127861473Y-84465709D01*
X127840743Y-84509215D01*
X127819443Y-84555250D01*
X127799179Y-84600380D01*
X127781556Y-84641169D01*
X127768181Y-84674182D01*
X127723259Y-84799859D01*
X127681654Y-84932680D01*
X127643808Y-85070660D01*
X127610159Y-85211816D01*
X127581149Y-85354161D01*
X127557217Y-85495714D01*
X127538805Y-85634488D01*
X127526352Y-85768499D01*
X127520002Y-85857399D01*
X127200915Y-85857399D01*
X126881827Y-85857399D01*
X126881827Y-83597857D01*
X126881827Y-83126965D01*
X127070409Y-83126965D01*
X127070449Y-83177123D01*
X127071476Y-83223679D01*
X127073506Y-83264194D01*
X127076561Y-83296233D01*
X127081631Y-83330418D01*
X127087532Y-83363961D01*
X127094290Y-83396925D01*
X127101927Y-83429376D01*
X127110471Y-83461377D01*
X127119944Y-83492993D01*
X127130372Y-83524287D01*
X127141780Y-83555326D01*
X127154193Y-83586172D01*
X127167635Y-83616890D01*
X127182131Y-83647545D01*
X127197707Y-83678200D01*
X127214386Y-83708920D01*
X127232193Y-83739770D01*
X127251155Y-83770814D01*
X127271294Y-83802116D01*
X127285761Y-83822737D01*
X127301928Y-83843678D01*
X127319719Y-83864877D01*
X127339060Y-83886270D01*
X127359878Y-83907793D01*
X127382096Y-83929382D01*
X127405642Y-83950975D01*
X127430441Y-83972507D01*
X127456417Y-83993916D01*
X127483498Y-84015136D01*
X127511608Y-84036106D01*
X127540673Y-84056761D01*
X127570618Y-84077037D01*
X127601370Y-84096872D01*
X127632853Y-84116201D01*
X127664994Y-84134962D01*
X127734749Y-84172525D01*
X127811871Y-84210740D01*
X127894003Y-84248620D01*
X127978790Y-84285179D01*
X128063874Y-84319431D01*
X128146899Y-84350390D01*
X128225510Y-84377071D01*
X128297348Y-84398487D01*
X128331004Y-84407290D01*
X128365280Y-84415436D01*
X128400151Y-84422913D01*
X128435593Y-84429707D01*
X128471580Y-84435807D01*
X128508089Y-84441200D01*
X128545093Y-84445874D01*
X128582569Y-84449816D01*
X128613657Y-84451922D01*
X128651890Y-84453470D01*
X128694488Y-84454448D01*
X128738673Y-84454843D01*
X128781668Y-84454642D01*
X128820694Y-84453834D01*
X128852973Y-84452406D01*
X128875727Y-84450345D01*
X128883067Y-84448799D01*
X128892950Y-84446041D01*
X128918954Y-84437446D01*
X128950960Y-84425677D01*
X128986191Y-84411848D01*
X129021868Y-84397077D01*
X129055214Y-84382479D01*
X129083450Y-84369171D01*
X129094783Y-84363350D01*
X129103798Y-84358270D01*
X129110061Y-84354089D01*
X129115754Y-84349484D01*
X129120876Y-84344448D01*
X129125428Y-84338980D01*
X129129409Y-84333074D01*
X129132819Y-84326727D01*
X129135660Y-84319936D01*
X129137929Y-84312695D01*
X129139628Y-84305002D01*
X129140757Y-84296852D01*
X129141315Y-84288242D01*
X129141303Y-84279168D01*
X129140720Y-84269625D01*
X129139566Y-84259610D01*
X129137842Y-84249120D01*
X129135548Y-84238149D01*
X129134361Y-84231895D01*
X129133572Y-84225274D01*
X129133167Y-84218342D01*
X129133134Y-84211153D01*
X129133460Y-84203763D01*
X129134134Y-84196226D01*
X129135143Y-84188598D01*
X129136474Y-84180933D01*
X129138115Y-84173287D01*
X129140054Y-84165714D01*
X129142278Y-84158270D01*
X129144775Y-84151010D01*
X129147533Y-84143989D01*
X129150538Y-84137261D01*
X129153779Y-84130882D01*
X129157244Y-84124907D01*
X129160760Y-84119791D01*
X129164732Y-84114583D01*
X129169121Y-84109319D01*
X129173888Y-84104030D01*
X129178993Y-84098751D01*
X129184396Y-84093514D01*
X129190058Y-84088353D01*
X129195939Y-84083302D01*
X129202000Y-84078393D01*
X129208202Y-84073660D01*
X129214504Y-84069136D01*
X129220868Y-84064855D01*
X129227253Y-84060850D01*
X129233621Y-84057154D01*
X129239931Y-84053801D01*
X129246144Y-84050824D01*
X129268369Y-84040770D01*
X129268369Y-83923824D01*
X129268661Y-83880236D01*
X129269049Y-83860998D01*
X129269617Y-83843308D01*
X129270381Y-83827051D01*
X129271355Y-83812110D01*
X129272553Y-83798369D01*
X129273991Y-83785712D01*
X129275683Y-83774022D01*
X129277645Y-83763183D01*
X129279890Y-83753079D01*
X129282433Y-83743593D01*
X129285290Y-83734610D01*
X129288474Y-83726013D01*
X129292001Y-83717686D01*
X129295886Y-83709512D01*
X129297952Y-83705555D01*
X129300080Y-83701823D01*
X129302267Y-83698314D01*
X129304509Y-83695030D01*
X129306805Y-83691970D01*
X129309150Y-83689136D01*
X129311541Y-83686527D01*
X129313976Y-83684145D01*
X129316452Y-83681988D01*
X129318964Y-83680059D01*
X129321511Y-83678356D01*
X129324088Y-83676881D01*
X129326694Y-83675634D01*
X129329324Y-83674615D01*
X129331976Y-83673825D01*
X129334647Y-83673264D01*
X129337333Y-83672932D01*
X129340032Y-83672830D01*
X129342740Y-83672959D01*
X129345454Y-83673317D01*
X129348171Y-83673907D01*
X129350888Y-83674729D01*
X129353602Y-83675782D01*
X129356310Y-83677067D01*
X129359008Y-83678585D01*
X129361694Y-83680336D01*
X129364365Y-83682320D01*
X129367017Y-83684537D01*
X129369647Y-83686989D01*
X129372253Y-83689676D01*
X129374831Y-83692597D01*
X129377377Y-83695753D01*
X129378832Y-83697856D01*
X129380407Y-83700371D01*
X129383859Y-83706502D01*
X129387609Y-83713873D01*
X129391532Y-83722212D01*
X129395505Y-83731245D01*
X129399404Y-83740699D01*
X129403104Y-83750303D01*
X129406481Y-83759783D01*
X129411547Y-83775131D01*
X129415353Y-83788316D01*
X129416841Y-83794692D01*
X129418081Y-83801240D01*
X129419096Y-83808200D01*
X129419909Y-83815808D01*
X129421018Y-83833923D01*
X129421587Y-83857488D01*
X129421827Y-83928587D01*
X129421827Y-84050824D01*
X129460985Y-84077811D01*
X129466690Y-84081848D01*
X129471920Y-84085648D01*
X129476710Y-84089246D01*
X129481094Y-84092678D01*
X129485105Y-84095980D01*
X129488779Y-84099187D01*
X129492149Y-84102335D01*
X129495249Y-84105461D01*
X129498113Y-84108598D01*
X129500776Y-84111784D01*
X129503272Y-84115053D01*
X129505634Y-84118442D01*
X129507897Y-84121985D01*
X129510095Y-84125720D01*
X129512261Y-84129681D01*
X129514431Y-84133903D01*
X129518662Y-84142976D01*
X129520393Y-84146979D01*
X129521881Y-84150721D01*
X129523137Y-84154270D01*
X129524170Y-84157697D01*
X129524991Y-84161071D01*
X129525610Y-84164463D01*
X129526036Y-84167941D01*
X129526281Y-84171575D01*
X129526353Y-84175436D01*
X129526263Y-84179594D01*
X129526021Y-84184117D01*
X129525638Y-84189075D01*
X129524485Y-84200578D01*
X129524120Y-84205012D01*
X129523816Y-84209181D01*
X129523574Y-84213085D01*
X129523394Y-84216718D01*
X129523276Y-84220078D01*
X129523220Y-84223163D01*
X129523227Y-84225968D01*
X129523295Y-84228492D01*
X129523425Y-84230730D01*
X129523617Y-84232680D01*
X129523872Y-84234338D01*
X129524022Y-84235057D01*
X129524188Y-84235702D01*
X129524369Y-84236272D01*
X129524566Y-84236768D01*
X129524778Y-84237188D01*
X129525006Y-84237533D01*
X129525250Y-84237802D01*
X129525509Y-84237995D01*
X129525783Y-84238110D01*
X129526073Y-84238149D01*
X129530727Y-84236885D01*
X129538698Y-84233246D01*
X129563173Y-84219761D01*
X129596664Y-84199528D01*
X129636338Y-84174385D01*
X129679361Y-84146165D01*
X129722898Y-84116705D01*
X129764116Y-84087841D01*
X129800181Y-84061407D01*
X129829385Y-84038552D01*
X129858290Y-84014393D01*
X129886948Y-83988869D01*
X129915407Y-83961916D01*
X129943718Y-83933471D01*
X129971929Y-83903473D01*
X130000091Y-83871857D01*
X130028252Y-83838562D01*
X130056463Y-83803524D01*
X130084774Y-83766681D01*
X130113233Y-83727970D01*
X130141891Y-83687328D01*
X130170796Y-83644692D01*
X130200000Y-83600000D01*
X130259498Y-83504195D01*
X130273052Y-83481283D01*
X130278750Y-83471031D01*
X130283790Y-83461390D01*
X130288216Y-83452218D01*
X130292073Y-83443371D01*
X130295406Y-83434705D01*
X130298259Y-83426077D01*
X130300679Y-83417343D01*
X130302710Y-83408361D01*
X130304396Y-83398987D01*
X130305784Y-83389076D01*
X130306917Y-83378487D01*
X130307840Y-83367076D01*
X130309240Y-83341212D01*
X130309978Y-83304199D01*
X130308892Y-83266963D01*
X130305798Y-83228288D01*
X130300508Y-83186960D01*
X130292838Y-83141761D01*
X130282599Y-83091478D01*
X130269608Y-83034894D01*
X130253677Y-82970795D01*
X130222985Y-82846441D01*
X130215335Y-82815887D01*
X130206700Y-82784623D01*
X130197128Y-82752758D01*
X130186663Y-82720400D01*
X130163240Y-82654639D01*
X130136797Y-82588207D01*
X130107700Y-82521975D01*
X130076315Y-82456809D01*
X130043008Y-82393578D01*
X130008144Y-82333149D01*
X129996204Y-82313667D01*
X129984364Y-82294768D01*
X129972871Y-82276836D01*
X129961974Y-82260256D01*
X129951920Y-82245413D01*
X129942957Y-82232690D01*
X129935334Y-82222473D01*
X129932102Y-82218424D01*
X129929298Y-82215145D01*
X129929132Y-82214916D01*
X129928934Y-82214723D01*
X129928703Y-82214566D01*
X129928441Y-82214445D01*
X129928150Y-82214360D01*
X129927830Y-82214309D01*
X129927482Y-82214293D01*
X129927107Y-82214310D01*
X129926282Y-82214444D01*
X129925363Y-82214708D01*
X129924359Y-82215097D01*
X129923279Y-82215608D01*
X129922130Y-82216237D01*
X129920921Y-82216980D01*
X129919661Y-82217832D01*
X129918359Y-82218791D01*
X129917022Y-82219853D01*
X129915660Y-82221012D01*
X129914281Y-82222267D01*
X129912894Y-82223612D01*
X129911575Y-82224900D01*
X129910206Y-82226181D01*
X129908801Y-82227446D01*
X129907370Y-82228688D01*
X129905928Y-82229899D01*
X129904485Y-82231072D01*
X129903055Y-82232197D01*
X129901649Y-82233269D01*
X129900281Y-82234278D01*
X129898962Y-82235218D01*
X129897705Y-82236080D01*
X129896523Y-82236857D01*
X129895427Y-82237541D01*
X129894431Y-82238125D01*
X129893546Y-82238599D01*
X129892785Y-82238958D01*
X129891701Y-82239439D01*
X129890834Y-82240108D01*
X129890190Y-82240989D01*
X129889776Y-82242108D01*
X129889597Y-82243490D01*
X129889660Y-82245162D01*
X129889971Y-82247148D01*
X129890536Y-82249475D01*
X129891362Y-82252167D01*
X129892455Y-82255251D01*
X129893820Y-82258752D01*
X129895464Y-82262696D01*
X129899615Y-82272013D01*
X129904956Y-82283407D01*
X129910825Y-82296669D01*
X129916030Y-82309954D01*
X129920574Y-82323254D01*
X129924462Y-82336558D01*
X129927696Y-82349856D01*
X129930279Y-82363140D01*
X129932215Y-82376398D01*
X129933506Y-82389621D01*
X129934157Y-82402799D01*
X129934169Y-82415923D01*
X129933547Y-82428981D01*
X129932294Y-82441965D01*
X129930412Y-82454865D01*
X129927906Y-82467670D01*
X129924777Y-82480371D01*
X129921030Y-82492957D01*
X129916667Y-82505420D01*
X129911692Y-82517749D01*
X129906108Y-82529934D01*
X129899918Y-82541965D01*
X129893125Y-82553833D01*
X129885733Y-82565527D01*
X129877745Y-82577038D01*
X129869163Y-82588356D01*
X129859992Y-82599471D01*
X129850234Y-82610373D01*
X129839892Y-82621052D01*
X129828970Y-82631498D01*
X129817471Y-82641701D01*
X129805399Y-82651652D01*
X129792755Y-82661341D01*
X129779544Y-82670757D01*
X129756741Y-82685777D01*
X129733970Y-82699283D01*
X129711223Y-82711276D01*
X129688494Y-82721756D01*
X129665778Y-82730723D01*
X129643069Y-82738177D01*
X129620359Y-82744117D01*
X129597643Y-82748545D01*
X129574915Y-82751459D01*
X129552168Y-82752861D01*
X129529396Y-82752749D01*
X129506593Y-82751125D01*
X129483753Y-82747987D01*
X129460870Y-82743336D01*
X129437937Y-82737172D01*
X129414948Y-82729495D01*
X129394950Y-82721617D01*
X129374917Y-82712534D01*
X129354966Y-82702342D01*
X129335209Y-82691139D01*
X129315763Y-82679021D01*
X129296741Y-82666085D01*
X129278259Y-82652428D01*
X129260431Y-82638148D01*
X129243373Y-82623340D01*
X129227197Y-82608102D01*
X129212020Y-82592531D01*
X129197957Y-82576723D01*
X129185121Y-82560776D01*
X129173627Y-82544786D01*
X129163591Y-82528850D01*
X129155127Y-82513066D01*
X129150016Y-82502049D01*
X129147915Y-82497187D01*
X129146090Y-82492602D01*
X129144523Y-82488182D01*
X129143193Y-82483812D01*
X129142082Y-82479378D01*
X129141170Y-82474767D01*
X129140439Y-82469865D01*
X129139867Y-82464557D01*
X129139437Y-82458730D01*
X129139128Y-82452270D01*
X129138798Y-82436993D01*
X129138727Y-82418772D01*
X129191102Y-82418772D01*
X129191325Y-82429887D01*
X129192225Y-82440668D01*
X129193820Y-82451166D01*
X129196132Y-82461434D01*
X129199180Y-82471526D01*
X129202985Y-82481494D01*
X129207566Y-82491391D01*
X129212945Y-82501269D01*
X129219140Y-82511181D01*
X129226172Y-82521179D01*
X129234062Y-82531318D01*
X129242829Y-82541648D01*
X129252494Y-82552224D01*
X129270132Y-82570159D01*
X129288282Y-82587036D01*
X129306882Y-82602827D01*
X129325874Y-82617502D01*
X129345198Y-82631033D01*
X129364794Y-82643391D01*
X129384602Y-82654547D01*
X129404563Y-82664474D01*
X129424617Y-82673141D01*
X129444704Y-82680521D01*
X129464765Y-82686585D01*
X129484740Y-82691304D01*
X129504569Y-82694649D01*
X129524193Y-82696593D01*
X129543552Y-82697105D01*
X129562585Y-82696157D01*
X129571988Y-82695221D01*
X129581530Y-82693909D01*
X129600956Y-82690200D01*
X129620714Y-82685121D01*
X129640654Y-82678761D01*
X129660625Y-82671211D01*
X129680476Y-82662560D01*
X129700057Y-82652898D01*
X129719219Y-82642315D01*
X129737810Y-82630901D01*
X129755680Y-82618746D01*
X129772678Y-82605940D01*
X129788655Y-82592573D01*
X129803460Y-82578735D01*
X129816943Y-82564515D01*
X129828953Y-82550004D01*
X129834359Y-82542667D01*
X129839340Y-82535291D01*
X129844457Y-82526916D01*
X129849195Y-82518369D01*
X129853552Y-82509665D01*
X129857532Y-82500820D01*
X129861134Y-82491846D01*
X129864359Y-82482760D01*
X129869684Y-82464308D01*
X129873515Y-82445580D01*
X129875858Y-82426693D01*
X129876723Y-82407764D01*
X129876117Y-82388910D01*
X129874047Y-82370249D01*
X129870521Y-82351896D01*
X129865548Y-82333971D01*
X129862520Y-82325204D01*
X129859134Y-82316588D01*
X129855389Y-82308137D01*
X129851288Y-82299866D01*
X129846830Y-82291789D01*
X129842017Y-82283921D01*
X129836849Y-82276277D01*
X129831329Y-82268871D01*
X129825456Y-82261718D01*
X129819231Y-82254833D01*
X129817900Y-82253574D01*
X129816489Y-82252380D01*
X129815009Y-82251253D01*
X129813468Y-82250194D01*
X129811874Y-82249207D01*
X129810236Y-82248293D01*
X129808563Y-82247456D01*
X129806862Y-82246697D01*
X129805143Y-82246018D01*
X129803413Y-82245422D01*
X129801682Y-82244912D01*
X129799958Y-82244489D01*
X129798249Y-82244156D01*
X129796565Y-82243915D01*
X129794913Y-82243769D01*
X129793302Y-82243720D01*
X129511785Y-82254303D01*
X129321285Y-82262175D01*
X129262052Y-82264945D01*
X129245346Y-82265886D01*
X129238735Y-82266474D01*
X129237741Y-82267024D01*
X129236649Y-82267968D01*
X129234199Y-82270955D01*
X129231444Y-82275283D01*
X129228442Y-82280795D01*
X129225250Y-82287336D01*
X129221927Y-82294751D01*
X129215121Y-82311586D01*
X129208489Y-82330057D01*
X129202496Y-82348925D01*
X129199884Y-82358120D01*
X129197606Y-82366950D01*
X129195721Y-82375258D01*
X129194285Y-82382891D01*
X129192602Y-82395327D01*
X129191534Y-82407270D01*
X129191102Y-82418772D01*
X129138727Y-82418772D01*
X129138723Y-82417816D01*
X129138948Y-82397383D01*
X129139260Y-82388201D01*
X129139732Y-82379567D01*
X129140383Y-82371373D01*
X129141234Y-82363512D01*
X129142306Y-82355878D01*
X129143618Y-82348363D01*
X129145190Y-82340860D01*
X129147043Y-82333263D01*
X129149197Y-82325464D01*
X129151671Y-82317357D01*
X129154487Y-82308834D01*
X129157663Y-82299789D01*
X129165181Y-82279703D01*
X129165609Y-82278549D01*
X129165770Y-82277999D01*
X129165896Y-82277466D01*
X129165987Y-82276949D01*
X129166042Y-82276449D01*
X129166060Y-82275964D01*
X129166041Y-82275495D01*
X129165985Y-82275040D01*
X129165892Y-82274600D01*
X129165760Y-82274173D01*
X129165591Y-82273760D01*
X129165382Y-82273359D01*
X129165134Y-82272971D01*
X129164847Y-82272594D01*
X129164520Y-82272229D01*
X129164152Y-82271875D01*
X129163744Y-82271531D01*
X129163295Y-82271197D01*
X129162804Y-82270872D01*
X129161697Y-82270249D01*
X129160419Y-82269657D01*
X129158967Y-82269094D01*
X129157339Y-82268555D01*
X129155531Y-82268035D01*
X129153540Y-82267532D01*
X129150029Y-82266575D01*
X129146640Y-82265491D01*
X129143377Y-82264284D01*
X129140241Y-82262957D01*
X129137234Y-82261515D01*
X129134358Y-82259960D01*
X129131616Y-82258296D01*
X129129008Y-82256527D01*
X129126537Y-82254657D01*
X129124206Y-82252689D01*
X129122016Y-82250627D01*
X129119970Y-82248473D01*
X129118068Y-82246233D01*
X129116314Y-82243908D01*
X129114710Y-82241504D01*
X129113257Y-82239024D01*
X129111957Y-82236470D01*
X129110813Y-82233847D01*
X129109827Y-82231159D01*
X129109000Y-82228408D01*
X129108334Y-82225599D01*
X129107833Y-82222735D01*
X129107497Y-82219820D01*
X129107329Y-82216857D01*
X129107330Y-82213849D01*
X129107503Y-82210801D01*
X129107850Y-82207716D01*
X129108373Y-82204598D01*
X129109074Y-82201450D01*
X129109955Y-82198275D01*
X129111018Y-82195078D01*
X129112265Y-82191862D01*
X129116056Y-82180826D01*
X129118362Y-82176418D01*
X129122352Y-82172630D01*
X129129083Y-82169368D01*
X129139612Y-82166542D01*
X129176294Y-82161831D01*
X129240856Y-82157766D01*
X129341758Y-82153613D01*
X129686410Y-82142120D01*
X129812220Y-82137159D01*
X129851014Y-82135348D01*
X129861780Y-82134675D01*
X129864679Y-82134405D01*
X129865798Y-82134182D01*
X129866004Y-82133032D01*
X129865169Y-82130907D01*
X129860592Y-82123955D01*
X129852498Y-82113765D01*
X129841316Y-82100779D01*
X129811411Y-82068177D01*
X129774318Y-82029672D01*
X129733481Y-81988786D01*
X129692339Y-81949040D01*
X129654335Y-81913958D01*
X129637585Y-81899267D01*
X129622910Y-81887062D01*
X129593000Y-81863845D01*
X129560411Y-81840137D01*
X129525428Y-81816088D01*
X129488337Y-81791853D01*
X129408970Y-81743433D01*
X129324593Y-81696099D01*
X129237487Y-81651071D01*
X129149935Y-81609572D01*
X129064218Y-81572823D01*
X129022761Y-81556611D01*
X128982619Y-81542045D01*
X128931733Y-81525228D01*
X128881821Y-81510097D01*
X128832814Y-81496652D01*
X128784644Y-81484895D01*
X128737244Y-81474824D01*
X128690544Y-81466440D01*
X128644476Y-81459743D01*
X128598973Y-81454733D01*
X128551032Y-81451308D01*
X128502284Y-81449755D01*
X128453066Y-81450063D01*
X128403711Y-81452219D01*
X128354554Y-81456210D01*
X128305930Y-81462025D01*
X128258175Y-81469650D01*
X128211623Y-81479074D01*
X128177904Y-81487060D01*
X128146362Y-81495536D01*
X128115452Y-81505091D01*
X128083631Y-81516314D01*
X128049354Y-81529795D01*
X128011077Y-81546121D01*
X127967256Y-81565883D01*
X127916348Y-81589670D01*
X127807861Y-81640478D01*
X127712024Y-81684589D01*
X127632756Y-81720267D01*
X127573977Y-81745774D01*
X127549883Y-81756533D01*
X127526951Y-81768446D01*
X127505090Y-81781623D01*
X127484209Y-81796177D01*
X127464218Y-81812220D01*
X127445027Y-81829862D01*
X127426544Y-81849216D01*
X127408679Y-81870393D01*
X127391341Y-81893505D01*
X127374439Y-81918663D01*
X127357883Y-81945979D01*
X127341582Y-81975565D01*
X127325445Y-82007532D01*
X127309383Y-82041992D01*
X127293303Y-82079056D01*
X127277115Y-82118837D01*
X127245844Y-82204607D01*
X127215169Y-82300572D01*
X127185734Y-82404029D01*
X127158185Y-82512272D01*
X127133165Y-82622599D01*
X127111320Y-82732306D01*
X127093295Y-82838689D01*
X127079736Y-82939045D01*
X127076018Y-82979244D01*
X127073212Y-83025589D01*
X127071336Y-83075641D01*
X127070409Y-83126965D01*
X126881827Y-83126965D01*
X126881827Y-81338316D01*
X129056702Y-81338316D01*
X131231577Y-81338316D01*
X131231577Y-83597857D01*
G37*
M02*
