%TF.GenerationSoftware,KiCad,Pcbnew,9.0.1*%
%TF.CreationDate,2025-05-04T07:23:11+02:00*%
%TF.ProjectId,clock-module,636c6f63-6b2d-46d6-9f64-756c652e6b69,rev?*%
%TF.SameCoordinates,Original*%
%TF.FileFunction,Copper,L1,Top*%
%TF.FilePolarity,Positive*%
%FSLAX46Y46*%
G04 Gerber Fmt 4.6, Leading zero omitted, Abs format (unit mm)*
G04 Created by KiCad (PCBNEW 9.0.1) date 2025-05-04 07:23:11*
%MOMM*%
%LPD*%
G01*
G04 APERTURE LIST*
G04 Aperture macros list*
%AMRoundRect*
0 Rectangle with rounded corners*
0 $1 Rounding radius*
0 $2 $3 $4 $5 $6 $7 $8 $9 X,Y pos of 4 corners*
0 Add a 4 corners polygon primitive as box body*
4,1,4,$2,$3,$4,$5,$6,$7,$8,$9,$2,$3,0*
0 Add four circle primitives for the rounded corners*
1,1,$1+$1,$2,$3*
1,1,$1+$1,$4,$5*
1,1,$1+$1,$6,$7*
1,1,$1+$1,$8,$9*
0 Add four rect primitives between the rounded corners*
20,1,$1+$1,$2,$3,$4,$5,0*
20,1,$1+$1,$4,$5,$6,$7,0*
20,1,$1+$1,$6,$7,$8,$9,0*
20,1,$1+$1,$8,$9,$2,$3,0*%
G04 Aperture macros list end*
%TA.AperFunction,ComponentPad*%
%ADD10C,1.600000*%
%TD*%
%TA.AperFunction,ComponentPad*%
%ADD11O,1.600000X1.600000*%
%TD*%
%TA.AperFunction,ComponentPad*%
%ADD12C,1.524000*%
%TD*%
%TA.AperFunction,ComponentPad*%
%ADD13R,1.800000X1.800000*%
%TD*%
%TA.AperFunction,ComponentPad*%
%ADD14C,1.800000*%
%TD*%
%TA.AperFunction,ComponentPad*%
%ADD15RoundRect,0.250000X0.550000X-0.550000X0.550000X0.550000X-0.550000X0.550000X-0.550000X-0.550000X0*%
%TD*%
%TA.AperFunction,SMDPad,CuDef*%
%ADD16RoundRect,0.175000X-0.425000X0.175000X-0.425000X-0.175000X0.425000X-0.175000X0.425000X0.175000X0*%
%TD*%
%TA.AperFunction,SMDPad,CuDef*%
%ADD17RoundRect,0.190000X0.410000X-0.190000X0.410000X0.190000X-0.410000X0.190000X-0.410000X-0.190000X0*%
%TD*%
%TA.AperFunction,SMDPad,CuDef*%
%ADD18RoundRect,0.200000X0.400000X-0.200000X0.400000X0.200000X-0.400000X0.200000X-0.400000X-0.200000X0*%
%TD*%
%TA.AperFunction,SMDPad,CuDef*%
%ADD19RoundRect,0.175000X0.425000X-0.175000X0.425000X0.175000X-0.425000X0.175000X-0.425000X-0.175000X0*%
%TD*%
%TA.AperFunction,SMDPad,CuDef*%
%ADD20RoundRect,0.190000X-0.410000X0.190000X-0.410000X-0.190000X0.410000X-0.190000X0.410000X0.190000X0*%
%TD*%
%TA.AperFunction,SMDPad,CuDef*%
%ADD21RoundRect,0.200000X-0.400000X0.200000X-0.400000X-0.200000X0.400000X-0.200000X0.400000X0.200000X0*%
%TD*%
%TA.AperFunction,SMDPad,CuDef*%
%ADD22RoundRect,0.250000X-0.425000X0.650000X-0.425000X-0.650000X0.425000X-0.650000X0.425000X0.650000X0*%
%TD*%
%TA.AperFunction,SMDPad,CuDef*%
%ADD23RoundRect,0.250000X-0.500000X0.650000X-0.500000X-0.650000X0.500000X-0.650000X0.500000X0.650000X0*%
%TD*%
%TA.AperFunction,ComponentPad*%
%ADD24C,2.000000*%
%TD*%
%TA.AperFunction,ComponentPad*%
%ADD25R,1.600000X1.600000*%
%TD*%
%TA.AperFunction,ComponentPad*%
%ADD26C,4.400000*%
%TD*%
%TA.AperFunction,ViaPad*%
%ADD27C,0.600000*%
%TD*%
%TA.AperFunction,Conductor*%
%ADD28C,0.200000*%
%TD*%
G04 APERTURE END LIST*
D10*
%TO.P,R7,1*%
%TO.N,VCC*%
X140665200Y-99822000D03*
D11*
%TO.P,R7,2*%
%TO.N,Net-(SW2-A)*%
X148285200Y-99822000D03*
%TD*%
D12*
%TO.P,SW2,1,A*%
%TO.N,Net-(SW2-A)*%
X153060400Y-79095600D03*
%TO.P,SW2,2,B*%
%TO.N,GND*%
X155060400Y-79095600D03*
%TO.P,SW2,3,C*%
%TO.N,Net-(SW2-C)*%
X157060400Y-79095600D03*
%TO.P,SW2,4*%
%TO.N,N/C*%
X153060400Y-74095600D03*
%TO.P,SW2,5*%
X155060400Y-74095600D03*
%TO.P,SW2,6*%
X157060400Y-74095600D03*
%TD*%
D13*
%TO.P,D1,1,K*%
%TO.N,Net-(D1-K)*%
X154610000Y-99575000D03*
D14*
%TO.P,D1,2,A*%
%TO.N,OUT_MUX*%
X157150000Y-99575000D03*
%TD*%
D15*
%TO.P,U3,1*%
%TO.N,OUT_A*%
X117297200Y-95295800D03*
D10*
%TO.P,U3,2*%
%TO.N,OUT_B*%
X119837200Y-95295800D03*
%TO.P,U3,3*%
%TO.N,Net-(U3-Pad3)*%
X122377200Y-95295800D03*
%TO.P,U3,4*%
%TO.N,OUT_B*%
X124917200Y-95295800D03*
%TO.P,U3,5*%
X127457200Y-95295800D03*
%TO.P,U3,6*%
%TO.N,Net-(U3-Pad13)*%
X129997200Y-95295800D03*
%TO.P,U3,7,GND*%
%TO.N,GND*%
X132537200Y-95295800D03*
%TO.P,U3,8*%
%TO.N,OUT_MUX*%
X132537200Y-87675800D03*
%TO.P,U3,9*%
%TO.N,Net-(U3-Pad3)*%
X129997200Y-87675800D03*
%TO.P,U3,10*%
%TO.N,Net-(U3-Pad10)*%
X127457200Y-87675800D03*
%TO.P,U3,11*%
X124917200Y-87675800D03*
%TO.P,U3,12*%
%TO.N,OUT_M*%
X122377200Y-87675800D03*
%TO.P,U3,13*%
%TO.N,Net-(U3-Pad13)*%
X119837200Y-87675800D03*
%TO.P,U3,14,VCC*%
%TO.N,VCC*%
X117297200Y-87675800D03*
%TD*%
%TO.P,R1,1*%
%TO.N,VCC*%
X115671600Y-69494400D03*
D11*
%TO.P,R1,2*%
%TO.N,Net-(U1-DIS)*%
X123291600Y-69494400D03*
%TD*%
D16*
%TO.P,J1,A5,CC1*%
%TO.N,Net-(J1-CC1)*%
X106657400Y-95009800D03*
D17*
%TO.P,J1,A9,VBUS*%
%TO.N,VCC*%
X106657400Y-97029800D03*
D18*
%TO.P,J1,A12,GND*%
%TO.N,GND*%
X106657400Y-98259800D03*
D19*
%TO.P,J1,B5,CC2*%
%TO.N,Net-(J1-CC2)*%
X106657400Y-96009800D03*
D20*
%TO.P,J1,B9,VBUS*%
%TO.N,VCC*%
X106657400Y-93989800D03*
D21*
%TO.P,J1,B12,GND*%
%TO.N,GND*%
X106657400Y-92759800D03*
D22*
%TO.P,J1,S1,SHIELD*%
X106602400Y-90384800D03*
D23*
X103022400Y-90384800D03*
D22*
X106602400Y-100634800D03*
D23*
X103022400Y-100634800D03*
%TD*%
D10*
%TO.P,R5,1*%
%TO.N,Net-(J1-CC2)*%
X118465600Y-99771200D03*
D11*
%TO.P,R5,2*%
%TO.N,GND*%
X126085600Y-99771200D03*
%TD*%
D15*
%TO.P,U2,1,GND*%
%TO.N,GND*%
X140258800Y-80213200D03*
D10*
%TO.P,U2,2,TR*%
%TO.N,Net-(U2-TR)*%
X142798800Y-80213200D03*
%TO.P,U2,3,Q*%
%TO.N,OUT_M*%
X145338800Y-80213200D03*
%TO.P,U2,4,R*%
%TO.N,VCC*%
X147878800Y-80213200D03*
%TO.P,U2,5,CV*%
%TO.N,Net-(U2-CV)*%
X147878800Y-72593200D03*
%TO.P,U2,6,THR*%
%TO.N,Net-(U2-DIS)*%
X145338800Y-72593200D03*
%TO.P,U2,7,DIS*%
X142798800Y-72593200D03*
%TO.P,U2,8,VCC*%
%TO.N,VCC*%
X140258800Y-72593200D03*
%TD*%
D15*
%TO.P,U1,1,GND*%
%TO.N,GND*%
X117386400Y-80552000D03*
D10*
%TO.P,U1,2,TR*%
%TO.N,Net-(U1-THR)*%
X119926400Y-80552000D03*
%TO.P,U1,3,Q*%
%TO.N,OUT_A*%
X122466400Y-80552000D03*
%TO.P,U1,4,R*%
%TO.N,VCC*%
X125006400Y-80552000D03*
%TO.P,U1,5,CV*%
%TO.N,Net-(U1-CV)*%
X125006400Y-72932000D03*
%TO.P,U1,6,THR*%
%TO.N,Net-(U1-THR)*%
X122466400Y-72932000D03*
%TO.P,U1,7,DIS*%
%TO.N,Net-(U1-DIS)*%
X119926400Y-72932000D03*
%TO.P,U1,8,VCC*%
%TO.N,VCC*%
X117386400Y-72932000D03*
%TD*%
%TO.P,C5,1*%
%TO.N,Net-(U2-CV)*%
X135930000Y-84531200D03*
%TO.P,C5,2*%
%TO.N,GND*%
X140930000Y-84531200D03*
%TD*%
D24*
%TO.P,SW1,1,1*%
%TO.N,GND*%
X129033200Y-74610400D03*
X135533200Y-74610400D03*
%TO.P,SW1,2,2*%
%TO.N,Net-(U2-TR)*%
X129033200Y-79110400D03*
X135533200Y-79110400D03*
%TD*%
D10*
%TO.P,R8,1*%
%TO.N,Net-(D1-K)*%
X151688800Y-91287600D03*
D11*
%TO.P,R8,2*%
%TO.N,GND*%
X159308800Y-91287600D03*
%TD*%
D10*
%TO.P,C2,1*%
%TO.N,VCC*%
X114463200Y-99314000D03*
%TO.P,C2,2*%
%TO.N,GND*%
X109463200Y-99314000D03*
%TD*%
D15*
%TO.P,U4,1,GND*%
%TO.N,GND*%
X140208000Y-95448200D03*
D10*
%TO.P,U4,2,TR*%
%TO.N,Net-(SW2-A)*%
X142748000Y-95448200D03*
%TO.P,U4,3,Q*%
%TO.N,OUT_B*%
X145288000Y-95448200D03*
%TO.P,U4,4,R*%
%TO.N,Net-(SW2-C)*%
X147828000Y-95448200D03*
%TO.P,U4,5,CV*%
%TO.N,Net-(U4-CV)*%
X147828000Y-87828200D03*
%TO.P,U4,6,THR*%
%TO.N,GND*%
X145288000Y-87828200D03*
%TO.P,U4,7,DIS*%
%TO.N,unconnected-(U4-DIS-Pad7)*%
X142748000Y-87828200D03*
%TO.P,U4,8,VCC*%
%TO.N,VCC*%
X140208000Y-87828200D03*
%TD*%
D25*
%TO.P,C7,1*%
%TO.N,Net-(U1-THR)*%
X110979200Y-86106000D03*
D10*
%TO.P,C7,2*%
%TO.N,GND*%
X112979200Y-86106000D03*
%TD*%
%TO.P,C4,1*%
%TO.N,Net-(U1-CV)*%
X125922400Y-69545200D03*
%TO.P,C4,2*%
%TO.N,GND*%
X130922400Y-69545200D03*
%TD*%
%TO.P,C3,1*%
%TO.N,VCC*%
X114299199Y-95208800D03*
%TO.P,C3,2*%
%TO.N,GND*%
X109299199Y-95208800D03*
%TD*%
D25*
%TO.P,C1,1*%
%TO.N,VCC*%
X102648000Y-85090000D03*
D10*
%TO.P,C1,2*%
%TO.N,GND*%
X104648000Y-85090000D03*
%TD*%
%TO.P,R9,1*%
%TO.N,Net-(SW2-C)*%
X151688800Y-86309200D03*
D11*
%TO.P,R9,2*%
%TO.N,VCC*%
X159308800Y-86309200D03*
%TD*%
D10*
%TO.P,C6,1*%
%TO.N,Net-(U2-DIS)*%
X144018000Y-84531200D03*
%TO.P,C6,2*%
%TO.N,GND*%
X149018000Y-84531200D03*
%TD*%
D14*
%TO.P,RV1,1,1*%
%TO.N,Net-(U1-THR)*%
X100950000Y-76953200D03*
%TO.P,RV1,2,2*%
%TO.N,Net-(R4-Pad2)*%
X100950000Y-74453200D03*
%TO.P,RV1,3,3*%
%TO.N,unconnected-(RV1-Pad3)*%
X100950000Y-71953200D03*
D26*
%TO.P,RV1,MP*%
%TO.N,N/C*%
X107950000Y-70053200D03*
X107950000Y-78853200D03*
%TD*%
D10*
%TO.P,R3,1*%
%TO.N,VCC*%
X144311800Y-69541000D03*
D11*
%TO.P,R3,2*%
%TO.N,Net-(U2-DIS)*%
X151931800Y-69541000D03*
%TD*%
D10*
%TO.P,R2,1*%
%TO.N,VCC*%
X133796200Y-69490200D03*
D11*
%TO.P,R2,2*%
%TO.N,Net-(U2-TR)*%
X141416200Y-69490200D03*
%TD*%
D10*
%TO.P,C8,1*%
%TO.N,Net-(U4-CV)*%
X154350000Y-69500000D03*
%TO.P,C8,2*%
%TO.N,GND*%
X159350000Y-69500000D03*
%TD*%
%TO.P,R6,1*%
%TO.N,Net-(J1-CC1)*%
X129540000Y-99822000D03*
D11*
%TO.P,R6,2*%
%TO.N,GND*%
X137160000Y-99822000D03*
%TD*%
D10*
%TO.P,R4,1*%
%TO.N,Net-(U1-DIS)*%
X116789200Y-84683600D03*
D11*
%TO.P,R4,2*%
%TO.N,Net-(R4-Pad2)*%
X124409200Y-84683600D03*
%TD*%
D27*
%TO.N,Net-(U1-THR)*%
X115475000Y-78425000D03*
%TO.N,VCC*%
X134425000Y-89575000D03*
X145075000Y-81625000D03*
X145275000Y-78900000D03*
%TO.N,Net-(U1-DIS)*%
X114675000Y-81050000D03*
%TO.N,Net-(SW2-A)*%
X145650000Y-93000000D03*
%TO.N,Net-(U2-TR)*%
X141375000Y-77375000D03*
%TO.N,OUT_B*%
X141650000Y-92350000D03*
%TD*%
D28*
%TO.N,GND*%
X143450000Y-86225000D02*
X142623800Y-86225000D01*
X112979200Y-89052400D02*
X112979200Y-86106000D01*
X131673600Y-97434400D02*
X132537200Y-96570800D01*
X126085600Y-98196400D02*
X126847600Y-97434400D01*
X106602400Y-90384800D02*
X111646800Y-90384800D01*
X137160000Y-98860000D02*
X133595800Y-95295800D01*
X106657400Y-90439800D02*
X106602400Y-90384800D01*
X103022400Y-100634800D02*
X106602400Y-100634800D01*
X106709200Y-92811600D02*
X106657400Y-92759800D01*
X109299199Y-93246399D02*
X108864400Y-92811600D01*
X145288000Y-87828200D02*
X145053200Y-87828200D01*
X145053200Y-87828200D02*
X143450000Y-86225000D01*
X137160000Y-99822000D02*
X137160000Y-98496200D01*
X148585000Y-84531200D02*
X149018000Y-84531200D01*
X106602400Y-87044400D02*
X104648000Y-85090000D01*
X142623800Y-86225000D02*
X140930000Y-84531200D01*
X106716900Y-100574000D02*
X106661900Y-100629000D01*
X159308800Y-91287600D02*
X153712600Y-91287600D01*
X106657400Y-98259800D02*
X108409000Y-98259800D01*
X133595800Y-95295800D02*
X132537200Y-95295800D01*
X109299199Y-97369601D02*
X108409000Y-98259800D01*
X126085600Y-99771200D02*
X126085600Y-98196400D01*
X137160000Y-98496200D02*
X140208000Y-95448200D01*
X145288000Y-87828200D02*
X148585000Y-84531200D01*
X103022400Y-90384800D02*
X106602400Y-90384800D01*
X106657400Y-100579800D02*
X106602400Y-100634800D01*
X140930000Y-80884400D02*
X140258800Y-80213200D01*
X108409000Y-98259800D02*
X109463200Y-99314000D01*
X137160000Y-99822000D02*
X137160000Y-98860000D01*
X109299199Y-95208800D02*
X109299199Y-97369601D01*
X126847600Y-97434400D02*
X131673600Y-97434400D01*
X149018000Y-86593000D02*
X149018000Y-84531200D01*
X106657400Y-92759800D02*
X106657400Y-90439800D01*
X145288000Y-90137000D02*
X145288000Y-87828200D01*
X140208000Y-95217000D02*
X145288000Y-90137000D01*
X106661900Y-89834000D02*
X106661900Y-90379000D01*
X111646800Y-90384800D02*
X112979200Y-89052400D01*
X106661900Y-92699000D02*
X106716900Y-92754000D01*
X140930000Y-84531200D02*
X140930000Y-80884400D01*
X132537200Y-96570800D02*
X132537200Y-95295800D01*
X153712600Y-91287600D02*
X149018000Y-86593000D01*
X108864400Y-92811600D02*
X106709200Y-92811600D01*
X109299199Y-95208800D02*
X109299199Y-93246399D01*
X140208000Y-95448200D02*
X140208000Y-95217000D01*
X106602400Y-90384800D02*
X106602400Y-87044400D01*
X106657400Y-98259800D02*
X106657400Y-100579800D01*
%TO.N,Net-(U1-THR)*%
X122466400Y-72932000D02*
X122466400Y-76233600D01*
X119926400Y-78926400D02*
X119926400Y-80552000D01*
X119926400Y-78773600D02*
X119926400Y-78926400D01*
X115475000Y-78425000D02*
X119425000Y-78425000D01*
X119425000Y-78425000D02*
X119926400Y-78926400D01*
X122466400Y-76233600D02*
X119926400Y-78773600D01*
%TO.N,VCC*%
X133796200Y-70428800D02*
X133796200Y-69490200D01*
X128125000Y-72075000D02*
X132150000Y-72075000D01*
X102331200Y-94000000D02*
X101244400Y-92913200D01*
X107655000Y-93989800D02*
X108051600Y-94386400D01*
X116692600Y-87675800D02*
X113690400Y-90678000D01*
X136171800Y-87828200D02*
X140208000Y-87828200D01*
X127550000Y-71550000D02*
X128100000Y-72100000D01*
X158100000Y-82975000D02*
X150225000Y-82975000D01*
X127025000Y-73175000D02*
X128100000Y-72100000D01*
X117386400Y-72932000D02*
X115671600Y-71217200D01*
X113500000Y-83075000D02*
X104663000Y-83075000D01*
X113690400Y-94600001D02*
X114299199Y-95208800D01*
X159308800Y-86309200D02*
X159308800Y-84183800D01*
X147878800Y-80628800D02*
X147878800Y-80213200D01*
X113690400Y-90678000D02*
X113690400Y-88859600D01*
X102648000Y-86531200D02*
X102648000Y-85090000D01*
X113690400Y-90678000D02*
X113690400Y-94600001D01*
X115671600Y-71217200D02*
X115671600Y-69494400D01*
X145075000Y-81625000D02*
X146467000Y-81625000D01*
X114463200Y-95372801D02*
X114299199Y-95208800D01*
X144278200Y-69691800D02*
X144115800Y-69529400D01*
X121150000Y-72450000D02*
X122050000Y-71550000D01*
X115150000Y-87400000D02*
X115150000Y-84725000D01*
X108051600Y-96570800D02*
X107592600Y-97029800D01*
X125006400Y-78218600D02*
X127025000Y-76200000D01*
X113690400Y-88859600D02*
X115150000Y-87400000D01*
X107592600Y-97029800D02*
X106657400Y-97029800D01*
X125006400Y-80552000D02*
X125006400Y-78218600D01*
X159308800Y-84183800D02*
X158100000Y-82975000D01*
X150225000Y-82975000D02*
X147878800Y-80628800D01*
X117297200Y-87675800D02*
X116692600Y-87675800D01*
X101244400Y-92913200D02*
X101244400Y-87934800D01*
X127025000Y-76200000D02*
X127025000Y-73175000D01*
X122050000Y-71550000D02*
X127550000Y-71550000D01*
X115150000Y-84725000D02*
X113500000Y-83075000D01*
X106657400Y-93989800D02*
X107655000Y-93989800D01*
X117386400Y-72932000D02*
X118775000Y-74320600D01*
X147845200Y-79741400D02*
X148340800Y-80237000D01*
X114463200Y-99314000D02*
X114463200Y-95372801D01*
X106657400Y-93989800D02*
X106647200Y-94000000D01*
X120575000Y-74375000D02*
X121150000Y-73800000D01*
X145275000Y-78900000D02*
X146565600Y-78900000D01*
X128100000Y-72100000D02*
X128125000Y-72075000D01*
X101244400Y-87934800D02*
X102648000Y-86531200D01*
X106647200Y-94000000D02*
X102331200Y-94000000D01*
X108051600Y-94386400D02*
X108051600Y-96570800D01*
X118775000Y-74375000D02*
X120575000Y-74375000D01*
X146467000Y-81625000D02*
X147878800Y-80213200D01*
X146565600Y-78900000D02*
X147878800Y-80213200D01*
X134425000Y-89575000D02*
X136171800Y-87828200D01*
X132150000Y-72075000D02*
X133796200Y-70428800D01*
X104663000Y-83075000D02*
X102648000Y-85090000D01*
X118775000Y-74320600D02*
X118775000Y-74375000D01*
X121150000Y-73800000D02*
X121150000Y-72450000D01*
%TO.N,Net-(D1-K)*%
X154610000Y-99575000D02*
X151688800Y-96653800D01*
X151688800Y-96653800D02*
X151688800Y-91287600D01*
%TO.N,Net-(U1-DIS)*%
X114675000Y-82569400D02*
X116789200Y-84683600D01*
X123291600Y-69494400D02*
X123291600Y-69566800D01*
X123291600Y-69566800D02*
X119926400Y-72932000D01*
X114675000Y-81050000D02*
X114675000Y-82569400D01*
%TO.N,Net-(U2-CV)*%
X139558961Y-78275000D02*
X145175000Y-78275000D01*
X145175000Y-78275000D02*
X147878800Y-75571200D01*
X135930000Y-84531200D02*
X135930000Y-81903961D01*
X135930000Y-81903961D02*
X139558961Y-78275000D01*
X147878800Y-75571200D02*
X147878800Y-72593200D01*
%TO.N,Net-(U2-DIS)*%
X145800800Y-72617000D02*
X145990800Y-72427000D01*
%TO.N,Net-(SW2-A)*%
X148285200Y-99822000D02*
X144347000Y-99822000D01*
X144347000Y-99822000D02*
X142748000Y-98223000D01*
X145650000Y-93000000D02*
X145196200Y-93000000D01*
X145196200Y-93000000D02*
X142748000Y-95448200D01*
X142748000Y-98223000D02*
X142748000Y-95448200D01*
%TO.N,Net-(U2-TR)*%
X141416200Y-77333800D02*
X141375000Y-77375000D01*
X141416200Y-69490200D02*
X141416200Y-77333800D01*
%TO.N,OUT_B*%
X127457200Y-95295800D02*
X130403000Y-92350000D01*
X119837200Y-95295800D02*
X119837200Y-96062200D01*
X130403000Y-92350000D02*
X141650000Y-92350000D01*
%TO.N,Net-(U4-CV)*%
X154350000Y-69500000D02*
X154350000Y-69525000D01*
%TO.N,Net-(J1-CC2)*%
X117290800Y-102876400D02*
X102520800Y-102876400D01*
X106558000Y-95910400D02*
X106657400Y-96009800D01*
X118465600Y-99771200D02*
X118465600Y-101701600D01*
X101854000Y-102209600D02*
X101854000Y-96926400D01*
X102870000Y-95910400D02*
X106558000Y-95910400D01*
X101854000Y-96926400D02*
X102870000Y-95910400D01*
X118465600Y-101701600D02*
X117290800Y-102876400D01*
X102520800Y-102876400D02*
X101854000Y-102209600D01*
%TO.N,Net-(J1-CC1)*%
X129438400Y-102158800D02*
X129438400Y-99923600D01*
X101244400Y-102362000D02*
X102158800Y-103276400D01*
X102158800Y-103276400D02*
X128320800Y-103276400D01*
X129438400Y-99923600D02*
X129540000Y-99822000D01*
X102754600Y-95009800D02*
X101244400Y-96520000D01*
X106657400Y-95009800D02*
X102754600Y-95009800D01*
X101244400Y-96520000D02*
X101244400Y-102362000D01*
X128320800Y-103276400D02*
X129438400Y-102158800D01*
%TO.N,Net-(R4-Pad2)*%
X108946400Y-74453200D02*
X118668800Y-84175600D01*
X123901200Y-84175600D02*
X124409200Y-84683600D01*
X118668800Y-84175600D02*
X123901200Y-84175600D01*
X100950000Y-74453200D02*
X108946400Y-74453200D01*
%TO.N,Net-(U3-Pad3)*%
X127573000Y-90100000D02*
X124650000Y-90100000D01*
X122377200Y-92372800D02*
X122377200Y-95295800D01*
X129997200Y-87675800D02*
X127573000Y-90100000D01*
X124650000Y-90100000D02*
X122377200Y-92372800D01*
%TD*%
M02*
