M48
; DRILL file {KiCad 9.0.1} date 2025-05-07T15:15:05+0200
; FORMAT={-:-/ absolute / inch / decimal}
; #@! TF.CreationDate,2025-05-07T15:15:05+02:00
; #@! TF.GenerationSoftware,Kicad,Pcbnew,9.0.1
; #@! TF.FileFunction,Plated,1,2,PTH
FMAT,2
INCH
; #@! TA.AperFunction,Plated,PTH,ViaDrill
T1C0.0118
; #@! TA.AperFunction,Plated,PTH,ComponentDrill
T2C0.0300
; #@! TA.AperFunction,Plated,PTH,ComponentDrill
T3C0.0315
; #@! TA.AperFunction,Plated,PTH,ComponentDrill
T4C0.0354
; #@! TA.AperFunction,Plated,PTH,ComponentDrill
T5C0.0394
; #@! TA.AperFunction,Plated,PTH,ComponentDrill
T6C0.0433
; #@! TA.AperFunction,Plated,PTH,ComponentDrill
T7C0.0866
%
G90
G05
T1
X4.5148Y-3.1909
X4.5463Y-3.0876
X5.2923Y-3.5266
X5.5659Y-3.0463
X5.5768Y-3.6358
X5.7116Y-3.2136
X5.7195Y-3.1063
X5.7343Y-3.6614
T2
X6.026Y-2.9171
X6.026Y-3.114
X6.1047Y-2.9171
X6.1047Y-3.114
X6.1835Y-2.9171
X6.1835Y-3.114
T3
X4.0413Y-3.35
X4.12Y-3.35
X4.3031Y-3.7484
X4.3096Y-3.91
X4.3693Y-3.39
X4.448Y-3.39
X4.5Y-3.7484
X4.5064Y-3.91
X4.554Y-2.736
X4.598Y-3.334
X4.618Y-3.4518
X4.618Y-3.7518
X4.6215Y-2.8713
X4.6215Y-3.1713
X4.664Y-3.928
X4.718Y-3.4518
X4.718Y-3.7518
X4.7215Y-2.8713
X4.7215Y-3.1713
X4.818Y-3.4518
X4.818Y-3.7518
X4.8215Y-2.8713
X4.8215Y-3.1713
X4.854Y-2.736
X4.898Y-3.334
X4.918Y-3.4518
X4.918Y-3.7518
X4.9215Y-2.8713
X4.9215Y-3.1713
X4.9576Y-2.738
X4.964Y-3.928
X5.018Y-3.4518
X5.018Y-3.7518
X5.1Y-3.93
X5.118Y-3.4518
X5.118Y-3.7518
X5.1544Y-2.738
X5.218Y-3.4518
X5.218Y-3.7518
X5.2676Y-2.7358
X5.3516Y-3.328
X5.4Y-3.93
X5.52Y-3.4578
X5.52Y-3.7578
X5.522Y-2.858
X5.522Y-3.158
X5.538Y-3.93
X5.5484Y-3.328
X5.5676Y-2.7358
X5.62Y-3.4578
X5.62Y-3.7578
X5.622Y-2.858
X5.622Y-3.158
X5.67Y-3.328
X5.6816Y-2.7378
X5.72Y-3.4578
X5.72Y-3.7578
X5.722Y-2.858
X5.722Y-3.158
X5.82Y-3.4578
X5.82Y-3.7578
X5.822Y-2.858
X5.822Y-3.158
X5.838Y-3.93
X5.8669Y-3.328
X5.972Y-3.398
X5.972Y-3.594
X5.9816Y-2.7378
X6.0768Y-2.7362
X6.272Y-3.398
X6.272Y-3.594
X6.2736Y-2.7362
T4
X6.087Y-3.9203
X6.187Y-3.9203
T5
X3.9744Y-2.8328
X3.9744Y-2.9312
X3.9744Y-3.0297
T6
X5.08Y-2.9374
X5.08Y-3.1146
X5.336Y-2.9374
X5.336Y-3.1146
T7
X4.25Y-2.758
X4.25Y-3.1045
M30
