%TF.GenerationSoftware,KiCad,Pcbnew,9.0.1*%
%TF.CreationDate,2025-05-07T15:15:05+02:00*%
%TF.ProjectId,clock-module,636c6f63-6b2d-46d6-9f64-756c652e6b69,rev?*%
%TF.SameCoordinates,Original*%
%TF.FileFunction,Copper,L2,Bot*%
%TF.FilePolarity,Positive*%
%FSLAX46Y46*%
G04 Gerber Fmt 4.6, Leading zero omitted, Abs format (unit mm)*
G04 Created by KiCad (PCBNEW 9.0.1) date 2025-05-07 15:15:05*
%MOMM*%
%LPD*%
G01*
G04 APERTURE LIST*
G04 Aperture macros list*
%AMRoundRect*
0 Rectangle with rounded corners*
0 $1 Rounding radius*
0 $2 $3 $4 $5 $6 $7 $8 $9 X,Y pos of 4 corners*
0 Add a 4 corners polygon primitive as box body*
4,1,4,$2,$3,$4,$5,$6,$7,$8,$9,$2,$3,0*
0 Add four circle primitives for the rounded corners*
1,1,$1+$1,$2,$3*
1,1,$1+$1,$4,$5*
1,1,$1+$1,$6,$7*
1,1,$1+$1,$8,$9*
0 Add four rect primitives between the rounded corners*
20,1,$1+$1,$2,$3,$4,$5,0*
20,1,$1+$1,$4,$5,$6,$7,0*
20,1,$1+$1,$6,$7,$8,$9,0*
20,1,$1+$1,$8,$9,$2,$3,0*%
G04 Aperture macros list end*
%TA.AperFunction,ComponentPad*%
%ADD10C,1.600000*%
%TD*%
%TA.AperFunction,ComponentPad*%
%ADD11O,1.600000X1.600000*%
%TD*%
%TA.AperFunction,ComponentPad*%
%ADD12C,1.524000*%
%TD*%
%TA.AperFunction,ComponentPad*%
%ADD13R,1.800000X1.800000*%
%TD*%
%TA.AperFunction,ComponentPad*%
%ADD14C,1.800000*%
%TD*%
%TA.AperFunction,ComponentPad*%
%ADD15RoundRect,0.250000X0.550000X-0.550000X0.550000X0.550000X-0.550000X0.550000X-0.550000X-0.550000X0*%
%TD*%
%TA.AperFunction,ComponentPad*%
%ADD16C,2.000000*%
%TD*%
%TA.AperFunction,ComponentPad*%
%ADD17R,1.600000X1.600000*%
%TD*%
%TA.AperFunction,ComponentPad*%
%ADD18C,4.400000*%
%TD*%
%TA.AperFunction,ViaPad*%
%ADD19C,0.600000*%
%TD*%
%TA.AperFunction,Conductor*%
%ADD20C,0.200000*%
%TD*%
G04 APERTURE END LIST*
D10*
%TO.P,R7,1*%
%TO.N,VCC*%
X140665200Y-99822000D03*
D11*
%TO.P,R7,2*%
%TO.N,Net-(SW2-A)*%
X148285200Y-99822000D03*
%TD*%
D12*
%TO.P,SW2,1,A*%
%TO.N,Net-(SW2-A)*%
X153060400Y-79095600D03*
%TO.P,SW2,2,B*%
%TO.N,GND*%
X155060400Y-79095600D03*
%TO.P,SW2,3,C*%
%TO.N,Net-(SW2-C)*%
X157060400Y-79095600D03*
%TO.P,SW2,4*%
%TO.N,N/C*%
X153060400Y-74095600D03*
%TO.P,SW2,5*%
X155060400Y-74095600D03*
%TO.P,SW2,6*%
X157060400Y-74095600D03*
%TD*%
D13*
%TO.P,D1,1,K*%
%TO.N,Net-(D1-K)*%
X154610000Y-99575000D03*
D14*
%TO.P,D1,2,A*%
%TO.N,OUT_MUX*%
X157150000Y-99575000D03*
%TD*%
D15*
%TO.P,U3,1*%
%TO.N,OUT_A*%
X117297200Y-95295800D03*
D10*
%TO.P,U3,2*%
%TO.N,OUT_B*%
X119837200Y-95295800D03*
%TO.P,U3,3*%
%TO.N,Net-(U3-Pad3)*%
X122377200Y-95295800D03*
%TO.P,U3,4*%
%TO.N,OUT_B*%
X124917200Y-95295800D03*
%TO.P,U3,5*%
X127457200Y-95295800D03*
%TO.P,U3,6*%
%TO.N,Net-(U3-Pad13)*%
X129997200Y-95295800D03*
%TO.P,U3,7,GND*%
%TO.N,GND*%
X132537200Y-95295800D03*
%TO.P,U3,8*%
%TO.N,OUT_MUX*%
X132537200Y-87675800D03*
%TO.P,U3,9*%
%TO.N,Net-(U3-Pad3)*%
X129997200Y-87675800D03*
%TO.P,U3,10*%
%TO.N,Net-(U3-Pad10)*%
X127457200Y-87675800D03*
%TO.P,U3,11*%
X124917200Y-87675800D03*
%TO.P,U3,12*%
%TO.N,OUT_M*%
X122377200Y-87675800D03*
%TO.P,U3,13*%
%TO.N,Net-(U3-Pad13)*%
X119837200Y-87675800D03*
%TO.P,U3,14,VCC*%
%TO.N,VCC*%
X117297200Y-87675800D03*
%TD*%
%TO.P,R1,1*%
%TO.N,VCC*%
X115671600Y-69494400D03*
D11*
%TO.P,R1,2*%
%TO.N,Net-(U1-DIS)*%
X123291600Y-69494400D03*
%TD*%
D10*
%TO.P,R5,1*%
%TO.N,Net-(J1-CC2)*%
X118465600Y-99771200D03*
D11*
%TO.P,R5,2*%
%TO.N,GND*%
X126085600Y-99771200D03*
%TD*%
D15*
%TO.P,U2,1,GND*%
%TO.N,GND*%
X140258800Y-80213200D03*
D10*
%TO.P,U2,2,TR*%
%TO.N,Net-(U2-TR)*%
X142798800Y-80213200D03*
%TO.P,U2,3,Q*%
%TO.N,OUT_M*%
X145338800Y-80213200D03*
%TO.P,U2,4,R*%
%TO.N,VCC*%
X147878800Y-80213200D03*
%TO.P,U2,5,CV*%
%TO.N,Net-(U2-CV)*%
X147878800Y-72593200D03*
%TO.P,U2,6,THR*%
%TO.N,Net-(U2-DIS)*%
X145338800Y-72593200D03*
%TO.P,U2,7,DIS*%
X142798800Y-72593200D03*
%TO.P,U2,8,VCC*%
%TO.N,VCC*%
X140258800Y-72593200D03*
%TD*%
D15*
%TO.P,U1,1,GND*%
%TO.N,GND*%
X117386400Y-80552000D03*
D10*
%TO.P,U1,2,TR*%
%TO.N,Net-(U1-THR)*%
X119926400Y-80552000D03*
%TO.P,U1,3,Q*%
%TO.N,OUT_A*%
X122466400Y-80552000D03*
%TO.P,U1,4,R*%
%TO.N,VCC*%
X125006400Y-80552000D03*
%TO.P,U1,5,CV*%
%TO.N,Net-(U1-CV)*%
X125006400Y-72932000D03*
%TO.P,U1,6,THR*%
%TO.N,Net-(U1-THR)*%
X122466400Y-72932000D03*
%TO.P,U1,7,DIS*%
%TO.N,Net-(U1-DIS)*%
X119926400Y-72932000D03*
%TO.P,U1,8,VCC*%
%TO.N,VCC*%
X117386400Y-72932000D03*
%TD*%
%TO.P,C5,1*%
%TO.N,Net-(U2-CV)*%
X135930000Y-84531200D03*
%TO.P,C5,2*%
%TO.N,GND*%
X140930000Y-84531200D03*
%TD*%
D16*
%TO.P,SW1,1,1*%
%TO.N,GND*%
X129033200Y-74610400D03*
X135533200Y-74610400D03*
%TO.P,SW1,2,2*%
%TO.N,Net-(U2-TR)*%
X129033200Y-79110400D03*
X135533200Y-79110400D03*
%TD*%
D10*
%TO.P,R8,1*%
%TO.N,Net-(D1-K)*%
X151688800Y-91287600D03*
D11*
%TO.P,R8,2*%
%TO.N,GND*%
X159308800Y-91287600D03*
%TD*%
D10*
%TO.P,C2,1*%
%TO.N,VCC*%
X114463200Y-99314000D03*
%TO.P,C2,2*%
%TO.N,GND*%
X109463200Y-99314000D03*
%TD*%
D15*
%TO.P,U4,1,GND*%
%TO.N,GND*%
X140208000Y-95448200D03*
D10*
%TO.P,U4,2,TR*%
%TO.N,Net-(SW2-A)*%
X142748000Y-95448200D03*
%TO.P,U4,3,Q*%
%TO.N,OUT_B*%
X145288000Y-95448200D03*
%TO.P,U4,4,R*%
%TO.N,Net-(SW2-C)*%
X147828000Y-95448200D03*
%TO.P,U4,5,CV*%
%TO.N,Net-(U4-CV)*%
X147828000Y-87828200D03*
%TO.P,U4,6,THR*%
%TO.N,GND*%
X145288000Y-87828200D03*
%TO.P,U4,7,DIS*%
%TO.N,unconnected-(U4-DIS-Pad7)*%
X142748000Y-87828200D03*
%TO.P,U4,8,VCC*%
%TO.N,VCC*%
X140208000Y-87828200D03*
%TD*%
D17*
%TO.P,C7,1*%
%TO.N,Net-(U1-THR)*%
X110979200Y-86106000D03*
D10*
%TO.P,C7,2*%
%TO.N,GND*%
X112979200Y-86106000D03*
%TD*%
%TO.P,C4,1*%
%TO.N,Net-(U1-CV)*%
X125922400Y-69545200D03*
%TO.P,C4,2*%
%TO.N,GND*%
X130922400Y-69545200D03*
%TD*%
%TO.P,C3,1*%
%TO.N,VCC*%
X114299199Y-95208800D03*
%TO.P,C3,2*%
%TO.N,GND*%
X109299199Y-95208800D03*
%TD*%
D17*
%TO.P,C1,1*%
%TO.N,VCC*%
X102648000Y-85090000D03*
D10*
%TO.P,C1,2*%
%TO.N,GND*%
X104648000Y-85090000D03*
%TD*%
%TO.P,R9,1*%
%TO.N,Net-(SW2-C)*%
X151688800Y-86309200D03*
D11*
%TO.P,R9,2*%
%TO.N,VCC*%
X159308800Y-86309200D03*
%TD*%
D10*
%TO.P,C6,1*%
%TO.N,Net-(U2-DIS)*%
X144018000Y-84531200D03*
%TO.P,C6,2*%
%TO.N,GND*%
X149018000Y-84531200D03*
%TD*%
D14*
%TO.P,RV1,1,1*%
%TO.N,Net-(U1-THR)*%
X100950000Y-76953200D03*
%TO.P,RV1,2,2*%
%TO.N,Net-(R4-Pad2)*%
X100950000Y-74453200D03*
%TO.P,RV1,3,3*%
%TO.N,unconnected-(RV1-Pad3)*%
X100950000Y-71953200D03*
D18*
%TO.P,RV1,MP*%
%TO.N,N/C*%
X107950000Y-70053200D03*
X107950000Y-78853200D03*
%TD*%
D10*
%TO.P,R3,1*%
%TO.N,VCC*%
X144311800Y-69541000D03*
D11*
%TO.P,R3,2*%
%TO.N,Net-(U2-DIS)*%
X151931800Y-69541000D03*
%TD*%
D10*
%TO.P,R2,1*%
%TO.N,VCC*%
X133796200Y-69490200D03*
D11*
%TO.P,R2,2*%
%TO.N,Net-(U2-TR)*%
X141416200Y-69490200D03*
%TD*%
D10*
%TO.P,C8,1*%
%TO.N,Net-(U4-CV)*%
X154350000Y-69500000D03*
%TO.P,C8,2*%
%TO.N,GND*%
X159350000Y-69500000D03*
%TD*%
%TO.P,R6,1*%
%TO.N,Net-(J1-CC1)*%
X129540000Y-99822000D03*
D11*
%TO.P,R6,2*%
%TO.N,GND*%
X137160000Y-99822000D03*
%TD*%
D10*
%TO.P,R4,1*%
%TO.N,Net-(U1-DIS)*%
X116789200Y-84683600D03*
D11*
%TO.P,R4,2*%
%TO.N,Net-(R4-Pad2)*%
X124409200Y-84683600D03*
%TD*%
D19*
%TO.N,Net-(U1-THR)*%
X115475000Y-78425000D03*
%TO.N,VCC*%
X134425000Y-89575000D03*
X145075000Y-81625000D03*
X145275000Y-78900000D03*
%TO.N,Net-(U1-DIS)*%
X114675000Y-81050000D03*
%TO.N,Net-(SW2-A)*%
X145650000Y-93000000D03*
%TO.N,Net-(U2-TR)*%
X141375000Y-77375000D03*
%TO.N,OUT_B*%
X141650000Y-92350000D03*
%TD*%
D20*
%TO.N,Net-(U1-CV)*%
X125922400Y-72016000D02*
X125006400Y-72932000D01*
X125922400Y-69545200D02*
X125922400Y-72016000D01*
%TO.N,GND*%
X116263400Y-81675000D02*
X114000000Y-81675000D01*
X114000000Y-81675000D02*
X112979200Y-82695800D01*
X151775000Y-81774200D02*
X151775000Y-77725000D01*
X157725000Y-75575000D02*
X159350000Y-73950000D01*
X129033200Y-71434400D02*
X129033200Y-74610400D01*
X159350000Y-73950000D02*
X159350000Y-69500000D01*
X154100000Y-76900000D02*
X155060400Y-77860400D01*
X140258800Y-76558800D02*
X138310400Y-74610400D01*
X140258800Y-80213200D02*
X140258800Y-76558800D01*
X117386400Y-78488600D02*
X117386400Y-80552000D01*
X117386400Y-80552000D02*
X116263400Y-81675000D01*
X152600000Y-76900000D02*
X154100000Y-76900000D01*
X129033200Y-74610400D02*
X121264600Y-74610400D01*
X135533200Y-74610400D02*
X129033200Y-74610400D01*
X155060400Y-77860400D02*
X155060400Y-79095600D01*
X154100000Y-76900000D02*
X155425000Y-75575000D01*
X121264600Y-74610400D02*
X117386400Y-78488600D01*
X155425000Y-75575000D02*
X157725000Y-75575000D01*
X149018000Y-84531200D02*
X151775000Y-81774200D01*
X130922400Y-69545200D02*
X129033200Y-71434400D01*
X138310400Y-74610400D02*
X135533200Y-74610400D01*
X112979200Y-82695800D02*
X112979200Y-86106000D01*
X151775000Y-77725000D02*
X152600000Y-76900000D01*
%TO.N,Net-(U1-THR)*%
X113750000Y-78425000D02*
X110979200Y-81195800D01*
X100950000Y-76953200D02*
X101826400Y-76953200D01*
X110979200Y-81195800D02*
X110979200Y-86106000D01*
X115475000Y-78425000D02*
X113750000Y-78425000D01*
X101826400Y-76953200D02*
X110979200Y-86106000D01*
%TO.N,VCC*%
X136899200Y-72593200D02*
X140258800Y-72593200D01*
X117882600Y-87675800D02*
X125006400Y-80552000D01*
X142325000Y-85350000D02*
X140208000Y-87467000D01*
X140665200Y-99822000D02*
X138468200Y-97625000D01*
X142552800Y-71300000D02*
X144311800Y-69541000D01*
X142325000Y-83225000D02*
X142325000Y-85350000D01*
X142900000Y-82650000D02*
X142325000Y-83225000D01*
X144650000Y-81625000D02*
X143625000Y-82650000D01*
X145075000Y-81625000D02*
X144650000Y-81625000D01*
X140258800Y-71791200D02*
X140750000Y-71300000D01*
X143625000Y-82650000D02*
X142900000Y-82650000D01*
X145275000Y-78900000D02*
X143825000Y-78900000D01*
X140208000Y-87467000D02*
X140208000Y-87828200D01*
X140258800Y-72593200D02*
X140258800Y-71791200D01*
X117297200Y-87675800D02*
X117882600Y-87675800D01*
X133796200Y-69490200D02*
X136899200Y-72593200D01*
X136475000Y-97625000D02*
X134350000Y-95500000D01*
X134350000Y-89650000D02*
X134425000Y-89575000D01*
X140258800Y-75333800D02*
X140258800Y-72593200D01*
X143825000Y-78900000D02*
X140258800Y-75333800D01*
X138468200Y-97625000D02*
X136475000Y-97625000D01*
X140750000Y-71300000D02*
X142552800Y-71300000D01*
X134350000Y-95500000D02*
X134350000Y-89650000D01*
%TO.N,Net-(U1-DIS)*%
X119926400Y-72932000D02*
X119900000Y-72958400D01*
X119900000Y-75125000D02*
X114675000Y-80350000D01*
X119900000Y-72958400D02*
X119900000Y-75125000D01*
X114675000Y-80350000D02*
X114675000Y-81050000D01*
%TO.N,OUT_A*%
X115600000Y-82375000D02*
X121350000Y-82375000D01*
X117297200Y-91147200D02*
X114950000Y-88800000D01*
X114950000Y-83025000D02*
X115600000Y-82375000D01*
X122466400Y-81258600D02*
X122466400Y-80552000D01*
X117297200Y-95295800D02*
X117297200Y-91147200D01*
X121350000Y-82375000D02*
X122466400Y-81258600D01*
X114950000Y-88800000D02*
X114950000Y-83025000D01*
%TO.N,Net-(U2-DIS)*%
X142798800Y-72593200D02*
X142798800Y-75398800D01*
X146600000Y-81949200D02*
X144018000Y-84531200D01*
X146600000Y-79200000D02*
X146600000Y-81949200D01*
X150797800Y-70675000D02*
X147257000Y-70675000D01*
X151931800Y-69541000D02*
X150797800Y-70675000D01*
X142798800Y-75398800D02*
X146600000Y-79200000D01*
X145338800Y-72593200D02*
X142798800Y-72593200D01*
X147257000Y-70675000D02*
X145338800Y-72593200D01*
%TO.N,Net-(SW2-A)*%
X150325000Y-88325000D02*
X145650000Y-93000000D01*
X153060400Y-79095600D02*
X153060400Y-81964600D01*
X150325000Y-84700000D02*
X150325000Y-88325000D01*
X153060400Y-81964600D02*
X150325000Y-84700000D01*
%TO.N,OUT_M*%
X131475000Y-86375000D02*
X135825000Y-82025000D01*
X143350000Y-82025000D02*
X145161800Y-80213200D01*
X145161800Y-80213200D02*
X145338800Y-80213200D01*
X135825000Y-82025000D02*
X143350000Y-82025000D01*
X123678000Y-86375000D02*
X131475000Y-86375000D01*
X122377200Y-87675800D02*
X123678000Y-86375000D01*
X145660800Y-80097000D02*
X145800800Y-80237000D01*
%TO.N,Net-(U2-TR)*%
X142798800Y-81621122D02*
X142798800Y-80213200D01*
X135533200Y-79110400D02*
X129033200Y-79110400D01*
X141375000Y-78789400D02*
X142798800Y-80213200D01*
X141375000Y-77375000D02*
X141375000Y-78789400D01*
X138043922Y-81621122D02*
X142798800Y-81621122D01*
X135533200Y-79110400D02*
X138043922Y-81621122D01*
%TO.N,Net-(SW2-C)*%
X151688800Y-88236200D02*
X147828000Y-92097000D01*
X151688800Y-84561200D02*
X151688800Y-86309200D01*
X157060400Y-81264600D02*
X154500000Y-83825000D01*
X152425000Y-83825000D02*
X151688800Y-84561200D01*
X154500000Y-83825000D02*
X152425000Y-83825000D01*
X151688800Y-86309200D02*
X151688800Y-88236200D01*
X157060400Y-79095600D02*
X157060400Y-81264600D01*
X147828000Y-92097000D02*
X147828000Y-95448200D01*
%TO.N,OUT_B*%
X141725000Y-92275000D02*
X143350000Y-92275000D01*
X121716400Y-97175000D02*
X123475000Y-97175000D01*
X143350000Y-92275000D02*
X145288000Y-94213000D01*
X119837200Y-95295800D02*
X121716400Y-97175000D01*
X141650000Y-92350000D02*
X141725000Y-92275000D01*
X123475000Y-97175000D02*
X124917200Y-95732800D01*
X124917200Y-95295800D02*
X127457200Y-95295800D01*
X145288000Y-94213000D02*
X145288000Y-95448200D01*
X124917200Y-95732800D02*
X124917200Y-95295800D01*
%TO.N,OUT_MUX*%
X135025000Y-95400000D02*
X135025000Y-88775000D01*
X136725000Y-97100000D02*
X135025000Y-95400000D01*
X157150000Y-99575000D02*
X154675000Y-97100000D01*
X135025000Y-88775000D02*
X133925800Y-87675800D01*
X154675000Y-97100000D02*
X136725000Y-97100000D01*
X133925800Y-87675800D02*
X132537200Y-87675800D01*
%TO.N,Net-(U4-CV)*%
X150500000Y-72300000D02*
X151225000Y-71575000D01*
X152275000Y-71575000D02*
X154350000Y-69500000D01*
X147025000Y-87025200D02*
X147025000Y-83875000D01*
X151225000Y-71575000D02*
X152275000Y-71575000D01*
X150500000Y-80400000D02*
X150500000Y-72300000D01*
X147025000Y-83875000D02*
X150500000Y-80400000D01*
X147828000Y-87828200D02*
X147025000Y-87025200D01*
%TO.N,Net-(U3-Pad10)*%
X124917200Y-87675800D02*
X127457200Y-87675800D01*
%TO.N,Net-(U3-Pad13)*%
X119837200Y-87675800D02*
X119837200Y-90762200D01*
X119837200Y-90762200D02*
X121650000Y-92575000D01*
X121650000Y-92575000D02*
X127276400Y-92575000D01*
X127276400Y-92575000D02*
X129997200Y-95295800D01*
%TD*%
M02*
